G04 Layer: TopSilkLayer*
G04 EasyEDA v6.1.52, Thu, 18 Jul 2019 05:09:05 GMT*
G04 8382f10332f7419696121afc9098c204,10*
G04 Gerber Generator version 0.2*
G04 Scale: 100 percent, Rotated: No, Reflected: No *
G04 Dimensions in millimeters *
G04 leading zeros omitted , absolute positions ,3 integer and 3 decimal *
%FSLAX33Y33*%
%MOMM*%
G90*
G71D02*

%ADD10C,0.254000*%
%ADD12C,0.499999*%
%ADD16C,0.203200*%
%ADD25C,0.177800*%
%ADD26C,0.250012*%

%LPD*%
G54D10*
G01X17780Y190754D02*
G01X17780Y195453D01*
G01X7239Y190754D02*
G01X7239Y195453D01*
G01X17780Y190754D02*
G01X7239Y190754D01*
G01X17780Y195453D02*
G01X7239Y195453D01*
G01X17780Y328930D02*
G01X17780Y333629D01*
G01X7239Y328930D02*
G01X7239Y333629D01*
G01X17780Y328930D02*
G01X7239Y328930D01*
G01X17780Y333629D02*
G01X7239Y333629D01*
G01X27940Y35814D02*
G01X37939Y35814D01*
G01X27940Y35814D02*
G01X27940Y45813D01*
G01X27940Y45813D02*
G01X37939Y45813D01*
G01X37939Y35814D02*
G01X37939Y45813D01*
G01X60309Y35814D02*
G01X123108Y35814D01*
G01X60309Y100893D02*
G01X123108Y100893D01*
G01X123108Y35814D02*
G01X123108Y100893D01*
G01X60309Y100893D02*
G01X60309Y35814D01*
G01X57150Y198628D02*
G01X59690Y198628D01*
G01X57150Y196088D02*
G01X59690Y196088D01*
G01X59690Y198628D02*
G01X59690Y196088D01*
G01X57150Y198628D02*
G01X57150Y196088D01*
G01X88900Y208788D02*
G01X91440Y208788D01*
G01X88900Y206248D02*
G01X91440Y206248D01*
G01X91440Y208788D02*
G01X91440Y206248D01*
G01X88900Y208788D02*
G01X88900Y206248D01*
G01X118364Y186944D02*
G01X120904Y186944D01*
G01X118364Y184404D02*
G01X120904Y184404D01*
G01X120904Y186944D02*
G01X120904Y184404D01*
G01X118364Y186944D02*
G01X118364Y184404D01*
G01X20320Y309626D02*
G01X22860Y309626D01*
G01X20320Y307086D02*
G01X22860Y307086D01*
G01X22860Y309626D02*
G01X22860Y307086D01*
G01X20320Y309626D02*
G01X20320Y307086D01*
G01X77470Y324358D02*
G01X80010Y324358D01*
G01X77470Y321818D02*
G01X80010Y321818D01*
G01X80010Y324358D02*
G01X80010Y321818D01*
G01X77470Y324358D02*
G01X77470Y321818D01*
G01X98552Y326644D02*
G01X101092Y326644D01*
G01X98552Y324104D02*
G01X101092Y324104D01*
G01X101092Y326644D02*
G01X101092Y324104D01*
G01X98552Y326644D02*
G01X98552Y324104D01*
G01X55626Y35814D02*
G01X55626Y86614D01*
G01X55626Y35814D02*
G01X50546Y35814D01*
G01X50546Y35814D02*
G01X50546Y86614D01*
G01X55626Y86614D02*
G01X50546Y86614D01*
G01X7112Y113792D02*
G01X11811Y113792D01*
G01X7112Y124333D02*
G01X11811Y124333D01*
G01X7112Y113792D02*
G01X7112Y124333D01*
G01X11811Y113792D02*
G01X11811Y124333D01*
G01X7112Y274066D02*
G01X11811Y274066D01*
G01X7112Y284607D02*
G01X11811Y284607D01*
G01X7112Y274066D02*
G01X7112Y284607D01*
G01X11811Y274066D02*
G01X11811Y284607D01*
G01X46990Y126746D02*
G01X52578Y126746D01*
G01X52578Y105410D01*
G01X46990Y105410D01*
G01X46990Y126746D01*
G01X46990Y126746D01*
G01X85344Y126746D02*
G01X90932Y126746D01*
G01X90932Y105410D01*
G01X85344Y105410D01*
G01X85344Y126746D01*
G01X85344Y126746D01*
G01X28702Y274828D02*
G01X28702Y273558D01*
G01X23622Y273558D01*
G01X23622Y292862D01*
G01X28702Y292862D01*
G01X28702Y291592D01*
G01X28702Y274828D02*
G01X28702Y291592D01*
G01X85344Y294894D02*
G01X90932Y294894D01*
G01X90932Y273558D01*
G01X85344Y273558D01*
G01X85344Y294894D01*
G01X85344Y294894D01*
G01X44450Y294894D02*
G01X50038Y294894D01*
G01X50038Y273558D01*
G01X44450Y273558D01*
G01X44450Y294894D01*
G01X44450Y294894D01*
G01X53848Y205232D02*
G01X53848Y208931D01*
G01X53848Y205232D02*
G01X62347Y205232D01*
G01X53848Y208931D02*
G01X62347Y208931D01*
G01X62348Y205232D02*
G01X62348Y208931D01*
G01X89154Y197104D02*
G01X92853Y197104D01*
G01X89154Y197104D02*
G01X89154Y188604D01*
G01X92853Y197104D02*
G01X92853Y188604D01*
G01X89154Y188603D02*
G01X92853Y188603D01*
G01X31496Y223774D02*
G01X31496Y221274D01*
G01X31496Y223774D02*
G01X36995Y223774D01*
G01X36995Y223774D02*
G01X36995Y221274D01*
G01X31496Y221274D02*
G01X36995Y221274D01*
G01X78486Y192532D02*
G01X78486Y190032D01*
G01X78486Y192532D02*
G01X83985Y192532D01*
G01X83985Y192532D02*
G01X83985Y190032D01*
G01X78486Y190032D02*
G01X83985Y190032D01*
G01X113030Y221996D02*
G01X113030Y219496D01*
G01X113030Y221996D02*
G01X118529Y221996D01*
G01X118529Y221996D02*
G01X118529Y219496D01*
G01X113030Y219496D02*
G01X118529Y219496D01*
G01X34544Y305562D02*
G01X34544Y308061D01*
G01X34544Y305562D02*
G01X29044Y305562D01*
G01X29044Y305562D02*
G01X29044Y308061D01*
G01X34544Y308061D02*
G01X29044Y308061D01*
G01X54864Y322834D02*
G01X57363Y322834D01*
G01X54864Y322834D02*
G01X54864Y328333D01*
G01X54864Y328333D02*
G01X57363Y328333D01*
G01X57363Y322834D02*
G01X57363Y328333D01*
G01X96012Y315976D02*
G01X93512Y315976D01*
G01X96012Y315976D02*
G01X96012Y310476D01*
G01X96012Y310476D02*
G01X93512Y310476D01*
G01X93512Y315976D02*
G01X93512Y310476D01*
G01X31496Y220980D02*
G01X31496Y218480D01*
G01X31496Y220980D02*
G01X36995Y220980D01*
G01X36995Y220980D02*
G01X36995Y218480D01*
G01X31496Y218480D02*
G01X36995Y218480D01*
G01X78486Y189484D02*
G01X78486Y186984D01*
G01X78486Y189484D02*
G01X83985Y189484D01*
G01X83985Y189484D02*
G01X83985Y186984D01*
G01X78486Y186984D02*
G01X83985Y186984D01*
G01X113030Y225044D02*
G01X113030Y222544D01*
G01X113030Y225044D02*
G01X118529Y225044D01*
G01X118529Y225044D02*
G01X118529Y222544D01*
G01X113030Y222544D02*
G01X118529Y222544D01*
G01X28956Y303784D02*
G01X28956Y301284D01*
G01X28956Y303784D02*
G01X34455Y303784D01*
G01X34455Y303784D02*
G01X34455Y301284D01*
G01X28956Y301284D02*
G01X34455Y301284D01*
G01X84836Y310896D02*
G01X87335Y310896D01*
G01X84836Y310896D02*
G01X84836Y316395D01*
G01X84836Y316395D02*
G01X87335Y316395D01*
G01X87335Y310896D02*
G01X87335Y316395D01*
G01X90424Y310642D02*
G01X92923Y310642D01*
G01X90424Y310642D02*
G01X90424Y316141D01*
G01X90424Y316141D02*
G01X92923Y316141D01*
G01X92923Y310642D02*
G01X92923Y316141D01*
G01X99568Y181102D02*
G01X102067Y181102D01*
G01X99568Y181102D02*
G01X99568Y186601D01*
G01X99568Y186601D02*
G01X102067Y186601D01*
G01X102067Y181102D02*
G01X102067Y186601D01*
G01X78486Y186436D02*
G01X78486Y183936D01*
G01X78486Y186436D02*
G01X83985Y186436D01*
G01X83985Y186436D02*
G01X83985Y183936D01*
G01X78486Y183936D02*
G01X83985Y183936D01*
G01X31496Y217932D02*
G01X31496Y215432D01*
G01X31496Y217932D02*
G01X36995Y217932D01*
G01X36995Y217932D02*
G01X36995Y215432D01*
G01X31496Y215432D02*
G01X36995Y215432D01*
G01X101600Y303276D02*
G01X101600Y305775D01*
G01X101600Y303276D02*
G01X96100Y303276D01*
G01X96100Y303276D02*
G01X96100Y305775D01*
G01X101600Y305775D02*
G01X96100Y305775D01*
G01X48260Y325882D02*
G01X45760Y325882D01*
G01X48260Y325882D02*
G01X48260Y320382D01*
G01X48260Y320382D02*
G01X45760Y320382D01*
G01X45760Y325882D02*
G01X45760Y320382D01*
G01X11430Y313944D02*
G01X13929Y313944D01*
G01X11430Y313944D02*
G01X11430Y319443D01*
G01X11430Y319443D02*
G01X13929Y319443D01*
G01X13929Y313944D02*
G01X13929Y319443D01*
G01X52578Y213868D02*
G01X50078Y213868D01*
G01X52578Y213868D02*
G01X52578Y208368D01*
G01X52578Y208368D02*
G01X50078Y208367D01*
G01X50078Y213868D02*
G01X50078Y208368D01*
G01X69088Y202946D02*
G01X71587Y202946D01*
G01X69088Y202946D02*
G01X69088Y208445D01*
G01X69088Y208445D02*
G01X71587Y208446D01*
G01X71587Y202946D02*
G01X71587Y208445D01*
G01X108966Y176022D02*
G01X108966Y173522D01*
G01X108966Y176022D02*
G01X114465Y176022D01*
G01X114465Y176022D02*
G01X114466Y173522D01*
G01X108966Y173522D02*
G01X114465Y173522D01*
G01X27178Y319532D02*
G01X24678Y319532D01*
G01X27178Y319532D02*
G01X27178Y314032D01*
G01X27178Y314032D02*
G01X24678Y314031D01*
G01X24678Y319532D02*
G01X24678Y314032D01*
G01X53594Y340106D02*
G01X51094Y340106D01*
G01X53594Y340106D02*
G01X53594Y334606D01*
G01X53594Y334606D02*
G01X51094Y334605D01*
G01X51094Y340106D02*
G01X51094Y334606D01*
G01X112014Y330962D02*
G01X112014Y333461D01*
G01X112014Y330962D02*
G01X106514Y330962D01*
G01X106514Y330962D02*
G01X106513Y333461D01*
G01X112014Y333461D02*
G01X106514Y333461D01*
G01X82550Y219456D02*
G01X83566Y219456D01*
G01X82550Y219456D02*
G01X82550Y217457D01*
G01X83566Y219456D02*
G01X83566Y217457D01*
G01X82550Y217456D02*
G01X83566Y217456D01*
G01X112776Y182372D02*
G01X113792Y182372D01*
G01X112776Y182372D02*
G01X112776Y180373D01*
G01X113792Y182372D02*
G01X113792Y180373D01*
G01X112776Y180372D02*
G01X113792Y180372D01*
G01X24130Y333502D02*
G01X23114Y333502D01*
G01X24130Y333502D02*
G01X24130Y335500D01*
G01X23114Y333502D02*
G01X23114Y335500D01*
G01X24130Y335501D02*
G01X23114Y335501D01*
G01X66040Y336804D02*
G01X65024Y336804D01*
G01X66040Y336804D02*
G01X66040Y338802D01*
G01X65024Y336804D02*
G01X65024Y338802D01*
G01X66040Y338803D02*
G01X65024Y338803D01*
G01X111506Y304038D02*
G01X111506Y305054D01*
G01X111506Y304038D02*
G01X113504Y304038D01*
G01X111506Y305054D02*
G01X113504Y305054D01*
G01X113504Y304038D02*
G01X113504Y305054D01*
G01X108966Y179324D02*
G01X108966Y176824D01*
G01X108966Y179324D02*
G01X114465Y179324D01*
G01X114465Y179324D02*
G01X114466Y176824D01*
G01X108966Y176824D02*
G01X114465Y176824D01*
G01X91948Y203454D02*
G01X94447Y203454D01*
G01X91948Y203454D02*
G01X91948Y208953D01*
G01X91948Y208953D02*
G01X94447Y208954D01*
G01X94447Y203454D02*
G01X94447Y208953D01*
G01X61722Y193040D02*
G01X64221Y193040D01*
G01X61722Y193040D02*
G01X61722Y198539D01*
G01X61722Y198539D02*
G01X64221Y198540D01*
G01X64221Y193040D02*
G01X64221Y198539D01*
G01X18288Y319532D02*
G01X15788Y319532D01*
G01X18288Y319532D02*
G01X18288Y314032D01*
G01X18288Y314032D02*
G01X15788Y314031D01*
G01X15788Y319532D02*
G01X15788Y314032D01*
G01X70104Y321818D02*
G01X70104Y319318D01*
G01X70104Y321818D02*
G01X75603Y321818D01*
G01X75603Y321818D02*
G01X75604Y319318D01*
G01X70104Y319318D02*
G01X75603Y319318D01*
G01X112014Y326644D02*
G01X112014Y329143D01*
G01X112014Y326644D02*
G01X106514Y326644D01*
G01X106514Y326644D02*
G01X106513Y329143D01*
G01X112014Y329143D02*
G01X106514Y329143D01*
G01X76708Y308864D02*
G01X62207Y308864D01*
G01X76708Y333862D02*
G01X62207Y333862D01*
G01X76708Y308864D02*
G01X76708Y333862D01*
G01X62207Y308864D02*
G01X62207Y333862D01*
G01X74538Y328782D02*
G01X74538Y333862D01*
G01X64378Y328782D02*
G01X64378Y333862D01*
G01X74538Y328782D02*
G01X64378Y328782D01*
G01X88138Y188976D02*
G01X73637Y188976D01*
G01X88138Y213974D02*
G01X73637Y213974D01*
G01X88138Y188976D02*
G01X88138Y213974D01*
G01X73637Y188976D02*
G01X73637Y213974D01*
G01X85968Y208894D02*
G01X85968Y213974D01*
G01X75808Y208894D02*
G01X75808Y213974D01*
G01X85968Y208894D02*
G01X75808Y208894D01*
G01X47244Y208280D02*
G01X49743Y208280D01*
G01X47244Y208280D02*
G01X47244Y213779D01*
G01X47244Y213779D02*
G01X49743Y213780D01*
G01X49743Y208280D02*
G01X49743Y213779D01*
G01X77978Y200914D02*
G01X77978Y198414D01*
G01X77978Y200914D02*
G01X83477Y200914D01*
G01X83477Y200914D02*
G01X83477Y198414D01*
G01X77978Y198414D02*
G01X83477Y198414D01*
G01X99822Y196088D02*
G01X97322Y196088D01*
G01X99822Y196088D02*
G01X99822Y190588D01*
G01X99822Y190588D02*
G01X97322Y190587D01*
G01X97322Y196088D02*
G01X97322Y190588D01*
G01X20320Y313944D02*
G01X22819Y313944D01*
G01X20320Y313944D02*
G01X20320Y319443D01*
G01X20320Y319443D02*
G01X22819Y319444D01*
G01X22819Y313944D02*
G01X22819Y319443D01*
G01X70358Y317754D02*
G01X70358Y315254D01*
G01X70358Y317754D02*
G01X75857Y317754D01*
G01X75857Y317754D02*
G01X75857Y315254D01*
G01X70358Y315254D02*
G01X75857Y315254D01*
G01X106426Y325882D02*
G01X106426Y323382D01*
G01X106426Y325882D02*
G01X111925Y325882D01*
G01X111925Y325882D02*
G01X111926Y323382D01*
G01X106426Y323382D02*
G01X111925Y323382D01*
G01X57150Y183134D02*
G01X58166Y183134D01*
G01X57150Y183134D02*
G01X57150Y181135D01*
G01X58166Y183134D02*
G01X58166Y181135D01*
G01X57150Y181134D02*
G01X58166Y181134D01*
G01X31750Y345440D02*
G01X35449Y345440D01*
G01X31750Y345440D02*
G01X31750Y336940D01*
G01X35449Y345440D02*
G01X35449Y336940D01*
G01X31750Y336939D02*
G01X35449Y336939D01*
G01X84328Y343154D02*
G01X88027Y343154D01*
G01X84328Y343154D02*
G01X84328Y334654D01*
G01X88027Y343154D02*
G01X88027Y334654D01*
G01X84328Y334653D02*
G01X88027Y334653D01*
G01X91440Y343154D02*
G01X95139Y343154D01*
G01X91440Y343154D02*
G01X91440Y334654D01*
G01X95139Y343154D02*
G01X95139Y334654D01*
G01X91440Y334653D02*
G01X95139Y334653D01*
G01X111506Y215138D02*
G01X111506Y218837D01*
G01X111506Y215138D02*
G01X120005Y215138D01*
G01X111506Y218837D02*
G01X120005Y218837D01*
G01X120006Y215138D02*
G01X120006Y218837D01*
G01X28448Y188976D02*
G01X28448Y203475D01*
G01X53447Y188976D02*
G01X53447Y203475D01*
G01X28448Y188976D02*
G01X53447Y188976D01*
G01X28448Y203475D02*
G01X53447Y203475D01*
G01X48367Y191145D02*
G01X53447Y191145D01*
G01X48367Y201305D02*
G01X53447Y201305D01*
G01X48367Y191145D02*
G01X48367Y201305D01*
G01X108204Y214122D02*
G01X122703Y214122D01*
G01X108204Y189122D02*
G01X122703Y189122D01*
G01X108204Y214122D02*
G01X108204Y189122D01*
G01X122703Y214122D02*
G01X122703Y189122D01*
G01X110373Y194202D02*
G01X110373Y189122D01*
G01X120533Y194202D02*
G01X120533Y189122D01*
G01X110373Y194202D02*
G01X120533Y194202D01*
G01X42164Y308610D02*
G01X27664Y308610D01*
G01X42164Y333609D02*
G01X27664Y333609D01*
G01X42164Y308610D02*
G01X42164Y333609D01*
G01X27664Y308610D02*
G01X27664Y333609D01*
G01X39994Y328529D02*
G01X39994Y333609D01*
G01X29834Y328529D02*
G01X29834Y333609D01*
G01X39994Y328529D02*
G01X29834Y328529D01*
G01X96520Y308864D02*
G01X96520Y323363D01*
G01X121519Y308864D02*
G01X121519Y323363D01*
G01X96520Y308864D02*
G01X121519Y308864D01*
G01X96520Y323363D02*
G01X121519Y323363D01*
G01X116439Y311033D02*
G01X121519Y311033D01*
G01X116439Y321193D02*
G01X121519Y321193D01*
G01X116439Y311033D02*
G01X116439Y321193D01*
G54D25*
G01X12700Y328282D02*
G01X12700Y327192D01*
G01X12700Y327192D02*
G01X13322Y327192D01*
G01X13665Y328282D02*
G01X13665Y327192D01*
G01X13665Y328282D02*
G01X14081Y327192D01*
G01X14498Y328282D02*
G01X14081Y327192D01*
G01X14498Y328282D02*
G01X14498Y327192D01*
G01X15359Y328282D02*
G01X14841Y327555D01*
G01X15621Y327555D01*
G01X15359Y328282D02*
G01X15359Y327192D01*
G01X26047Y41003D02*
G01X27137Y41003D01*
G01X26047Y40640D02*
G01X26047Y41366D01*
G01X26253Y41709D02*
G01X26202Y41813D01*
G01X26047Y41970D01*
G01X27137Y41970D01*
G54D16*
G01X32258Y33964D02*
G01X33919Y33964D01*
G01X33088Y33134D02*
G01X33088Y34798D01*
G54D25*
G01X91694Y102984D02*
G01X91694Y101894D01*
G01X91694Y102984D02*
G01X92161Y102984D01*
G01X92316Y102933D01*
G01X92369Y102882D01*
G01X92420Y102778D01*
G01X92420Y102621D01*
G01X92369Y102516D01*
G01X92316Y102466D01*
G01X92161Y102412D01*
G01X91694Y102412D01*
G01X92763Y102984D02*
G01X92763Y101894D01*
G01X58674Y200152D02*
G01X58674Y199374D01*
G01X58724Y199217D01*
G01X58828Y199113D01*
G01X58986Y199062D01*
G01X59090Y199062D01*
G01X59245Y199113D01*
G01X59349Y199217D01*
G01X59400Y199374D01*
G01X59400Y200152D01*
G01X59796Y199892D02*
G01X59796Y199946D01*
G01X59847Y200050D01*
G01X59900Y200101D01*
G01X60004Y200152D01*
G01X60210Y200152D01*
G01X60314Y200101D01*
G01X60368Y200050D01*
G01X60418Y199946D01*
G01X60418Y199842D01*
G01X60368Y199737D01*
G01X60264Y199580D01*
G01X59743Y199062D01*
G01X60472Y199062D01*
G01X61125Y200152D02*
G01X60970Y200101D01*
G01X60866Y199946D01*
G01X60815Y199684D01*
G01X60815Y199529D01*
G01X60866Y199270D01*
G01X60970Y199113D01*
G01X61125Y199062D01*
G01X61229Y199062D01*
G01X61386Y199113D01*
G01X61490Y199270D01*
G01X61541Y199529D01*
G01X61541Y199684D01*
G01X61490Y199946D01*
G01X61386Y200101D01*
G01X61229Y200152D01*
G01X61125Y200152D01*
G01X89154Y210566D02*
G01X89154Y209788D01*
G01X89204Y209631D01*
G01X89308Y209527D01*
G01X89466Y209476D01*
G01X89570Y209476D01*
G01X89725Y209527D01*
G01X89829Y209631D01*
G01X89880Y209788D01*
G01X89880Y210566D01*
G01X90276Y210306D02*
G01X90276Y210360D01*
G01X90327Y210464D01*
G01X90380Y210515D01*
G01X90484Y210566D01*
G01X90690Y210566D01*
G01X90794Y210515D01*
G01X90848Y210464D01*
G01X90898Y210360D01*
G01X90898Y210256D01*
G01X90848Y210151D01*
G01X90744Y209994D01*
G01X90223Y209476D01*
G01X90952Y209476D01*
G01X91295Y210360D02*
G01X91399Y210411D01*
G01X91554Y210566D01*
G01X91554Y209476D01*
G01X121297Y184289D02*
G01X122074Y184289D01*
G01X122232Y184340D01*
G01X122336Y184444D01*
G01X122387Y184602D01*
G01X122387Y184706D01*
G01X122336Y184861D01*
G01X122232Y184965D01*
G01X122074Y185016D01*
G01X121297Y185016D01*
G01X121556Y185412D02*
G01X121503Y185412D01*
G01X121399Y185463D01*
G01X121348Y185516D01*
G01X121297Y185620D01*
G01X121297Y185826D01*
G01X121348Y185930D01*
G01X121399Y185983D01*
G01X121503Y186034D01*
G01X121607Y186034D01*
G01X121711Y185983D01*
G01X121869Y185879D01*
G01X122387Y185359D01*
G01X122387Y186088D01*
G01X121556Y186481D02*
G01X121503Y186481D01*
G01X121399Y186535D01*
G01X121348Y186585D01*
G01X121297Y186690D01*
G01X121297Y186898D01*
G01X121348Y187002D01*
G01X121399Y187053D01*
G01X121503Y187106D01*
G01X121607Y187106D01*
G01X121711Y187053D01*
G01X121869Y186949D01*
G01X122387Y186430D01*
G01X122387Y187157D01*
G01X20320Y306578D02*
G01X20320Y305800D01*
G01X20370Y305643D01*
G01X20474Y305539D01*
G01X20632Y305488D01*
G01X20736Y305488D01*
G01X20891Y305539D01*
G01X20995Y305643D01*
G01X21046Y305800D01*
G01X21046Y306578D01*
G01X21442Y306318D02*
G01X21442Y306372D01*
G01X21493Y306476D01*
G01X21546Y306527D01*
G01X21650Y306578D01*
G01X21856Y306578D01*
G01X21960Y306527D01*
G01X22014Y306476D01*
G01X22064Y306372D01*
G01X22064Y306268D01*
G01X22014Y306163D01*
G01X21910Y306006D01*
G01X21389Y305488D01*
G01X22118Y305488D01*
G01X23083Y306423D02*
G01X23032Y306527D01*
G01X22875Y306578D01*
G01X22771Y306578D01*
G01X22616Y306527D01*
G01X22512Y306372D01*
G01X22461Y306110D01*
G01X22461Y305851D01*
G01X22512Y305643D01*
G01X22616Y305539D01*
G01X22771Y305488D01*
G01X22824Y305488D01*
G01X22979Y305539D01*
G01X23083Y305643D01*
G01X23136Y305800D01*
G01X23136Y305851D01*
G01X23083Y306006D01*
G01X22979Y306110D01*
G01X22824Y306163D01*
G01X22771Y306163D01*
G01X22616Y306110D01*
G01X22512Y306006D01*
G01X22461Y305851D01*
G01X77470Y326136D02*
G01X77470Y325358D01*
G01X77520Y325201D01*
G01X77624Y325097D01*
G01X77782Y325046D01*
G01X77886Y325046D01*
G01X78041Y325097D01*
G01X78145Y325201D01*
G01X78196Y325358D01*
G01X78196Y326136D01*
G01X78592Y325876D02*
G01X78592Y325930D01*
G01X78643Y326034D01*
G01X78696Y326085D01*
G01X78800Y326136D01*
G01X79006Y326136D01*
G01X79110Y326085D01*
G01X79164Y326034D01*
G01X79214Y325930D01*
G01X79214Y325826D01*
G01X79164Y325721D01*
G01X79060Y325564D01*
G01X78539Y325046D01*
G01X79268Y325046D01*
G01X80337Y326136D02*
G01X79819Y325046D01*
G01X79611Y326136D02*
G01X80337Y326136D01*
G01X98552Y328422D02*
G01X98552Y327644D01*
G01X98602Y327487D01*
G01X98706Y327383D01*
G01X98864Y327332D01*
G01X98968Y327332D01*
G01X99123Y327383D01*
G01X99227Y327487D01*
G01X99278Y327644D01*
G01X99278Y328422D01*
G01X99674Y328162D02*
G01X99674Y328216D01*
G01X99725Y328320D01*
G01X99778Y328371D01*
G01X99882Y328422D01*
G01X100088Y328422D01*
G01X100192Y328371D01*
G01X100246Y328320D01*
G01X100296Y328216D01*
G01X100296Y328112D01*
G01X100246Y328007D01*
G01X100142Y327850D01*
G01X99621Y327332D01*
G01X100350Y327332D01*
G01X100952Y328422D02*
G01X100797Y328371D01*
G01X100744Y328267D01*
G01X100744Y328162D01*
G01X100797Y328058D01*
G01X100901Y328007D01*
G01X101107Y327954D01*
G01X101264Y327903D01*
G01X101368Y327799D01*
G01X101419Y327695D01*
G01X101419Y327540D01*
G01X101368Y327436D01*
G01X101315Y327383D01*
G01X101160Y327332D01*
G01X100952Y327332D01*
G01X100797Y327383D01*
G01X100744Y327436D01*
G01X100693Y327540D01*
G01X100693Y327695D01*
G01X100744Y327799D01*
G01X100848Y327903D01*
G01X101003Y327954D01*
G01X101211Y328007D01*
G01X101315Y328058D01*
G01X101368Y328162D01*
G01X101368Y328267D01*
G01X101315Y328371D01*
G01X101160Y328422D01*
G01X100952Y328422D01*
G01X52070Y35306D02*
G01X52070Y34216D01*
G01X52070Y35306D02*
G01X52537Y35306D01*
G01X52692Y35255D01*
G01X52745Y35204D01*
G01X52796Y35100D01*
G01X52796Y34942D01*
G01X52745Y34838D01*
G01X52692Y34787D01*
G01X52537Y34734D01*
G01X52070Y34734D01*
G01X53451Y35306D02*
G01X53347Y35255D01*
G01X53243Y35151D01*
G01X53192Y35046D01*
G01X53139Y34891D01*
G01X53139Y34632D01*
G01X53192Y34475D01*
G01X53243Y34371D01*
G01X53347Y34267D01*
G01X53451Y34216D01*
G01X53660Y34216D01*
G01X53764Y34267D01*
G01X53868Y34371D01*
G01X53919Y34475D01*
G01X53972Y34632D01*
G01X53972Y34891D01*
G01X53919Y35046D01*
G01X53868Y35151D01*
G01X53764Y35255D01*
G01X53660Y35306D01*
G01X53451Y35306D01*
G01X8242Y125821D02*
G01X8242Y124731D01*
G01X8242Y124731D02*
G01X8864Y124731D01*
G01X9207Y125821D02*
G01X9207Y124731D01*
G01X9207Y125821D02*
G01X9624Y124731D01*
G01X10040Y125821D02*
G01X9624Y124731D01*
G01X10040Y125821D02*
G01X10040Y124731D01*
G01X11005Y125666D02*
G01X10955Y125770D01*
G01X10797Y125821D01*
G01X10693Y125821D01*
G01X10538Y125770D01*
G01X10434Y125615D01*
G01X10383Y125354D01*
G01X10383Y125094D01*
G01X10434Y124886D01*
G01X10538Y124782D01*
G01X10693Y124731D01*
G01X10746Y124731D01*
G01X10901Y124782D01*
G01X11005Y124886D01*
G01X11059Y125044D01*
G01X11059Y125094D01*
G01X11005Y125249D01*
G01X10901Y125354D01*
G01X10746Y125407D01*
G01X10693Y125407D01*
G01X10538Y125354D01*
G01X10434Y125249D01*
G01X10383Y125094D01*
G01X47861Y128524D02*
G01X47861Y127434D01*
G01X47498Y128524D02*
G01X48224Y128524D01*
G01X48567Y128524D02*
G01X49296Y127434D01*
G01X49296Y128524D02*
G01X48567Y127434D01*
G01X49949Y128524D02*
G01X49794Y128473D01*
G01X49690Y128318D01*
G01X49639Y128056D01*
G01X49639Y127901D01*
G01X49690Y127642D01*
G01X49794Y127485D01*
G01X49949Y127434D01*
G01X50053Y127434D01*
G01X50210Y127485D01*
G01X50314Y127642D01*
G01X50365Y127901D01*
G01X50365Y128056D01*
G01X50314Y128318D01*
G01X50210Y128473D01*
G01X50053Y128524D01*
G01X49949Y128524D01*
G01X50708Y127901D02*
G01X51643Y127901D01*
G01X52715Y128524D02*
G01X52194Y127434D01*
G01X51986Y128524D02*
G01X52715Y128524D01*
G54D16*
G01X51970Y125475D02*
G01X51970Y124658D01*
G01X51562Y125067D02*
G01X52379Y125067D01*
G01X47924Y107467D02*
G01X47881Y107558D01*
G01X47790Y107650D01*
G01X47698Y107696D01*
G01X47515Y107696D01*
G01X47426Y107650D01*
G01X47335Y107558D01*
G01X47289Y107467D01*
G01X47244Y107332D01*
G01X47244Y107104D01*
G01X47289Y106967D01*
G01X47335Y106878D01*
G01X47426Y106786D01*
G01X47515Y106740D01*
G01X47698Y106740D01*
G01X47790Y106786D01*
G01X47881Y106878D01*
G01X47924Y106967D01*
G01X47924Y107104D01*
G01X47698Y107104D02*
G01X47924Y107104D01*
G01X48226Y107696D02*
G01X48226Y106740D01*
G01X48226Y107696D02*
G01X48861Y106740D01*
G01X48861Y107696D02*
G01X48861Y106740D01*
G01X49161Y107696D02*
G01X49161Y106740D01*
G01X49161Y107696D02*
G01X49479Y107696D01*
G01X49616Y107650D01*
G01X49707Y107558D01*
G01X49753Y107467D01*
G01X49799Y107332D01*
G01X49799Y107104D01*
G01X49753Y106967D01*
G01X49707Y106878D01*
G01X49616Y106786D01*
G01X49479Y106740D01*
G01X49161Y106740D01*
G54D25*
G01X85090Y128524D02*
G01X85090Y127434D01*
G01X85090Y128524D02*
G01X85557Y128524D01*
G01X85712Y128473D01*
G01X85765Y128422D01*
G01X85816Y128318D01*
G01X85816Y128214D01*
G01X85765Y128109D01*
G01X85712Y128056D01*
G01X85557Y128005D01*
G01X85090Y128005D01*
G01X85453Y128005D02*
G01X85816Y127434D01*
G01X86888Y128369D02*
G01X86784Y128473D01*
G01X86626Y128524D01*
G01X86420Y128524D01*
G01X86263Y128473D01*
G01X86159Y128369D01*
G01X86159Y128264D01*
G01X86212Y128160D01*
G01X86263Y128109D01*
G01X86367Y128056D01*
G01X86680Y127952D01*
G01X86784Y127901D01*
G01X86834Y127850D01*
G01X86888Y127746D01*
G01X86888Y127589D01*
G01X86784Y127485D01*
G01X86626Y127434D01*
G01X86420Y127434D01*
G01X86263Y127485D01*
G01X86159Y127589D01*
G01X87594Y128524D02*
G01X87594Y127434D01*
G01X87231Y128524D02*
G01X87957Y128524D01*
G01X88612Y128524D02*
G01X88455Y128473D01*
G01X88353Y128318D01*
G01X88300Y128056D01*
G01X88300Y127901D01*
G01X88353Y127642D01*
G01X88455Y127485D01*
G01X88612Y127434D01*
G01X88717Y127434D01*
G01X88872Y127485D01*
G01X88976Y127642D01*
G01X89027Y127901D01*
G01X89027Y128056D01*
G01X88976Y128318D01*
G01X88872Y128473D01*
G01X88717Y128524D01*
G01X88612Y128524D01*
G01X89369Y127901D02*
G01X90307Y127901D01*
G01X91376Y128524D02*
G01X90855Y127434D01*
G01X90650Y128524D02*
G01X91376Y128524D01*
G54D16*
G01X90324Y125475D02*
G01X90324Y124658D01*
G01X89916Y125067D02*
G01X90733Y125067D01*
G01X86278Y107467D02*
G01X86235Y107558D01*
G01X86144Y107650D01*
G01X86052Y107696D01*
G01X85869Y107696D01*
G01X85780Y107650D01*
G01X85689Y107558D01*
G01X85643Y107467D01*
G01X85598Y107332D01*
G01X85598Y107104D01*
G01X85643Y106967D01*
G01X85689Y106878D01*
G01X85780Y106786D01*
G01X85869Y106740D01*
G01X86052Y106740D01*
G01X86144Y106786D01*
G01X86235Y106878D01*
G01X86278Y106967D01*
G01X86278Y107104D01*
G01X86052Y107104D02*
G01X86278Y107104D01*
G01X86580Y107696D02*
G01X86580Y106740D01*
G01X86580Y107696D02*
G01X87215Y106740D01*
G01X87215Y107696D02*
G01X87215Y106740D01*
G01X87515Y107696D02*
G01X87515Y106740D01*
G01X87515Y107696D02*
G01X87833Y107696D01*
G01X87970Y107650D01*
G01X88061Y107558D01*
G01X88107Y107467D01*
G01X88153Y107332D01*
G01X88153Y107104D01*
G01X88107Y106967D01*
G01X88061Y106878D01*
G01X87970Y106786D01*
G01X87833Y106740D01*
G01X87515Y106740D01*
G54D25*
G01X24638Y294386D02*
G01X24638Y293608D01*
G01X24688Y293451D01*
G01X24792Y293347D01*
G01X24950Y293296D01*
G01X25054Y293296D01*
G01X25209Y293347D01*
G01X25313Y293451D01*
G01X25364Y293608D01*
G01X25364Y294386D01*
G01X25707Y294180D02*
G01X25811Y294231D01*
G01X25968Y294386D01*
G01X25968Y293296D01*
G01X26934Y294231D02*
G01X26883Y294335D01*
G01X26725Y294386D01*
G01X26621Y294386D01*
G01X26466Y294335D01*
G01X26362Y294180D01*
G01X26311Y293918D01*
G01X26311Y293659D01*
G01X26362Y293451D01*
G01X26466Y293347D01*
G01X26621Y293296D01*
G01X26675Y293296D01*
G01X26830Y293347D01*
G01X26934Y293451D01*
G01X26987Y293608D01*
G01X26987Y293659D01*
G01X26934Y293814D01*
G01X26830Y293918D01*
G01X26675Y293972D01*
G01X26621Y293972D01*
G01X26466Y293918D01*
G01X26362Y293814D01*
G01X26311Y293659D01*
G54D16*
G01X24216Y275081D02*
G01X24216Y275925D01*
G01X24638Y275503D02*
G01X23794Y275503D01*
G01X27744Y290756D02*
G01X27790Y290662D01*
G01X27884Y290568D01*
G01X27978Y290520D01*
G01X28166Y290520D01*
G01X28260Y290568D01*
G01X28354Y290662D01*
G01X28402Y290756D01*
G01X28448Y290896D01*
G01X28448Y291129D01*
G01X28402Y291271D01*
G01X28354Y291365D01*
G01X28260Y291459D01*
G01X28166Y291505D01*
G01X27978Y291505D01*
G01X27884Y291459D01*
G01X27790Y291365D01*
G01X27744Y291271D01*
G01X27744Y291129D01*
G01X27978Y291129D02*
G01X27744Y291129D01*
G01X27434Y290520D02*
G01X27434Y291505D01*
G01X27434Y290520D02*
G01X26779Y291505D01*
G01X26779Y290520D02*
G01X26779Y291505D01*
G01X26469Y290520D02*
G01X26469Y291505D01*
G01X26469Y290520D02*
G01X26139Y290520D01*
G01X25999Y290568D01*
G01X25905Y290662D01*
G01X25859Y290756D01*
G01X25811Y290896D01*
G01X25811Y291129D01*
G01X25859Y291271D01*
G01X25905Y291365D01*
G01X25999Y291459D01*
G01X26139Y291505D01*
G01X26469Y291505D01*
G54D25*
G01X85090Y296671D02*
G01X85090Y295582D01*
G01X85090Y296671D02*
G01X85557Y296671D01*
G01X85712Y296621D01*
G01X85765Y296570D01*
G01X85816Y296466D01*
G01X85816Y296362D01*
G01X85765Y296257D01*
G01X85712Y296204D01*
G01X85557Y296153D01*
G01X85090Y296153D01*
G01X85453Y296153D02*
G01X85816Y295582D01*
G01X86888Y296517D02*
G01X86784Y296621D01*
G01X86626Y296671D01*
G01X86420Y296671D01*
G01X86263Y296621D01*
G01X86159Y296517D01*
G01X86159Y296412D01*
G01X86212Y296308D01*
G01X86263Y296257D01*
G01X86367Y296204D01*
G01X86680Y296100D01*
G01X86784Y296049D01*
G01X86834Y295998D01*
G01X86888Y295894D01*
G01X86888Y295737D01*
G01X86784Y295633D01*
G01X86626Y295582D01*
G01X86420Y295582D01*
G01X86263Y295633D01*
G01X86159Y295737D01*
G01X87594Y296671D02*
G01X87594Y295582D01*
G01X87231Y296671D02*
G01X87957Y296671D01*
G01X88559Y296671D02*
G01X88404Y296621D01*
G01X88353Y296517D01*
G01X88353Y296412D01*
G01X88404Y296308D01*
G01X88508Y296257D01*
G01X88717Y296204D01*
G01X88872Y296153D01*
G01X88976Y296049D01*
G01X89027Y295945D01*
G01X89027Y295790D01*
G01X88976Y295686D01*
G01X88925Y295633D01*
G01X88767Y295582D01*
G01X88559Y295582D01*
G01X88404Y295633D01*
G01X88353Y295686D01*
G01X88300Y295790D01*
G01X88300Y295945D01*
G01X88353Y296049D01*
G01X88455Y296153D01*
G01X88612Y296204D01*
G01X88821Y296257D01*
G01X88925Y296308D01*
G01X88976Y296412D01*
G01X88976Y296517D01*
G01X88925Y296621D01*
G01X88767Y296671D01*
G01X88559Y296671D01*
G01X89369Y296049D02*
G01X90307Y296049D01*
G01X90650Y296466D02*
G01X90754Y296517D01*
G01X90909Y296671D01*
G01X90909Y295582D01*
G01X91770Y296671D02*
G01X91252Y295945D01*
G01X92031Y295945D01*
G01X91770Y296671D02*
G01X91770Y295582D01*
G54D16*
G01X90324Y293623D02*
G01X90324Y292806D01*
G01X89916Y293215D02*
G01X90733Y293215D01*
G01X86278Y275615D02*
G01X86235Y275706D01*
G01X86144Y275798D01*
G01X86052Y275844D01*
G01X85869Y275844D01*
G01X85780Y275798D01*
G01X85689Y275706D01*
G01X85643Y275615D01*
G01X85598Y275480D01*
G01X85598Y275252D01*
G01X85643Y275115D01*
G01X85689Y275026D01*
G01X85780Y274934D01*
G01X85869Y274888D01*
G01X86052Y274888D01*
G01X86144Y274934D01*
G01X86235Y275026D01*
G01X86278Y275115D01*
G01X86278Y275252D01*
G01X86052Y275252D02*
G01X86278Y275252D01*
G01X86580Y275844D02*
G01X86580Y274888D01*
G01X86580Y275844D02*
G01X87215Y274888D01*
G01X87215Y275844D02*
G01X87215Y274888D01*
G01X87515Y275844D02*
G01X87515Y274888D01*
G01X87515Y275844D02*
G01X87833Y275844D01*
G01X87970Y275798D01*
G01X88061Y275706D01*
G01X88107Y275615D01*
G01X88153Y275480D01*
G01X88153Y275252D01*
G01X88107Y275115D01*
G01X88061Y275026D01*
G01X87970Y274934D01*
G01X87833Y274888D01*
G01X87515Y274888D01*
G54D25*
G01X44813Y296671D02*
G01X44813Y295582D01*
G01X44450Y296671D02*
G01X45176Y296671D01*
G01X45519Y296671D02*
G01X46248Y295582D01*
G01X46248Y296671D02*
G01X45519Y295582D01*
G01X46850Y296671D02*
G01X46695Y296621D01*
G01X46642Y296517D01*
G01X46642Y296412D01*
G01X46695Y296308D01*
G01X46799Y296257D01*
G01X47005Y296204D01*
G01X47162Y296153D01*
G01X47266Y296049D01*
G01X47317Y295945D01*
G01X47317Y295790D01*
G01X47266Y295686D01*
G01X47213Y295633D01*
G01X47058Y295582D01*
G01X46850Y295582D01*
G01X46695Y295633D01*
G01X46642Y295686D01*
G01X46591Y295790D01*
G01X46591Y295945D01*
G01X46642Y296049D01*
G01X46746Y296153D01*
G01X46901Y296204D01*
G01X47109Y296257D01*
G01X47213Y296308D01*
G01X47266Y296412D01*
G01X47266Y296517D01*
G01X47213Y296621D01*
G01X47058Y296671D01*
G01X46850Y296671D01*
G01X47660Y296049D02*
G01X48595Y296049D01*
G01X48938Y296466D02*
G01X49042Y296517D01*
G01X49199Y296671D01*
G01X49199Y295582D01*
G01X50060Y296671D02*
G01X49542Y295945D01*
G01X50319Y295945D01*
G01X50060Y296671D02*
G01X50060Y295582D01*
G54D16*
G01X49430Y293623D02*
G01X49430Y292806D01*
G01X49022Y293215D02*
G01X49839Y293215D01*
G01X45384Y275615D02*
G01X45341Y275706D01*
G01X45250Y275798D01*
G01X45158Y275844D01*
G01X44975Y275844D01*
G01X44886Y275798D01*
G01X44795Y275706D01*
G01X44749Y275615D01*
G01X44704Y275480D01*
G01X44704Y275252D01*
G01X44749Y275115D01*
G01X44795Y275026D01*
G01X44886Y274934D01*
G01X44975Y274888D01*
G01X45158Y274888D01*
G01X45250Y274934D01*
G01X45341Y275026D01*
G01X45384Y275115D01*
G01X45384Y275252D01*
G01X45158Y275252D02*
G01X45384Y275252D01*
G01X45686Y275844D02*
G01X45686Y274888D01*
G01X45686Y275844D02*
G01X46321Y274888D01*
G01X46321Y275844D02*
G01X46321Y274888D01*
G01X46621Y275844D02*
G01X46621Y274888D01*
G01X46621Y275844D02*
G01X46939Y275844D01*
G01X47076Y275798D01*
G01X47167Y275706D01*
G01X47213Y275615D01*
G01X47259Y275480D01*
G01X47259Y275252D01*
G01X47213Y275115D01*
G01X47167Y275026D01*
G01X47076Y274934D01*
G01X46939Y274888D01*
G01X46621Y274888D01*
G54D25*
G01X54627Y203106D02*
G01X54444Y202923D01*
G01X54355Y202651D01*
G01X54355Y202288D01*
G01X54444Y202016D01*
G01X54627Y201833D01*
G01X54808Y201833D01*
G01X54990Y201924D01*
G01X55082Y202016D01*
G01X55173Y202196D01*
G01X55354Y202742D01*
G01X55445Y202923D01*
G01X55537Y203014D01*
G01X55717Y203106D01*
G01X55991Y203106D01*
G01X56172Y202923D01*
G01X56263Y202651D01*
G01X56263Y202288D01*
G01X56172Y202016D01*
G01X55991Y201833D01*
G01X54355Y203888D02*
G01X54355Y204889D01*
G01X55082Y204343D01*
G01X55082Y204614D01*
G01X55173Y204797D01*
G01X55262Y204889D01*
G01X55537Y204978D01*
G01X55717Y204978D01*
G01X55991Y204889D01*
G01X56172Y204706D01*
G01X56263Y204434D01*
G01X56263Y204160D01*
G01X56172Y203888D01*
G01X56083Y203796D01*
G01X55900Y203705D01*
G01X90680Y199118D02*
G01X90497Y199301D01*
G01X90225Y199389D01*
G01X89862Y199389D01*
G01X89590Y199301D01*
G01X89408Y199118D01*
G01X89408Y198937D01*
G01X89499Y198754D01*
G01X89590Y198663D01*
G01X89771Y198572D01*
G01X90317Y198391D01*
G01X90497Y198300D01*
G01X90589Y198208D01*
G01X90680Y198028D01*
G01X90680Y197754D01*
G01X90497Y197573D01*
G01X90225Y197482D01*
G01X89862Y197482D01*
G01X89590Y197573D01*
G01X89408Y197754D01*
G01X92189Y199389D02*
G01X91279Y198117D01*
G01X92643Y198117D01*
G01X92189Y199389D02*
G01X92189Y197482D01*
G01X37338Y221160D02*
G01X38427Y221160D01*
G01X37338Y221160D02*
G01X37338Y221627D01*
G01X37388Y221782D01*
G01X37439Y221835D01*
G01X37543Y221886D01*
G01X37647Y221886D01*
G01X37752Y221835D01*
G01X37805Y221782D01*
G01X37856Y221627D01*
G01X37856Y221160D01*
G01X37856Y221523D02*
G01X38427Y221886D01*
G01X37338Y222750D02*
G01X38064Y222229D01*
G01X38064Y223009D01*
G01X37338Y222750D02*
G01X38427Y222750D01*
G01X37701Y224027D02*
G01X37856Y223977D01*
G01X37960Y223873D01*
G01X38011Y223715D01*
G01X38011Y223664D01*
G01X37960Y223509D01*
G01X37856Y223405D01*
G01X37701Y223352D01*
G01X37647Y223352D01*
G01X37492Y223405D01*
G01X37388Y223509D01*
G01X37338Y223664D01*
G01X37338Y223715D01*
G01X37388Y223873D01*
G01X37492Y223977D01*
G01X37701Y224027D01*
G01X37960Y224027D01*
G01X38219Y223977D01*
G01X38376Y223873D01*
G01X38427Y223715D01*
G01X38427Y223611D01*
G01X38376Y223456D01*
G01X38272Y223405D01*
G01X77101Y190131D02*
G01X78191Y190131D01*
G01X77101Y190131D02*
G01X77101Y190599D01*
G01X77152Y190754D01*
G01X77203Y190807D01*
G01X77307Y190858D01*
G01X77411Y190858D01*
G01X77515Y190807D01*
G01X77569Y190754D01*
G01X77619Y190599D01*
G01X77619Y190131D01*
G01X77619Y190494D02*
G01X78191Y190858D01*
G01X77101Y191825D02*
G01X77101Y191305D01*
G01X77569Y191254D01*
G01X77515Y191305D01*
G01X77464Y191462D01*
G01X77464Y191617D01*
G01X77515Y191772D01*
G01X77619Y191876D01*
G01X77774Y191930D01*
G01X77878Y191930D01*
G01X78036Y191876D01*
G01X78140Y191772D01*
G01X78191Y191617D01*
G01X78191Y191462D01*
G01X78140Y191305D01*
G01X78087Y191254D01*
G01X77983Y191201D01*
G01X77101Y192582D02*
G01X77152Y192427D01*
G01X77307Y192323D01*
G01X77569Y192272D01*
G01X77724Y192272D01*
G01X77983Y192323D01*
G01X78140Y192427D01*
G01X78191Y192582D01*
G01X78191Y192686D01*
G01X78140Y192844D01*
G01X77983Y192948D01*
G01X77724Y192999D01*
G01X77569Y192999D01*
G01X77307Y192948D01*
G01X77152Y192844D01*
G01X77101Y192686D01*
G01X77101Y192582D01*
G01X111391Y219849D02*
G01X112481Y219849D01*
G01X111391Y219849D02*
G01X111391Y220317D01*
G01X111442Y220472D01*
G01X111493Y220525D01*
G01X111597Y220576D01*
G01X111701Y220576D01*
G01X111805Y220525D01*
G01X111859Y220472D01*
G01X111909Y220317D01*
G01X111909Y219849D01*
G01X111909Y220212D02*
G01X112481Y220576D01*
G01X111391Y221543D02*
G01X111391Y221023D01*
G01X111859Y220972D01*
G01X111805Y221023D01*
G01X111754Y221180D01*
G01X111754Y221335D01*
G01X111805Y221490D01*
G01X111909Y221594D01*
G01X112064Y221648D01*
G01X112168Y221648D01*
G01X112326Y221594D01*
G01X112430Y221490D01*
G01X112481Y221335D01*
G01X112481Y221180D01*
G01X112430Y221023D01*
G01X112377Y220972D01*
G01X112273Y220919D01*
G01X111597Y221990D02*
G01X111546Y222095D01*
G01X111391Y222250D01*
G01X112481Y222250D01*
G01X34937Y305447D02*
G01X36027Y305447D01*
G01X34937Y305447D02*
G01X34937Y305915D01*
G01X34988Y306070D01*
G01X35039Y306123D01*
G01X35143Y306174D01*
G01X35247Y306174D01*
G01X35351Y306123D01*
G01X35405Y306070D01*
G01X35455Y305915D01*
G01X35455Y305447D01*
G01X35455Y305810D02*
G01X36027Y306174D01*
G01X34937Y307141D02*
G01X34937Y306621D01*
G01X35405Y306570D01*
G01X35351Y306621D01*
G01X35300Y306778D01*
G01X35300Y306933D01*
G01X35351Y307088D01*
G01X35455Y307192D01*
G01X35610Y307246D01*
G01X35714Y307246D01*
G01X35872Y307192D01*
G01X35976Y307088D01*
G01X36027Y306933D01*
G01X36027Y306778D01*
G01X35976Y306621D01*
G01X35923Y306570D01*
G01X35819Y306517D01*
G01X34937Y308211D02*
G01X34937Y307693D01*
G01X35405Y307639D01*
G01X35351Y307693D01*
G01X35300Y307848D01*
G01X35300Y308002D01*
G01X35351Y308160D01*
G01X35455Y308264D01*
G01X35610Y308315D01*
G01X35714Y308315D01*
G01X35872Y308264D01*
G01X35976Y308160D01*
G01X36027Y308002D01*
G01X36027Y307848D01*
G01X35976Y307693D01*
G01X35923Y307639D01*
G01X35819Y307588D01*
G01X53594Y325351D02*
G01X54683Y325351D01*
G01X53594Y325351D02*
G01X53594Y325818D01*
G01X53644Y325973D01*
G01X53695Y326026D01*
G01X53799Y326077D01*
G01X53903Y326077D01*
G01X54008Y326026D01*
G01X54061Y325973D01*
G01X54112Y325818D01*
G01X54112Y325351D01*
G01X54112Y325714D02*
G01X54683Y326077D01*
G01X53594Y327045D02*
G01X53594Y326524D01*
G01X54061Y326473D01*
G01X54008Y326524D01*
G01X53957Y326682D01*
G01X53957Y326837D01*
G01X54008Y326991D01*
G01X54112Y327096D01*
G01X54267Y327149D01*
G01X54371Y327149D01*
G01X54528Y327096D01*
G01X54632Y326991D01*
G01X54683Y326837D01*
G01X54683Y326682D01*
G01X54632Y326524D01*
G01X54579Y326473D01*
G01X54475Y326420D01*
G01X53748Y328114D02*
G01X53644Y328063D01*
G01X53594Y327906D01*
G01X53594Y327802D01*
G01X53644Y327647D01*
G01X53799Y327543D01*
G01X54061Y327492D01*
G01X54320Y327492D01*
G01X54528Y327543D01*
G01X54632Y327647D01*
G01X54683Y327802D01*
G01X54683Y327855D01*
G01X54632Y328010D01*
G01X54528Y328114D01*
G01X54371Y328167D01*
G01X54320Y328167D01*
G01X54165Y328114D01*
G01X54061Y328010D01*
G01X54008Y327855D01*
G01X54008Y327802D01*
G01X54061Y327647D01*
G01X54165Y327543D01*
G01X54320Y327492D01*
G01X93586Y310174D02*
G01X93586Y309085D01*
G01X93586Y310174D02*
G01X94053Y310174D01*
G01X94208Y310123D01*
G01X94261Y310073D01*
G01X94312Y309968D01*
G01X94312Y309864D01*
G01X94261Y309760D01*
G01X94208Y309707D01*
G01X94053Y309656D01*
G01X93586Y309656D01*
G01X93949Y309656D02*
G01X94312Y309085D01*
G01X95280Y310174D02*
G01X94759Y310174D01*
G01X94709Y309707D01*
G01X94759Y309760D01*
G01X94917Y309811D01*
G01X95072Y309811D01*
G01X95227Y309760D01*
G01X95331Y309656D01*
G01X95384Y309501D01*
G01X95384Y309397D01*
G01X95331Y309239D01*
G01X95227Y309135D01*
G01X95072Y309085D01*
G01X94917Y309085D01*
G01X94759Y309135D01*
G01X94709Y309189D01*
G01X94655Y309293D01*
G01X96454Y310174D02*
G01X95935Y309085D01*
G01X95727Y310174D02*
G01X96454Y310174D01*
G01X37223Y218325D02*
G01X38313Y218325D01*
G01X37223Y218325D02*
G01X37223Y218793D01*
G01X37274Y218948D01*
G01X37325Y219001D01*
G01X37429Y219052D01*
G01X37533Y219052D01*
G01X37637Y219001D01*
G01X37691Y218948D01*
G01X37741Y218793D01*
G01X37741Y218325D01*
G01X37741Y218688D02*
G01X38313Y219052D01*
G01X37378Y220019D02*
G01X37274Y219966D01*
G01X37223Y219811D01*
G01X37223Y219707D01*
G01X37274Y219552D01*
G01X37429Y219448D01*
G01X37691Y219395D01*
G01X37950Y219395D01*
G01X38158Y219448D01*
G01X38262Y219552D01*
G01X38313Y219707D01*
G01X38313Y219760D01*
G01X38262Y219915D01*
G01X38158Y220019D01*
G01X38000Y220070D01*
G01X37950Y220070D01*
G01X37795Y220019D01*
G01X37691Y219915D01*
G01X37637Y219760D01*
G01X37637Y219707D01*
G01X37691Y219552D01*
G01X37795Y219448D01*
G01X37950Y219395D01*
G01X37223Y220934D02*
G01X37950Y220413D01*
G01X37950Y221193D01*
G01X37223Y220934D02*
G01X38313Y220934D01*
G01X77101Y187083D02*
G01X78191Y187083D01*
G01X77101Y187083D02*
G01X77101Y187551D01*
G01X77152Y187706D01*
G01X77203Y187759D01*
G01X77307Y187810D01*
G01X77411Y187810D01*
G01X77515Y187759D01*
G01X77569Y187706D01*
G01X77619Y187551D01*
G01X77619Y187083D01*
G01X77619Y187446D02*
G01X78191Y187810D01*
G01X77256Y188777D02*
G01X77152Y188724D01*
G01X77101Y188569D01*
G01X77101Y188465D01*
G01X77152Y188310D01*
G01X77307Y188206D01*
G01X77569Y188153D01*
G01X77828Y188153D01*
G01X78036Y188206D01*
G01X78140Y188310D01*
G01X78191Y188465D01*
G01X78191Y188518D01*
G01X78140Y188673D01*
G01X78036Y188777D01*
G01X77878Y188828D01*
G01X77828Y188828D01*
G01X77673Y188777D01*
G01X77569Y188673D01*
G01X77515Y188518D01*
G01X77515Y188465D01*
G01X77569Y188310D01*
G01X77673Y188206D01*
G01X77828Y188153D01*
G01X77101Y189796D02*
G01X77101Y189275D01*
G01X77569Y189224D01*
G01X77515Y189275D01*
G01X77464Y189433D01*
G01X77464Y189588D01*
G01X77515Y189743D01*
G01X77619Y189847D01*
G01X77774Y189900D01*
G01X77878Y189900D01*
G01X78036Y189847D01*
G01X78140Y189743D01*
G01X78191Y189588D01*
G01X78191Y189433D01*
G01X78140Y189275D01*
G01X78087Y189224D01*
G01X77983Y189171D01*
G01X111391Y222897D02*
G01X112481Y222897D01*
G01X111391Y222897D02*
G01X111391Y223365D01*
G01X111442Y223520D01*
G01X111493Y223573D01*
G01X111597Y223624D01*
G01X111701Y223624D01*
G01X111805Y223573D01*
G01X111859Y223520D01*
G01X111909Y223365D01*
G01X111909Y222897D01*
G01X111909Y223260D02*
G01X112481Y223624D01*
G01X111546Y224591D02*
G01X111442Y224538D01*
G01X111391Y224383D01*
G01X111391Y224279D01*
G01X111442Y224124D01*
G01X111597Y224020D01*
G01X111859Y223967D01*
G01X112118Y223967D01*
G01X112326Y224020D01*
G01X112430Y224124D01*
G01X112481Y224279D01*
G01X112481Y224332D01*
G01X112430Y224487D01*
G01X112326Y224591D01*
G01X112168Y224642D01*
G01X112118Y224642D01*
G01X111963Y224591D01*
G01X111859Y224487D01*
G01X111805Y224332D01*
G01X111805Y224279D01*
G01X111859Y224124D01*
G01X111963Y224020D01*
G01X112118Y223967D01*
G01X111546Y225610D02*
G01X111442Y225557D01*
G01X111391Y225402D01*
G01X111391Y225298D01*
G01X111442Y225143D01*
G01X111597Y225038D01*
G01X111859Y224985D01*
G01X112118Y224985D01*
G01X112326Y225038D01*
G01X112430Y225143D01*
G01X112481Y225298D01*
G01X112481Y225348D01*
G01X112430Y225506D01*
G01X112326Y225610D01*
G01X112168Y225661D01*
G01X112118Y225661D01*
G01X111963Y225610D01*
G01X111859Y225506D01*
G01X111805Y225348D01*
G01X111805Y225298D01*
G01X111859Y225143D01*
G01X111963Y225038D01*
G01X112118Y224985D01*
G01X35052Y301424D02*
G01X36141Y301424D01*
G01X35052Y301424D02*
G01X35052Y301891D01*
G01X35102Y302046D01*
G01X35153Y302099D01*
G01X35257Y302150D01*
G01X35361Y302150D01*
G01X35466Y302099D01*
G01X35519Y302046D01*
G01X35570Y301891D01*
G01X35570Y301424D01*
G01X35570Y301787D02*
G01X36141Y302150D01*
G01X35052Y303222D02*
G01X36141Y302701D01*
G01X35052Y302493D02*
G01X35052Y303222D01*
G01X35052Y303875D02*
G01X35102Y303720D01*
G01X35257Y303616D01*
G01X35519Y303565D01*
G01X35674Y303565D01*
G01X35933Y303616D01*
G01X36090Y303720D01*
G01X36141Y303875D01*
G01X36141Y303979D01*
G01X36090Y304137D01*
G01X35933Y304241D01*
G01X35674Y304292D01*
G01X35519Y304292D01*
G01X35257Y304241D01*
G01X35102Y304137D01*
G01X35052Y303979D01*
G01X35052Y303875D01*
G01X82943Y313436D02*
G01X84033Y313436D01*
G01X82943Y313436D02*
G01X82943Y313903D01*
G01X82994Y314058D01*
G01X83045Y314111D01*
G01X83149Y314162D01*
G01X83253Y314162D01*
G01X83357Y314111D01*
G01X83411Y314058D01*
G01X83461Y313903D01*
G01X83461Y313436D01*
G01X83461Y313799D02*
G01X84033Y314162D01*
G01X82943Y315234D02*
G01X84033Y314713D01*
G01X82943Y314505D02*
G01X82943Y315234D01*
G01X83149Y315577D02*
G01X83098Y315681D01*
G01X82943Y315836D01*
G01X84033Y315836D01*
G01X90170Y310388D02*
G01X90170Y309298D01*
G01X90170Y310388D02*
G01X90637Y310388D01*
G01X90792Y310337D01*
G01X90845Y310286D01*
G01X90896Y310182D01*
G01X90896Y310078D01*
G01X90845Y309974D01*
G01X90792Y309920D01*
G01X90637Y309869D01*
G01X90170Y309869D01*
G01X90533Y309869D02*
G01X90896Y309298D01*
G01X91968Y310388D02*
G01X91447Y309298D01*
G01X91239Y310388D02*
G01X91968Y310388D01*
G01X92362Y310128D02*
G01X92362Y310182D01*
G01X92415Y310286D01*
G01X92466Y310337D01*
G01X92570Y310388D01*
G01X92778Y310388D01*
G01X92882Y310337D01*
G01X92933Y310286D01*
G01X92986Y310182D01*
G01X92986Y310078D01*
G01X92933Y309974D01*
G01X92829Y309816D01*
G01X92311Y309298D01*
G01X93037Y309298D01*
G01X100583Y192278D02*
G01X100583Y191188D01*
G01X100583Y192278D02*
G01X101051Y192278D01*
G01X101206Y192227D01*
G01X101259Y192176D01*
G01X101310Y192072D01*
G01X101310Y191968D01*
G01X101259Y191863D01*
G01X101206Y191810D01*
G01X101051Y191759D01*
G01X100583Y191759D01*
G01X100947Y191759D02*
G01X101310Y191188D01*
G01X102382Y192278D02*
G01X101861Y191188D01*
G01X101653Y192278D02*
G01X102382Y192278D01*
G01X103400Y191914D02*
G01X103347Y191759D01*
G01X103243Y191655D01*
G01X103088Y191604D01*
G01X103035Y191604D01*
G01X102880Y191655D01*
G01X102775Y191759D01*
G01X102725Y191914D01*
G01X102725Y191968D01*
G01X102775Y192123D01*
G01X102880Y192227D01*
G01X103035Y192278D01*
G01X103088Y192278D01*
G01X103243Y192227D01*
G01X103347Y192123D01*
G01X103400Y191914D01*
G01X103400Y191655D01*
G01X103347Y191396D01*
G01X103243Y191239D01*
G01X103088Y191188D01*
G01X102984Y191188D01*
G01X102829Y191239D01*
G01X102775Y191343D01*
G01X77101Y183781D02*
G01X78191Y183781D01*
G01X77101Y183781D02*
G01X77101Y184249D01*
G01X77152Y184404D01*
G01X77203Y184457D01*
G01X77307Y184508D01*
G01X77411Y184508D01*
G01X77515Y184457D01*
G01X77569Y184404D01*
G01X77619Y184249D01*
G01X77619Y183781D01*
G01X77619Y184144D02*
G01X78191Y184508D01*
G01X77101Y185112D02*
G01X77152Y184955D01*
G01X77256Y184904D01*
G01X77360Y184904D01*
G01X77464Y184955D01*
G01X77515Y185059D01*
G01X77569Y185267D01*
G01X77619Y185422D01*
G01X77724Y185526D01*
G01X77828Y185580D01*
G01X77983Y185580D01*
G01X78087Y185526D01*
G01X78140Y185475D01*
G01X78191Y185318D01*
G01X78191Y185112D01*
G01X78140Y184955D01*
G01X78087Y184904D01*
G01X77983Y184851D01*
G01X77828Y184851D01*
G01X77724Y184904D01*
G01X77619Y185008D01*
G01X77569Y185163D01*
G01X77515Y185371D01*
G01X77464Y185475D01*
G01X77360Y185526D01*
G01X77256Y185526D01*
G01X77152Y185475D01*
G01X77101Y185318D01*
G01X77101Y185112D01*
G01X77101Y186232D02*
G01X77152Y186077D01*
G01X77307Y185973D01*
G01X77569Y185922D01*
G01X77724Y185922D01*
G01X77983Y185973D01*
G01X78140Y186077D01*
G01X78191Y186232D01*
G01X78191Y186336D01*
G01X78140Y186494D01*
G01X77983Y186598D01*
G01X77724Y186649D01*
G01X77569Y186649D01*
G01X77307Y186598D01*
G01X77152Y186494D01*
G01X77101Y186336D01*
G01X77101Y186232D01*
G01X37223Y215785D02*
G01X38313Y215785D01*
G01X37223Y215785D02*
G01X37223Y216253D01*
G01X37274Y216408D01*
G01X37325Y216461D01*
G01X37429Y216512D01*
G01X37533Y216512D01*
G01X37637Y216461D01*
G01X37691Y216408D01*
G01X37741Y216253D01*
G01X37741Y215785D01*
G01X37741Y216148D02*
G01X38313Y216512D01*
G01X37223Y217116D02*
G01X37274Y216959D01*
G01X37378Y216908D01*
G01X37482Y216908D01*
G01X37586Y216959D01*
G01X37637Y217063D01*
G01X37691Y217271D01*
G01X37741Y217426D01*
G01X37846Y217530D01*
G01X37950Y217584D01*
G01X38105Y217584D01*
G01X38209Y217530D01*
G01X38262Y217479D01*
G01X38313Y217322D01*
G01X38313Y217116D01*
G01X38262Y216959D01*
G01X38209Y216908D01*
G01X38105Y216855D01*
G01X37950Y216855D01*
G01X37846Y216908D01*
G01X37741Y217012D01*
G01X37691Y217167D01*
G01X37637Y217375D01*
G01X37586Y217479D01*
G01X37482Y217530D01*
G01X37378Y217530D01*
G01X37274Y217479D01*
G01X37223Y217322D01*
G01X37223Y217116D01*
G01X37429Y217926D02*
G01X37378Y218031D01*
G01X37223Y218186D01*
G01X38313Y218186D01*
G01X97536Y307340D02*
G01X97536Y306250D01*
G01X97536Y307340D02*
G01X98003Y307340D01*
G01X98158Y307289D01*
G01X98211Y307238D01*
G01X98262Y307134D01*
G01X98262Y307030D01*
G01X98211Y306925D01*
G01X98158Y306872D01*
G01X98003Y306821D01*
G01X97536Y306821D01*
G01X97899Y306821D02*
G01X98262Y306250D01*
G01X98866Y307340D02*
G01X98709Y307289D01*
G01X98658Y307185D01*
G01X98658Y307080D01*
G01X98709Y306976D01*
G01X98813Y306925D01*
G01X99021Y306872D01*
G01X99176Y306821D01*
G01X99280Y306717D01*
G01X99334Y306613D01*
G01X99334Y306458D01*
G01X99280Y306354D01*
G01X99230Y306301D01*
G01X99072Y306250D01*
G01X98866Y306250D01*
G01X98709Y306301D01*
G01X98658Y306354D01*
G01X98605Y306458D01*
G01X98605Y306613D01*
G01X98658Y306717D01*
G01X98762Y306821D01*
G01X98917Y306872D01*
G01X99126Y306925D01*
G01X99230Y306976D01*
G01X99280Y307080D01*
G01X99280Y307185D01*
G01X99230Y307289D01*
G01X99072Y307340D01*
G01X98866Y307340D01*
G01X100299Y307340D02*
G01X99781Y307340D01*
G01X99728Y306872D01*
G01X99781Y306925D01*
G01X99936Y306976D01*
G01X100091Y306976D01*
G01X100248Y306925D01*
G01X100352Y306821D01*
G01X100403Y306666D01*
G01X100403Y306562D01*
G01X100352Y306405D01*
G01X100248Y306301D01*
G01X100091Y306250D01*
G01X99936Y306250D01*
G01X99781Y306301D01*
G01X99728Y306354D01*
G01X99677Y306458D01*
G01X48514Y322049D02*
G01X49603Y322049D01*
G01X48514Y322049D02*
G01X48514Y322516D01*
G01X48564Y322671D01*
G01X48615Y322724D01*
G01X48719Y322775D01*
G01X48823Y322775D01*
G01X48928Y322724D01*
G01X48981Y322671D01*
G01X49032Y322516D01*
G01X49032Y322049D01*
G01X49032Y322412D02*
G01X49603Y322775D01*
G01X48514Y323380D02*
G01X48564Y323222D01*
G01X48668Y323171D01*
G01X48773Y323171D01*
G01X48877Y323222D01*
G01X48928Y323326D01*
G01X48981Y323535D01*
G01X49032Y323689D01*
G01X49136Y323794D01*
G01X49240Y323847D01*
G01X49395Y323847D01*
G01X49499Y323794D01*
G01X49552Y323743D01*
G01X49603Y323585D01*
G01X49603Y323380D01*
G01X49552Y323222D01*
G01X49499Y323171D01*
G01X49395Y323118D01*
G01X49240Y323118D01*
G01X49136Y323171D01*
G01X49032Y323275D01*
G01X48981Y323430D01*
G01X48928Y323639D01*
G01X48877Y323743D01*
G01X48773Y323794D01*
G01X48668Y323794D01*
G01X48564Y323743D01*
G01X48514Y323585D01*
G01X48514Y323380D01*
G01X48668Y324812D02*
G01X48564Y324761D01*
G01X48514Y324604D01*
G01X48514Y324500D01*
G01X48564Y324345D01*
G01X48719Y324241D01*
G01X48981Y324190D01*
G01X49240Y324190D01*
G01X49448Y324241D01*
G01X49552Y324345D01*
G01X49603Y324500D01*
G01X49603Y324553D01*
G01X49552Y324708D01*
G01X49448Y324812D01*
G01X49291Y324865D01*
G01X49240Y324865D01*
G01X49085Y324812D01*
G01X48981Y324708D01*
G01X48928Y324553D01*
G01X48928Y324500D01*
G01X48981Y324345D01*
G01X49085Y324241D01*
G01X49240Y324190D01*
G01X9906Y315140D02*
G01X10995Y315140D01*
G01X9906Y315140D02*
G01X9906Y315607D01*
G01X9956Y315762D01*
G01X10007Y315815D01*
G01X10111Y315866D01*
G01X10215Y315866D01*
G01X10320Y315815D01*
G01X10373Y315762D01*
G01X10424Y315607D01*
G01X10424Y315140D01*
G01X10424Y315503D02*
G01X10995Y315866D01*
G01X9906Y316471D02*
G01X9956Y316313D01*
G01X10060Y316263D01*
G01X10165Y316263D01*
G01X10269Y316313D01*
G01X10320Y316417D01*
G01X10373Y316626D01*
G01X10424Y316781D01*
G01X10528Y316885D01*
G01X10632Y316938D01*
G01X10787Y316938D01*
G01X10891Y316885D01*
G01X10944Y316834D01*
G01X10995Y316677D01*
G01X10995Y316471D01*
G01X10944Y316313D01*
G01X10891Y316263D01*
G01X10787Y316209D01*
G01X10632Y316209D01*
G01X10528Y316263D01*
G01X10424Y316367D01*
G01X10373Y316522D01*
G01X10320Y316730D01*
G01X10269Y316834D01*
G01X10165Y316885D01*
G01X10060Y316885D01*
G01X9956Y316834D01*
G01X9906Y316677D01*
G01X9906Y316471D01*
G01X9906Y318008D02*
G01X10995Y317489D01*
G01X9906Y317281D02*
G01X9906Y318008D01*
G01X50546Y215392D02*
G01X50546Y214302D01*
G01X50546Y215392D02*
G01X51013Y215392D01*
G01X51168Y215341D01*
G01X51221Y215290D01*
G01X51272Y215186D01*
G01X51272Y215082D01*
G01X51221Y214977D01*
G01X51168Y214924D01*
G01X51013Y214873D01*
G01X50546Y214873D01*
G01X50909Y214873D02*
G01X51272Y214302D01*
G01X52136Y215392D02*
G01X51615Y214665D01*
G01X52395Y214665D01*
G01X52136Y215392D02*
G01X52136Y214302D01*
G01X67564Y205465D02*
G01X68653Y205465D01*
G01X67564Y205465D02*
G01X67564Y205933D01*
G01X67614Y206087D01*
G01X67665Y206141D01*
G01X67769Y206192D01*
G01X67873Y206192D01*
G01X67978Y206141D01*
G01X68031Y206087D01*
G01X68082Y205933D01*
G01X68082Y205465D01*
G01X68082Y205828D02*
G01X68653Y206192D01*
G01X67564Y207159D02*
G01X67564Y206639D01*
G01X68031Y206588D01*
G01X67978Y206639D01*
G01X67927Y206796D01*
G01X67927Y206951D01*
G01X67978Y207106D01*
G01X68082Y207210D01*
G01X68237Y207263D01*
G01X68341Y207263D01*
G01X68498Y207210D01*
G01X68602Y207106D01*
G01X68653Y206951D01*
G01X68653Y206796D01*
G01X68602Y206639D01*
G01X68549Y206588D01*
G01X68445Y206534D01*
G01X114693Y173875D02*
G01X115783Y173875D01*
G01X114693Y173875D02*
G01X114693Y174343D01*
G01X114744Y174498D01*
G01X114795Y174551D01*
G01X114899Y174602D01*
G01X115003Y174602D01*
G01X115107Y174551D01*
G01X115161Y174498D01*
G01X115211Y174343D01*
G01X115211Y173875D01*
G01X115211Y174238D02*
G01X115783Y174602D01*
G01X114848Y175569D02*
G01X114744Y175516D01*
G01X114693Y175361D01*
G01X114693Y175257D01*
G01X114744Y175102D01*
G01X114899Y174998D01*
G01X115161Y174945D01*
G01X115420Y174945D01*
G01X115628Y174998D01*
G01X115732Y175102D01*
G01X115783Y175257D01*
G01X115783Y175310D01*
G01X115732Y175465D01*
G01X115628Y175569D01*
G01X115470Y175620D01*
G01X115420Y175620D01*
G01X115265Y175569D01*
G01X115161Y175465D01*
G01X115107Y175310D01*
G01X115107Y175257D01*
G01X115161Y175102D01*
G01X115265Y174998D01*
G01X115420Y174945D01*
G01X23114Y315607D02*
G01X24203Y315607D01*
G01X23114Y315607D02*
G01X23114Y316075D01*
G01X23164Y316230D01*
G01X23215Y316283D01*
G01X23319Y316334D01*
G01X23423Y316334D01*
G01X23528Y316283D01*
G01X23581Y316230D01*
G01X23632Y316075D01*
G01X23632Y315607D01*
G01X23632Y315970D02*
G01X24203Y316334D01*
G01X23319Y316677D02*
G01X23268Y316781D01*
G01X23114Y316938D01*
G01X24203Y316938D01*
G01X23114Y317591D02*
G01X23164Y317436D01*
G01X23319Y317332D01*
G01X23581Y317281D01*
G01X23736Y317281D01*
G01X23995Y317332D01*
G01X24152Y317436D01*
G01X24203Y317591D01*
G01X24203Y317695D01*
G01X24152Y317853D01*
G01X23995Y317957D01*
G01X23736Y318008D01*
G01X23581Y318008D01*
G01X23319Y317957D01*
G01X23164Y317853D01*
G01X23114Y317695D01*
G01X23114Y317591D01*
G01X49530Y336649D02*
G01X50619Y336649D01*
G01X49530Y336649D02*
G01X49530Y337116D01*
G01X49580Y337271D01*
G01X49631Y337324D01*
G01X49735Y337375D01*
G01X49839Y337375D01*
G01X49944Y337324D01*
G01X49997Y337271D01*
G01X50048Y337116D01*
G01X50048Y336649D01*
G01X50048Y337012D02*
G01X50619Y337375D01*
G01X49735Y337718D02*
G01X49684Y337822D01*
G01X49530Y337979D01*
G01X50619Y337979D01*
G01X49735Y338322D02*
G01X49684Y338427D01*
G01X49530Y338581D01*
G01X50619Y338581D01*
G01X116217Y330847D02*
G01X117307Y330847D01*
G01X116217Y330847D02*
G01X116217Y331315D01*
G01X116268Y331470D01*
G01X116319Y331523D01*
G01X116423Y331574D01*
G01X116527Y331574D01*
G01X116631Y331523D01*
G01X116685Y331470D01*
G01X116735Y331315D01*
G01X116735Y330847D01*
G01X116735Y331210D02*
G01X117307Y331574D01*
G01X116423Y331917D02*
G01X116372Y332021D01*
G01X116217Y332178D01*
G01X117307Y332178D01*
G01X116476Y332572D02*
G01X116423Y332572D01*
G01X116319Y332625D01*
G01X116268Y332676D01*
G01X116217Y332780D01*
G01X116217Y332988D01*
G01X116268Y333093D01*
G01X116319Y333143D01*
G01X116423Y333197D01*
G01X116527Y333197D01*
G01X116631Y333143D01*
G01X116789Y333039D01*
G01X117307Y332521D01*
G01X117307Y333248D01*
G01X83075Y221228D02*
G01X83022Y221333D01*
G01X82918Y221437D01*
G01X82816Y221488D01*
G01X82608Y221488D01*
G01X82504Y221437D01*
G01X82400Y221333D01*
G01X82346Y221228D01*
G01X82296Y221073D01*
G01X82296Y220814D01*
G01X82346Y220657D01*
G01X82400Y220553D01*
G01X82504Y220449D01*
G01X82608Y220398D01*
G01X82816Y220398D01*
G01X82918Y220449D01*
G01X83022Y220553D01*
G01X83075Y220657D01*
G01X84145Y221488D02*
G01X83626Y220398D01*
G01X83418Y221488D02*
G01X84145Y221488D01*
G01X113047Y183890D02*
G01X112994Y183995D01*
G01X112890Y184099D01*
G01X112788Y184150D01*
G01X112580Y184150D01*
G01X112476Y184099D01*
G01X112372Y183995D01*
G01X112318Y183890D01*
G01X112268Y183735D01*
G01X112268Y183476D01*
G01X112318Y183319D01*
G01X112372Y183215D01*
G01X112476Y183111D01*
G01X112580Y183060D01*
G01X112788Y183060D01*
G01X112890Y183111D01*
G01X112994Y183215D01*
G01X113047Y183319D01*
G01X114066Y183786D02*
G01X114012Y183631D01*
G01X113908Y183527D01*
G01X113753Y183476D01*
G01X113703Y183476D01*
G01X113545Y183527D01*
G01X113441Y183631D01*
G01X113390Y183786D01*
G01X113390Y183840D01*
G01X113441Y183995D01*
G01X113545Y184099D01*
G01X113703Y184150D01*
G01X113753Y184150D01*
G01X113908Y184099D01*
G01X114012Y183995D01*
G01X114066Y183786D01*
G01X114066Y183527D01*
G01X114012Y183268D01*
G01X113908Y183111D01*
G01X113753Y183060D01*
G01X113649Y183060D01*
G01X113494Y183111D01*
G01X113441Y183215D01*
G01X23131Y336798D02*
G01X23078Y336903D01*
G01X22974Y337007D01*
G01X22872Y337058D01*
G01X22664Y337058D01*
G01X22560Y337007D01*
G01X22456Y336903D01*
G01X22402Y336798D01*
G01X22352Y336643D01*
G01X22352Y336384D01*
G01X22402Y336227D01*
G01X22456Y336123D01*
G01X22560Y336019D01*
G01X22664Y335968D01*
G01X22872Y335968D01*
G01X22974Y336019D01*
G01X23078Y336123D01*
G01X23131Y336227D01*
G01X23474Y336852D02*
G01X23578Y336903D01*
G01X23733Y337058D01*
G01X23733Y335968D01*
G01X24752Y336694D02*
G01X24701Y336539D01*
G01X24597Y336435D01*
G01X24439Y336384D01*
G01X24389Y336384D01*
G01X24231Y336435D01*
G01X24130Y336539D01*
G01X24076Y336694D01*
G01X24076Y336748D01*
G01X24130Y336903D01*
G01X24231Y337007D01*
G01X24389Y337058D01*
G01X24439Y337058D01*
G01X24597Y337007D01*
G01X24701Y336903D01*
G01X24752Y336694D01*
G01X24752Y336435D01*
G01X24701Y336176D01*
G01X24597Y336019D01*
G01X24439Y335968D01*
G01X24335Y335968D01*
G01X24180Y336019D01*
G01X24130Y336123D01*
G01X23893Y323959D02*
G01X23840Y324063D01*
G01X23736Y324167D01*
G01X23634Y324218D01*
G01X23426Y324218D01*
G01X23322Y324167D01*
G01X23218Y324063D01*
G01X23164Y323959D01*
G01X23114Y323804D01*
G01X23114Y323545D01*
G01X23164Y323387D01*
G01X23218Y323283D01*
G01X23322Y323179D01*
G01X23426Y323128D01*
G01X23634Y323128D01*
G01X23736Y323179D01*
G01X23840Y323283D01*
G01X23893Y323387D01*
G01X24287Y323959D02*
G01X24287Y324012D01*
G01X24340Y324116D01*
G01X24391Y324167D01*
G01X24495Y324218D01*
G01X24704Y324218D01*
G01X24808Y324167D01*
G01X24858Y324116D01*
G01X24912Y324012D01*
G01X24912Y323908D01*
G01X24858Y323804D01*
G01X24754Y323646D01*
G01X24236Y323128D01*
G01X24963Y323128D01*
G01X25618Y324218D02*
G01X25463Y324167D01*
G01X25359Y324012D01*
G01X25306Y323750D01*
G01X25306Y323596D01*
G01X25359Y323336D01*
G01X25463Y323179D01*
G01X25618Y323128D01*
G01X25722Y323128D01*
G01X25877Y323179D01*
G01X25981Y323336D01*
G01X26035Y323596D01*
G01X26035Y323750D01*
G01X25981Y324012D01*
G01X25877Y324167D01*
G01X25722Y324218D01*
G01X25618Y324218D01*
G54D16*
G01X24823Y325882D02*
G01X24823Y327543D01*
G01X25654Y326712D02*
G01X23990Y326712D01*
G54D25*
G01X65041Y340608D02*
G01X64988Y340713D01*
G01X64884Y340817D01*
G01X64782Y340868D01*
G01X64574Y340868D01*
G01X64470Y340817D01*
G01X64366Y340713D01*
G01X64312Y340608D01*
G01X64262Y340453D01*
G01X64262Y340194D01*
G01X64312Y340037D01*
G01X64366Y339933D01*
G01X64470Y339829D01*
G01X64574Y339778D01*
G01X64782Y339778D01*
G01X64884Y339829D01*
G01X64988Y339933D01*
G01X65041Y340037D01*
G01X65435Y340608D02*
G01X65435Y340662D01*
G01X65488Y340766D01*
G01X65539Y340817D01*
G01X65643Y340868D01*
G01X65852Y340868D01*
G01X65956Y340817D01*
G01X66006Y340766D01*
G01X66060Y340662D01*
G01X66060Y340558D01*
G01X66006Y340453D01*
G01X65902Y340296D01*
G01X65384Y339778D01*
G01X66111Y339778D01*
G01X66454Y340662D02*
G01X66558Y340713D01*
G01X66713Y340868D01*
G01X66713Y339778D01*
G01X57421Y344672D02*
G01X57368Y344777D01*
G01X57264Y344881D01*
G01X57162Y344932D01*
G01X56954Y344932D01*
G01X56850Y344881D01*
G01X56746Y344777D01*
G01X56692Y344672D01*
G01X56642Y344517D01*
G01X56642Y344258D01*
G01X56692Y344101D01*
G01X56746Y343997D01*
G01X56850Y343893D01*
G01X56954Y343842D01*
G01X57162Y343842D01*
G01X57264Y343893D01*
G01X57368Y343997D01*
G01X57421Y344101D01*
G01X57815Y344672D02*
G01X57815Y344726D01*
G01X57868Y344830D01*
G01X57919Y344881D01*
G01X58023Y344932D01*
G01X58232Y344932D01*
G01X58336Y344881D01*
G01X58386Y344830D01*
G01X58440Y344726D01*
G01X58440Y344622D01*
G01X58386Y344517D01*
G01X58282Y344360D01*
G01X57764Y343842D01*
G01X58491Y343842D01*
G01X58887Y344672D02*
G01X58887Y344726D01*
G01X58938Y344830D01*
G01X58991Y344881D01*
G01X59093Y344932D01*
G01X59301Y344932D01*
G01X59405Y344881D01*
G01X59458Y344830D01*
G01X59509Y344726D01*
G01X59509Y344622D01*
G01X59458Y344517D01*
G01X59354Y344360D01*
G01X58834Y343842D01*
G01X59563Y343842D01*
G54D16*
G01X55118Y337634D02*
G01X56779Y337634D01*
G01X55948Y336804D02*
G01X55948Y338467D01*
G54D25*
G01X113543Y299610D02*
G01X113438Y299557D01*
G01X113334Y299453D01*
G01X113284Y299351D01*
G01X113284Y299143D01*
G01X113334Y299039D01*
G01X113438Y298935D01*
G01X113543Y298881D01*
G01X113698Y298831D01*
G01X113957Y298831D01*
G01X114114Y298881D01*
G01X114218Y298935D01*
G01X114322Y299039D01*
G01X114373Y299143D01*
G01X114373Y299351D01*
G01X114322Y299453D01*
G01X114218Y299557D01*
G01X114114Y299610D01*
G01X113543Y300004D02*
G01X113489Y300004D01*
G01X113385Y300057D01*
G01X113334Y300108D01*
G01X113284Y300212D01*
G01X113284Y300421D01*
G01X113334Y300525D01*
G01X113385Y300575D01*
G01X113489Y300629D01*
G01X113593Y300629D01*
G01X113698Y300575D01*
G01X113855Y300471D01*
G01X114373Y299953D01*
G01X114373Y300680D01*
G01X113284Y301127D02*
G01X113284Y301698D01*
G01X113698Y301386D01*
G01X113698Y301543D01*
G01X113751Y301647D01*
G01X113802Y301698D01*
G01X113957Y301752D01*
G01X114061Y301752D01*
G01X114218Y301698D01*
G01X114322Y301594D01*
G01X114373Y301439D01*
G01X114373Y301282D01*
G01X114322Y301127D01*
G01X114269Y301076D01*
G01X114165Y301023D01*
G01X119905Y299968D02*
G01X119852Y300073D01*
G01X119748Y300177D01*
G01X119646Y300228D01*
G01X119438Y300228D01*
G01X119334Y300177D01*
G01X119230Y300073D01*
G01X119176Y299968D01*
G01X119126Y299813D01*
G01X119126Y299554D01*
G01X119176Y299397D01*
G01X119230Y299293D01*
G01X119334Y299189D01*
G01X119438Y299138D01*
G01X119646Y299138D01*
G01X119748Y299189D01*
G01X119852Y299293D01*
G01X119905Y299397D01*
G01X120299Y299968D02*
G01X120299Y300022D01*
G01X120352Y300126D01*
G01X120403Y300177D01*
G01X120507Y300228D01*
G01X120716Y300228D01*
G01X120820Y300177D01*
G01X120870Y300126D01*
G01X120924Y300022D01*
G01X120924Y299918D01*
G01X120870Y299813D01*
G01X120766Y299656D01*
G01X120248Y299138D01*
G01X120975Y299138D01*
G01X121838Y300228D02*
G01X121318Y299501D01*
G01X122097Y299501D01*
G01X121838Y300228D02*
G01X121838Y299138D01*
G54D16*
G01X116400Y307340D02*
G01X116400Y305678D01*
G01X115570Y306509D02*
G01X117233Y306509D01*
G54D25*
G01X114947Y176923D02*
G01X116037Y176923D01*
G01X114947Y176923D02*
G01X114947Y177391D01*
G01X114998Y177546D01*
G01X115049Y177599D01*
G01X115153Y177650D01*
G01X115257Y177650D01*
G01X115361Y177599D01*
G01X115415Y177546D01*
G01X115465Y177391D01*
G01X115465Y176923D01*
G01X115465Y177286D02*
G01X116037Y177650D01*
G01X114947Y178097D02*
G01X114947Y178668D01*
G01X115361Y178358D01*
G01X115361Y178513D01*
G01X115415Y178617D01*
G01X115465Y178668D01*
G01X115620Y178722D01*
G01X115724Y178722D01*
G01X115882Y178668D01*
G01X115986Y178564D01*
G01X116037Y178409D01*
G01X116037Y178254D01*
G01X115986Y178097D01*
G01X115933Y178046D01*
G01X115829Y177993D01*
G01X114947Y179583D02*
G01X115674Y179064D01*
G01X115674Y179844D01*
G01X114947Y179583D02*
G01X116037Y179583D01*
G01X94996Y205158D02*
G01X96085Y205158D01*
G01X94996Y205158D02*
G01X94996Y205625D01*
G01X95046Y205780D01*
G01X95097Y205833D01*
G01X95201Y205884D01*
G01X95305Y205884D01*
G01X95410Y205833D01*
G01X95463Y205780D01*
G01X95514Y205625D01*
G01X95514Y205158D01*
G01X95514Y205521D02*
G01X96085Y205884D01*
G01X94996Y206331D02*
G01X94996Y206903D01*
G01X95410Y206593D01*
G01X95410Y206748D01*
G01X95463Y206852D01*
G01X95514Y206903D01*
G01X95669Y206956D01*
G01X95773Y206956D01*
G01X95930Y206903D01*
G01X96034Y206799D01*
G01X96085Y206644D01*
G01X96085Y206489D01*
G01X96034Y206331D01*
G01X95981Y206281D01*
G01X95877Y206227D01*
G01X94996Y207921D02*
G01X94996Y207403D01*
G01X95463Y207350D01*
G01X95410Y207403D01*
G01X95359Y207558D01*
G01X95359Y207713D01*
G01X95410Y207871D01*
G01X95514Y207975D01*
G01X95669Y208026D01*
G01X95773Y208026D01*
G01X95930Y207975D01*
G01X96034Y207871D01*
G01X96085Y207713D01*
G01X96085Y207558D01*
G01X96034Y207403D01*
G01X95981Y207350D01*
G01X95877Y207299D01*
G01X64770Y195557D02*
G01X65859Y195557D01*
G01X64770Y195557D02*
G01X64770Y196024D01*
G01X64820Y196179D01*
G01X64871Y196232D01*
G01X64975Y196283D01*
G01X65079Y196283D01*
G01X65184Y196232D01*
G01X65237Y196179D01*
G01X65288Y196024D01*
G01X65288Y195557D01*
G01X65288Y195920D02*
G01X65859Y196283D01*
G01X64770Y196730D02*
G01X64770Y197302D01*
G01X65184Y196992D01*
G01X65184Y197147D01*
G01X65237Y197251D01*
G01X65288Y197302D01*
G01X65443Y197355D01*
G01X65547Y197355D01*
G01X65704Y197302D01*
G01X65808Y197197D01*
G01X65859Y197043D01*
G01X65859Y196888D01*
G01X65808Y196730D01*
G01X65755Y196679D01*
G01X65651Y196626D01*
G01X64924Y198320D02*
G01X64820Y198269D01*
G01X64770Y198112D01*
G01X64770Y198008D01*
G01X64820Y197853D01*
G01X64975Y197749D01*
G01X65237Y197698D01*
G01X65496Y197698D01*
G01X65704Y197749D01*
G01X65808Y197853D01*
G01X65859Y198008D01*
G01X65859Y198061D01*
G01X65808Y198216D01*
G01X65704Y198320D01*
G01X65547Y198373D01*
G01X65496Y198373D01*
G01X65341Y198320D01*
G01X65237Y198216D01*
G01X65184Y198061D01*
G01X65184Y198008D01*
G01X65237Y197853D01*
G01X65341Y197749D01*
G01X65496Y197698D01*
G01X14478Y315341D02*
G01X15567Y315341D01*
G01X14478Y315341D02*
G01X14478Y315808D01*
G01X14528Y315963D01*
G01X14579Y316016D01*
G01X14683Y316067D01*
G01X14787Y316067D01*
G01X14892Y316016D01*
G01X14945Y315963D01*
G01X14996Y315808D01*
G01X14996Y315341D01*
G01X14996Y315704D02*
G01X15567Y316067D01*
G01X14478Y316931D02*
G01X15204Y316410D01*
G01X15204Y317190D01*
G01X14478Y316931D02*
G01X15567Y316931D01*
G01X14478Y317845D02*
G01X14528Y317690D01*
G01X14683Y317586D01*
G01X14945Y317533D01*
G01X15100Y317533D01*
G01X15359Y317586D01*
G01X15516Y317690D01*
G01X15567Y317845D01*
G01X15567Y317949D01*
G01X15516Y318104D01*
G01X15359Y318208D01*
G01X15100Y318262D01*
G01X14945Y318262D01*
G01X14683Y318208D01*
G01X14528Y318104D01*
G01X14478Y317949D01*
G01X14478Y317845D01*
G01X72136Y323342D02*
G01X72136Y322252D01*
G01X72136Y323342D02*
G01X72603Y323342D01*
G01X72758Y323291D01*
G01X72811Y323240D01*
G01X72862Y323136D01*
G01X72862Y323032D01*
G01X72811Y322927D01*
G01X72758Y322874D01*
G01X72603Y322823D01*
G01X72136Y322823D01*
G01X72499Y322823D02*
G01X72862Y322252D01*
G01X73726Y323342D02*
G01X73205Y322615D01*
G01X73985Y322615D01*
G01X73726Y323342D02*
G01X73726Y322252D01*
G01X74328Y323136D02*
G01X74432Y323187D01*
G01X74587Y323342D01*
G01X74587Y322252D01*
G01X116471Y326529D02*
G01X117561Y326529D01*
G01X116471Y326529D02*
G01X116471Y326997D01*
G01X116522Y327152D01*
G01X116573Y327205D01*
G01X116677Y327256D01*
G01X116781Y327256D01*
G01X116885Y327205D01*
G01X116939Y327152D01*
G01X116989Y326997D01*
G01X116989Y326529D01*
G01X116989Y326892D02*
G01X117561Y327256D01*
G01X116471Y328119D02*
G01X117198Y327599D01*
G01X117198Y328378D01*
G01X116471Y328119D02*
G01X117561Y328119D01*
G01X116730Y328775D02*
G01X116677Y328775D01*
G01X116573Y328825D01*
G01X116522Y328879D01*
G01X116471Y328980D01*
G01X116471Y329189D01*
G01X116522Y329293D01*
G01X116573Y329346D01*
G01X116677Y329397D01*
G01X116781Y329397D01*
G01X116885Y329346D01*
G01X117043Y329242D01*
G01X117561Y328721D01*
G01X117561Y329450D01*

%LPD*%
G36*
G01X66712Y305814D02*
G01X66647Y305816D01*
G01X66575Y305814D01*
G01X66506Y305810D01*
G01X66438Y305803D01*
G01X66371Y305794D01*
G01X66306Y305782D01*
G01X66242Y305767D01*
G01X66181Y305750D01*
G01X66121Y305730D01*
G01X66063Y305708D01*
G01X66007Y305683D01*
G01X65954Y305656D01*
G01X65902Y305627D01*
G01X65853Y305595D01*
G01X65807Y305560D01*
G01X65763Y305523D01*
G01X65721Y305484D01*
G01X65683Y305443D01*
G01X65647Y305399D01*
G01X65614Y305353D01*
G01X65585Y305305D01*
G01X65558Y305255D01*
G01X65535Y305203D01*
G01X65515Y305148D01*
G01X65498Y305092D01*
G01X65485Y305033D01*
G01X65476Y304972D01*
G01X65470Y304910D01*
G01X65468Y304845D01*
G01X65470Y304780D01*
G01X65475Y304717D01*
G01X65485Y304656D01*
G01X65497Y304598D01*
G01X65513Y304541D01*
G01X65533Y304487D01*
G01X65556Y304435D01*
G01X65582Y304384D01*
G01X65611Y304336D01*
G01X65643Y304289D01*
G01X65679Y304244D01*
G01X65717Y304201D01*
G01X65759Y304159D01*
G01X65802Y304119D01*
G01X65849Y304080D01*
G01X65898Y304043D01*
G01X65951Y304007D01*
G01X66005Y303972D01*
G01X66062Y303939D01*
G01X66121Y303907D01*
G01X66182Y303875D01*
G01X66246Y303845D01*
G01X66312Y303817D01*
G01X66380Y303789D01*
G01X66578Y303707D01*
G01X66663Y303672D01*
G01X66742Y303638D01*
G01X66815Y303603D01*
G01X66881Y303568D01*
G01X66942Y303532D01*
G01X66996Y303495D01*
G01X67045Y303457D01*
G01X67088Y303417D01*
G01X67125Y303376D01*
G01X67158Y303333D01*
G01X67184Y303287D01*
G01X67206Y303238D01*
G01X67223Y303187D01*
G01X67234Y303132D01*
G01X67241Y303074D01*
G01X67243Y303011D01*
G01X67241Y302948D01*
G01X67234Y302888D01*
G01X67222Y302832D01*
G01X67205Y302778D01*
G01X67184Y302727D01*
G01X67158Y302680D01*
G01X67128Y302635D01*
G01X67094Y302593D01*
G01X67056Y302555D01*
G01X67013Y302520D01*
G01X66967Y302488D01*
G01X66917Y302460D01*
G01X66864Y302434D01*
G01X66808Y302412D01*
G01X66747Y302394D01*
G01X66684Y302378D01*
G01X66617Y302366D01*
G01X66548Y302358D01*
G01X66475Y302352D01*
G01X66400Y302351D01*
G01X66317Y302353D01*
G01X66241Y302359D01*
G01X66169Y302368D01*
G01X66100Y302381D01*
G01X66034Y302399D01*
G01X65970Y302422D01*
G01X65907Y302448D01*
G01X65844Y302480D01*
G01X65709Y303141D01*
G01X65440Y303141D01*
G01X65405Y302399D01*
G01X65451Y302371D01*
G01X65502Y302343D01*
G01X65554Y302316D01*
G01X65611Y302290D01*
G01X65669Y302266D01*
G01X65730Y302243D01*
G01X65794Y302221D01*
G01X65859Y302202D01*
G01X65926Y302183D01*
G01X65995Y302168D01*
G01X66065Y302153D01*
G01X66137Y302142D01*
G01X66210Y302133D01*
G01X66284Y302125D01*
G01X66358Y302121D01*
G01X66433Y302120D01*
G01X66501Y302121D01*
G01X66568Y302124D01*
G01X66633Y302129D01*
G01X66697Y302137D01*
G01X66760Y302147D01*
G01X66821Y302158D01*
G01X66880Y302173D01*
G01X66937Y302188D01*
G01X66993Y302206D01*
G01X67047Y302226D01*
G01X67099Y302248D01*
G01X67149Y302272D01*
G01X67198Y302298D01*
G01X67244Y302325D01*
G01X67289Y302355D01*
G01X67331Y302386D01*
G01X67371Y302420D01*
G01X67409Y302455D01*
G01X67444Y302491D01*
G01X67478Y302530D01*
G01X67509Y302570D01*
G01X67537Y302613D01*
G01X67563Y302656D01*
G01X67586Y302701D01*
G01X67608Y302749D01*
G01X67626Y302797D01*
G01X67641Y302848D01*
G01X67654Y302900D01*
G01X67665Y302953D01*
G01X67672Y303008D01*
G01X67676Y303065D01*
G01X67678Y303123D01*
G01X67676Y303184D01*
G01X67672Y303243D01*
G01X67665Y303300D01*
G01X67655Y303356D01*
G01X67642Y303409D01*
G01X67626Y303461D01*
G01X67607Y303511D01*
G01X67584Y303559D01*
G01X67558Y303607D01*
G01X67529Y303652D01*
G01X67496Y303697D01*
G01X67460Y303740D01*
G01X67420Y303782D01*
G01X67376Y303823D01*
G01X67328Y303863D01*
G01X67276Y303902D01*
G01X67221Y303941D01*
G01X67161Y303979D01*
G01X67097Y304016D01*
G01X67029Y304052D01*
G01X66957Y304088D01*
G01X66880Y304124D01*
G01X66798Y304159D01*
G01X66713Y304195D01*
G01X66502Y304276D01*
G01X66432Y304305D01*
G01X66366Y304335D01*
G01X66304Y304367D01*
G01X66246Y304400D01*
G01X66193Y304435D01*
G01X66144Y304472D01*
G01X66098Y304510D01*
G01X66058Y304551D01*
G01X66022Y304594D01*
G01X65991Y304639D01*
G01X65964Y304687D01*
G01X65942Y304738D01*
G01X65925Y304791D01*
G01X65913Y304847D01*
G01X65905Y304905D01*
G01X65902Y304967D01*
G01X65904Y305026D01*
G01X65911Y305082D01*
G01X65923Y305136D01*
G01X65938Y305187D01*
G01X65958Y305234D01*
G01X65982Y305279D01*
G01X66009Y305320D01*
G01X66041Y305359D01*
G01X66075Y305394D01*
G01X66113Y305427D01*
G01X66154Y305457D01*
G01X66198Y305483D01*
G01X66245Y305507D01*
G01X66295Y305527D01*
G01X66347Y305545D01*
G01X66402Y305559D01*
G01X66459Y305570D01*
G01X66518Y305578D01*
G01X66578Y305583D01*
G01X66641Y305584D01*
G01X66701Y305583D01*
G01X66758Y305578D01*
G01X66813Y305571D01*
G01X66867Y305559D01*
G01X66918Y305545D01*
G01X66970Y305526D01*
G01X67020Y305504D01*
G01X67071Y305478D01*
G01X67205Y304845D01*
G01X67480Y304845D01*
G01X67515Y305536D01*
G01X67471Y305567D01*
G01X67425Y305596D01*
G01X67379Y305624D01*
G01X67331Y305650D01*
G01X67282Y305675D01*
G01X67231Y305698D01*
G01X67179Y305719D01*
G01X67127Y305739D01*
G01X67072Y305756D01*
G01X67016Y305771D01*
G01X66958Y305785D01*
G01X66900Y305795D01*
G01X66839Y305804D01*
G01X66776Y305810D01*
G01X66712Y305814D01*
G37*

%LPD*%
G36*
G01X74991Y305804D02*
G01X74950Y305805D01*
G01X74907Y305804D01*
G01X74864Y305802D01*
G01X74822Y305797D01*
G01X74780Y305790D01*
G01X74738Y305781D01*
G01X74697Y305771D01*
G01X74656Y305758D01*
G01X74616Y305743D01*
G01X74575Y305727D01*
G01X74536Y305708D01*
G01X74497Y305686D01*
G01X74459Y305663D01*
G01X74421Y305638D01*
G01X74384Y305610D01*
G01X74348Y305580D01*
G01X74312Y305547D01*
G01X74278Y305513D01*
G01X74244Y305476D01*
G01X74212Y305436D01*
G01X74180Y305394D01*
G01X74150Y305349D01*
G01X74120Y305302D01*
G01X74092Y305253D01*
G01X74065Y305201D01*
G01X74039Y305146D01*
G01X74015Y305089D01*
G01X73992Y305029D01*
G01X73970Y304966D01*
G01X73950Y304901D01*
G01X73931Y304833D01*
G01X73914Y304761D01*
G01X73898Y304688D01*
G01X73885Y304611D01*
G01X73872Y304531D01*
G01X73862Y304449D01*
G01X73853Y304364D01*
G01X73846Y304275D01*
G01X73841Y304184D01*
G01X73838Y304089D01*
G01X73837Y303992D01*
G01X73838Y303900D01*
G01X73840Y303811D01*
G01X73844Y303724D01*
G01X73851Y303640D01*
G01X73858Y303559D01*
G01X73866Y303480D01*
G01X73876Y303404D01*
G01X73888Y303330D01*
G01X73901Y303259D01*
G01X73916Y303190D01*
G01X73931Y303124D01*
G01X73948Y303060D01*
G01X73966Y302999D01*
G01X73986Y302939D01*
G01X74006Y302882D01*
G01X74028Y302828D01*
G01X74051Y302776D01*
G01X74075Y302725D01*
G01X74099Y302678D01*
G01X74125Y302632D01*
G01X74152Y302589D01*
G01X74180Y302547D01*
G01X74209Y302508D01*
G01X74238Y302471D01*
G01X74269Y302436D01*
G01X74300Y302403D01*
G01X74332Y302372D01*
G01X74364Y302343D01*
G01X74397Y302316D01*
G01X74431Y302290D01*
G01X74466Y302267D01*
G01X74500Y302246D01*
G01X74536Y302226D01*
G01X74572Y302209D01*
G01X74608Y302193D01*
G01X74645Y302179D01*
G01X74682Y302167D01*
G01X74720Y302156D01*
G01X74758Y302147D01*
G01X74795Y302140D01*
G01X74873Y302130D01*
G01X74911Y302128D01*
G01X74950Y302127D01*
G01X74991Y302128D01*
G01X75033Y302131D01*
G01X75074Y302136D01*
G01X75116Y302143D01*
G01X75157Y302151D01*
G01X75198Y302162D01*
G01X75238Y302175D01*
G01X75278Y302190D01*
G01X75318Y302207D01*
G01X75357Y302226D01*
G01X75395Y302248D01*
G01X75433Y302272D01*
G01X75471Y302298D01*
G01X75507Y302326D01*
G01X75543Y302357D01*
G01X75578Y302390D01*
G01X75612Y302426D01*
G01X75646Y302464D01*
G01X75678Y302504D01*
G01X75710Y302547D01*
G01X75740Y302593D01*
G01X75769Y302641D01*
G01X75797Y302692D01*
G01X75824Y302745D01*
G01X75850Y302802D01*
G01X75874Y302860D01*
G01X75897Y302922D01*
G01X75919Y302986D01*
G01X75939Y303054D01*
G01X75958Y303124D01*
G01X75975Y303197D01*
G01X75991Y303273D01*
G01X76005Y303352D01*
G01X76017Y303434D01*
G01X76028Y303519D01*
G01X76036Y303608D01*
G01X76043Y303699D01*
G01X76048Y303793D01*
G01X76051Y303891D01*
G01X76052Y303992D01*
G01X76051Y304089D01*
G01X76048Y304184D01*
G01X76043Y304275D01*
G01X76036Y304364D01*
G01X76028Y304449D01*
G01X76017Y304531D01*
G01X76005Y304611D01*
G01X75991Y304688D01*
G01X75975Y304761D01*
G01X75958Y304833D01*
G01X75939Y304901D01*
G01X75919Y304966D01*
G01X75897Y305029D01*
G01X75874Y305089D01*
G01X75850Y305146D01*
G01X75824Y305201D01*
G01X75797Y305253D01*
G01X75769Y305302D01*
G01X75740Y305349D01*
G01X75710Y305394D01*
G01X75678Y305436D01*
G01X75646Y305476D01*
G01X75612Y305513D01*
G01X75578Y305547D01*
G01X75543Y305580D01*
G01X75507Y305610D01*
G01X75471Y305638D01*
G01X75433Y305663D01*
G01X75395Y305686D01*
G01X75357Y305708D01*
G01X75318Y305727D01*
G01X75278Y305743D01*
G01X75238Y305758D01*
G01X75198Y305771D01*
G01X75157Y305781D01*
G01X75116Y305790D01*
G01X75074Y305797D01*
G01X75033Y305802D01*
G01X74991Y305804D01*
G37*

%LPC*%
G36*
G01X74980Y305594D02*
G01X74950Y305595D01*
G01X74918Y305594D01*
G01X74887Y305590D01*
G01X74856Y305585D01*
G01X74825Y305578D01*
G01X74795Y305568D01*
G01X74765Y305555D01*
G01X74735Y305541D01*
G01X74706Y305523D01*
G01X74678Y305502D01*
G01X74651Y305479D01*
G01X74624Y305452D01*
G01X74597Y305422D01*
G01X74572Y305389D01*
G01X74547Y305353D01*
G01X74523Y305313D01*
G01X74501Y305269D01*
G01X74479Y305222D01*
G01X74458Y305171D01*
G01X74438Y305116D01*
G01X74419Y305057D01*
G01X74402Y304994D01*
G01X74386Y304927D01*
G01X74371Y304854D01*
G01X74358Y304778D01*
G01X74346Y304697D01*
G01X74335Y304612D01*
G01X74326Y304521D01*
G01X74318Y304425D01*
G01X74312Y304325D01*
G01X74308Y304219D01*
G01X74306Y304108D01*
G01X74305Y303992D01*
G01X74306Y303871D01*
G01X74308Y303756D01*
G01X74312Y303646D01*
G01X74318Y303542D01*
G01X74326Y303443D01*
G01X74335Y303349D01*
G01X74346Y303260D01*
G01X74358Y303176D01*
G01X74371Y303097D01*
G01X74386Y303023D01*
G01X74402Y302952D01*
G01X74419Y302887D01*
G01X74438Y302825D01*
G01X74458Y302769D01*
G01X74479Y302716D01*
G01X74501Y302667D01*
G01X74523Y302622D01*
G01X74547Y302581D01*
G01X74572Y302543D01*
G01X74597Y302508D01*
G01X74624Y302478D01*
G01X74651Y302451D01*
G01X74678Y302426D01*
G01X74706Y302405D01*
G01X74735Y302387D01*
G01X74765Y302371D01*
G01X74795Y302358D01*
G01X74825Y302348D01*
G01X74856Y302340D01*
G01X74887Y302335D01*
G01X74918Y302332D01*
G01X74950Y302331D01*
G01X74980Y302332D01*
G01X75010Y302335D01*
G01X75040Y302340D01*
G01X75070Y302348D01*
G01X75100Y302359D01*
G01X75129Y302371D01*
G01X75157Y302387D01*
G01X75185Y302405D01*
G01X75212Y302427D01*
G01X75239Y302452D01*
G01X75266Y302479D01*
G01X75291Y302510D01*
G01X75316Y302544D01*
G01X75340Y302582D01*
G01X75363Y302624D01*
G01X75385Y302669D01*
G01X75407Y302718D01*
G01X75427Y302771D01*
G01X75446Y302828D01*
G01X75464Y302889D01*
G01X75481Y302954D01*
G01X75497Y303025D01*
G01X75512Y303099D01*
G01X75525Y303178D01*
G01X75537Y303262D01*
G01X75547Y303351D01*
G01X75556Y303445D01*
G01X75563Y303543D01*
G01X75570Y303647D01*
G01X75574Y303757D01*
G01X75576Y303871D01*
G01X75577Y303992D01*
G01X75576Y304108D01*
G01X75574Y304219D01*
G01X75570Y304325D01*
G01X75563Y304425D01*
G01X75556Y304521D01*
G01X75547Y304612D01*
G01X75537Y304697D01*
G01X75525Y304778D01*
G01X75512Y304854D01*
G01X75497Y304927D01*
G01X75481Y304994D01*
G01X75464Y305057D01*
G01X75446Y305116D01*
G01X75427Y305171D01*
G01X75407Y305222D01*
G01X75385Y305269D01*
G01X75363Y305313D01*
G01X75340Y305353D01*
G01X75316Y305389D01*
G01X75291Y305422D01*
G01X75266Y305452D01*
G01X75239Y305479D01*
G01X75212Y305502D01*
G01X75185Y305523D01*
G01X75157Y305541D01*
G01X75129Y305555D01*
G01X75100Y305568D01*
G01X75070Y305578D01*
G01X75040Y305585D01*
G01X75010Y305590D01*
G01X74980Y305594D01*
G37*

%LPD*%
G36*
G01X72583Y305734D02*
G01X72509Y305788D01*
G01X71424Y305501D01*
G01X71424Y305318D01*
G01X72128Y305386D01*
G01X72128Y303241D01*
G01X72127Y303101D01*
G01X72126Y303030D01*
G01X72125Y302960D01*
G01X72125Y302889D01*
G01X72123Y302748D01*
G01X72121Y302677D01*
G01X72120Y302606D01*
G01X72119Y302536D01*
G01X72118Y302465D01*
G01X71366Y302361D01*
G01X71366Y302196D01*
G01X73314Y302196D01*
G01X73314Y302361D01*
G01X72572Y302465D01*
G01X72571Y302536D01*
G01X72569Y302677D01*
G01X72567Y302748D01*
G01X72564Y302960D01*
G01X72563Y303101D01*
G01X72562Y303241D01*
G01X72562Y304972D01*
G01X72583Y305734D01*
G37*

%LPD*%
G36*
G01X69512Y305734D02*
G01X68094Y305734D01*
G01X68094Y305549D01*
G01X68585Y305498D01*
G01X68588Y305324D01*
G01X68589Y305265D01*
G01X68590Y305207D01*
G01X68590Y305149D01*
G01X68591Y305091D01*
G01X68593Y304857D01*
G01X68593Y304798D01*
G01X68594Y304740D01*
G01X68594Y304505D01*
G01X68595Y304447D01*
G01X68595Y303479D01*
G01X68594Y303421D01*
G01X68594Y303187D01*
G01X68593Y303129D01*
G01X68593Y303071D01*
G01X68592Y302955D01*
G01X68592Y302897D01*
G01X68590Y302781D01*
G01X68590Y302722D01*
G01X68588Y302606D01*
G01X68587Y302549D01*
G01X68586Y302490D01*
G01X68585Y302432D01*
G01X68094Y302379D01*
G01X68094Y302196D01*
G01X69590Y302196D01*
G01X69590Y302379D01*
G01X69088Y302437D01*
G01X69084Y302557D01*
G01X69082Y302676D01*
G01X69081Y302735D01*
G01X69081Y302794D01*
G01X69080Y302852D01*
G01X69079Y302911D01*
G01X69079Y302970D01*
G01X69078Y303028D01*
G01X69078Y303202D01*
G01X69077Y303261D01*
G01X69077Y303611D01*
G01X69357Y303611D01*
G01X69444Y303612D01*
G01X69528Y303615D01*
G01X69610Y303621D01*
G01X69688Y303629D01*
G01X69764Y303638D01*
G01X69837Y303649D01*
G01X69907Y303663D01*
G01X69974Y303679D01*
G01X70038Y303696D01*
G01X70100Y303715D01*
G01X70159Y303736D01*
G01X70215Y303759D01*
G01X70269Y303784D01*
G01X70320Y303809D01*
G01X70369Y303837D01*
G01X70414Y303866D01*
G01X70458Y303896D01*
G01X70498Y303928D01*
G01X70537Y303961D01*
G01X70573Y303996D01*
G01X70606Y304031D01*
G01X70637Y304068D01*
G01X70666Y304107D01*
G01X70693Y304146D01*
G01X70717Y304186D01*
G01X70739Y304227D01*
G01X70758Y304270D01*
G01X70776Y304313D01*
G01X70791Y304357D01*
G01X70804Y304402D01*
G01X70815Y304447D01*
G01X70824Y304494D01*
G01X70831Y304541D01*
G01X70836Y304588D01*
G01X70839Y304636D01*
G01X70840Y304685D01*
G01X70839Y304744D01*
G01X70835Y304801D01*
G01X70828Y304856D01*
G01X70819Y304910D01*
G01X70808Y304964D01*
G01X70794Y305015D01*
G01X70777Y305065D01*
G01X70757Y305114D01*
G01X70735Y305161D01*
G01X70711Y305206D01*
G01X70684Y305251D01*
G01X70654Y305293D01*
G01X70622Y305333D01*
G01X70587Y305373D01*
G01X70550Y305410D01*
G01X70509Y305445D01*
G01X70467Y305479D01*
G01X70421Y305510D01*
G01X70373Y305540D01*
G01X70322Y305568D01*
G01X70270Y305594D01*
G01X70214Y305617D01*
G01X70155Y305639D01*
G01X70094Y305659D01*
G01X70031Y305676D01*
G01X69964Y305691D01*
G01X69895Y305704D01*
G01X69824Y305715D01*
G01X69750Y305723D01*
G01X69673Y305729D01*
G01X69593Y305733D01*
G01X69512Y305734D01*
G37*

%LPC*%
G36*
G01X69425Y305526D02*
G01X69088Y305526D01*
G01X69086Y305468D01*
G01X69081Y305173D01*
G01X69079Y304935D01*
G01X69078Y304815D01*
G01X69078Y304575D01*
G01X69077Y304516D01*
G01X69077Y303822D01*
G01X69415Y303822D01*
G01X69495Y303824D01*
G01X69572Y303829D01*
G01X69645Y303838D01*
G01X69713Y303850D01*
G01X69778Y303866D01*
G01X69838Y303885D01*
G01X69896Y303907D01*
G01X69949Y303932D01*
G01X69999Y303960D01*
G01X70045Y303991D01*
G01X70087Y304025D01*
G01X70126Y304062D01*
G01X70162Y304102D01*
G01X70194Y304143D01*
G01X70223Y304187D01*
G01X70249Y304235D01*
G01X70271Y304283D01*
G01X70290Y304335D01*
G01X70306Y304389D01*
G01X70319Y304444D01*
G01X70330Y304501D01*
G01X70337Y304561D01*
G01X70341Y304622D01*
G01X70342Y304685D01*
G01X70341Y304751D01*
G01X70336Y304814D01*
G01X70329Y304875D01*
G01X70318Y304934D01*
G01X70305Y304989D01*
G01X70288Y305043D01*
G01X70268Y305093D01*
G01X70245Y305141D01*
G01X70219Y305187D01*
G01X70189Y305229D01*
G01X70157Y305269D01*
G01X70121Y305306D01*
G01X70082Y305341D01*
G01X70039Y305373D01*
G01X69993Y305401D01*
G01X69944Y305427D01*
G01X69892Y305450D01*
G01X69835Y305470D01*
G01X69776Y305487D01*
G01X69713Y305501D01*
G01X69646Y305512D01*
G01X69576Y305520D01*
G01X69503Y305524D01*
G01X69425Y305526D01*
G37*

%LPD*%
G36*
G01X64851Y305734D02*
G01X62230Y305734D01*
G01X62230Y305549D01*
G01X62722Y305498D01*
G01X62724Y305382D01*
G01X62726Y305324D01*
G01X62726Y305265D01*
G01X62729Y305091D01*
G01X62731Y304857D01*
G01X62731Y304682D01*
G01X62732Y304623D01*
G01X62732Y303304D01*
G01X62731Y303246D01*
G01X62731Y303071D01*
G01X62730Y302955D01*
G01X62729Y302897D01*
G01X62729Y302839D01*
G01X62728Y302781D01*
G01X62727Y302722D01*
G01X62726Y302664D01*
G01X62726Y302606D01*
G01X62724Y302549D01*
G01X62723Y302490D01*
G01X62722Y302432D01*
G01X62230Y302379D01*
G01X62230Y302196D01*
G01X64952Y302196D01*
G01X64980Y303136D01*
G01X64719Y303136D01*
G01X64579Y302427D01*
G01X63225Y302427D01*
G01X63224Y302486D01*
G01X63223Y302544D01*
G01X63221Y302662D01*
G01X63220Y302722D01*
G01X63219Y302781D01*
G01X63218Y302959D01*
G01X63217Y303019D01*
G01X63217Y303079D01*
G01X63216Y303139D01*
G01X63216Y303384D01*
G01X63215Y303446D01*
G01X63215Y303890D01*
G01X64015Y303890D01*
G01X64089Y303380D01*
G01X64305Y303380D01*
G01X64305Y304624D01*
G01X64089Y304624D01*
G01X64010Y304104D01*
G01X63215Y304104D01*
G01X63215Y304518D01*
G01X63216Y304576D01*
G01X63216Y304810D01*
G01X63218Y305041D01*
G01X63219Y305099D01*
G01X63219Y305157D01*
G01X63221Y305271D01*
G01X63223Y305386D01*
G01X63224Y305443D01*
G01X63225Y305501D01*
G01X64477Y305501D01*
G01X64620Y304802D01*
G01X64879Y304802D01*
G01X64851Y305734D01*
G37*

%LPD*%

%LPD*%
G36*
G01X75856Y179830D02*
G01X75791Y179832D01*
G01X75719Y179830D01*
G01X75650Y179826D01*
G01X75582Y179819D01*
G01X75515Y179810D01*
G01X75450Y179798D01*
G01X75386Y179783D01*
G01X75325Y179766D01*
G01X75265Y179746D01*
G01X75207Y179724D01*
G01X75151Y179699D01*
G01X75098Y179672D01*
G01X75046Y179643D01*
G01X74997Y179611D01*
G01X74951Y179576D01*
G01X74907Y179539D01*
G01X74865Y179500D01*
G01X74827Y179459D01*
G01X74791Y179415D01*
G01X74758Y179369D01*
G01X74729Y179321D01*
G01X74702Y179271D01*
G01X74679Y179219D01*
G01X74659Y179164D01*
G01X74642Y179108D01*
G01X74629Y179049D01*
G01X74620Y178988D01*
G01X74614Y178926D01*
G01X74612Y178861D01*
G01X74614Y178796D01*
G01X74619Y178733D01*
G01X74629Y178672D01*
G01X74641Y178614D01*
G01X74657Y178557D01*
G01X74677Y178503D01*
G01X74700Y178451D01*
G01X74726Y178400D01*
G01X74755Y178352D01*
G01X74787Y178305D01*
G01X74823Y178260D01*
G01X74861Y178217D01*
G01X74903Y178175D01*
G01X74946Y178135D01*
G01X74993Y178096D01*
G01X75042Y178059D01*
G01X75095Y178023D01*
G01X75149Y177988D01*
G01X75206Y177955D01*
G01X75265Y177923D01*
G01X75326Y177891D01*
G01X75390Y177861D01*
G01X75456Y177833D01*
G01X75524Y177805D01*
G01X75722Y177723D01*
G01X75807Y177688D01*
G01X75886Y177654D01*
G01X75959Y177619D01*
G01X76025Y177584D01*
G01X76086Y177548D01*
G01X76140Y177511D01*
G01X76189Y177473D01*
G01X76232Y177433D01*
G01X76269Y177392D01*
G01X76302Y177349D01*
G01X76328Y177303D01*
G01X76350Y177254D01*
G01X76367Y177203D01*
G01X76378Y177148D01*
G01X76385Y177090D01*
G01X76387Y177027D01*
G01X76385Y176964D01*
G01X76378Y176904D01*
G01X76366Y176848D01*
G01X76349Y176794D01*
G01X76328Y176743D01*
G01X76302Y176696D01*
G01X76272Y176651D01*
G01X76238Y176609D01*
G01X76200Y176571D01*
G01X76157Y176536D01*
G01X76111Y176504D01*
G01X76061Y176476D01*
G01X76008Y176450D01*
G01X75952Y176428D01*
G01X75891Y176410D01*
G01X75828Y176394D01*
G01X75761Y176382D01*
G01X75692Y176374D01*
G01X75619Y176368D01*
G01X75544Y176367D01*
G01X75461Y176369D01*
G01X75385Y176375D01*
G01X75313Y176384D01*
G01X75244Y176397D01*
G01X75178Y176415D01*
G01X75114Y176438D01*
G01X75051Y176464D01*
G01X74988Y176496D01*
G01X74853Y177157D01*
G01X74584Y177157D01*
G01X74549Y176415D01*
G01X74595Y176387D01*
G01X74646Y176359D01*
G01X74698Y176332D01*
G01X74755Y176306D01*
G01X74813Y176282D01*
G01X74874Y176259D01*
G01X74938Y176237D01*
G01X75003Y176218D01*
G01X75070Y176199D01*
G01X75139Y176184D01*
G01X75209Y176169D01*
G01X75281Y176158D01*
G01X75354Y176149D01*
G01X75428Y176141D01*
G01X75502Y176137D01*
G01X75577Y176136D01*
G01X75645Y176137D01*
G01X75712Y176140D01*
G01X75777Y176145D01*
G01X75841Y176153D01*
G01X75904Y176163D01*
G01X75965Y176174D01*
G01X76024Y176189D01*
G01X76081Y176204D01*
G01X76137Y176222D01*
G01X76191Y176242D01*
G01X76243Y176264D01*
G01X76293Y176288D01*
G01X76342Y176314D01*
G01X76388Y176341D01*
G01X76433Y176371D01*
G01X76475Y176402D01*
G01X76515Y176436D01*
G01X76553Y176471D01*
G01X76588Y176507D01*
G01X76622Y176546D01*
G01X76653Y176586D01*
G01X76681Y176629D01*
G01X76707Y176672D01*
G01X76730Y176717D01*
G01X76752Y176765D01*
G01X76770Y176813D01*
G01X76785Y176864D01*
G01X76798Y176916D01*
G01X76809Y176969D01*
G01X76816Y177024D01*
G01X76820Y177081D01*
G01X76822Y177139D01*
G01X76820Y177200D01*
G01X76816Y177259D01*
G01X76809Y177316D01*
G01X76799Y177372D01*
G01X76786Y177425D01*
G01X76770Y177477D01*
G01X76751Y177527D01*
G01X76728Y177575D01*
G01X76702Y177623D01*
G01X76673Y177668D01*
G01X76640Y177713D01*
G01X76604Y177756D01*
G01X76564Y177798D01*
G01X76520Y177839D01*
G01X76472Y177879D01*
G01X76420Y177918D01*
G01X76365Y177957D01*
G01X76305Y177995D01*
G01X76241Y178032D01*
G01X76173Y178068D01*
G01X76101Y178104D01*
G01X76024Y178140D01*
G01X75942Y178175D01*
G01X75857Y178211D01*
G01X75646Y178292D01*
G01X75576Y178321D01*
G01X75510Y178351D01*
G01X75448Y178383D01*
G01X75390Y178416D01*
G01X75337Y178451D01*
G01X75288Y178488D01*
G01X75242Y178526D01*
G01X75202Y178567D01*
G01X75166Y178610D01*
G01X75135Y178655D01*
G01X75108Y178703D01*
G01X75086Y178754D01*
G01X75069Y178807D01*
G01X75057Y178863D01*
G01X75049Y178921D01*
G01X75046Y178983D01*
G01X75048Y179042D01*
G01X75055Y179098D01*
G01X75067Y179152D01*
G01X75082Y179203D01*
G01X75102Y179250D01*
G01X75126Y179295D01*
G01X75153Y179336D01*
G01X75185Y179375D01*
G01X75219Y179410D01*
G01X75257Y179443D01*
G01X75298Y179473D01*
G01X75342Y179499D01*
G01X75389Y179523D01*
G01X75439Y179543D01*
G01X75491Y179561D01*
G01X75546Y179575D01*
G01X75603Y179586D01*
G01X75662Y179594D01*
G01X75722Y179599D01*
G01X75785Y179600D01*
G01X75845Y179599D01*
G01X75902Y179594D01*
G01X75957Y179587D01*
G01X76011Y179575D01*
G01X76062Y179561D01*
G01X76114Y179542D01*
G01X76164Y179520D01*
G01X76215Y179494D01*
G01X76349Y178861D01*
G01X76624Y178861D01*
G01X76659Y179552D01*
G01X76615Y179583D01*
G01X76569Y179612D01*
G01X76523Y179640D01*
G01X76475Y179666D01*
G01X76426Y179691D01*
G01X76375Y179714D01*
G01X76323Y179735D01*
G01X76271Y179755D01*
G01X76216Y179772D01*
G01X76160Y179787D01*
G01X76102Y179801D01*
G01X76044Y179811D01*
G01X75983Y179820D01*
G01X75920Y179826D01*
G01X75856Y179830D01*
G37*

%LPD*%
G36*
G01X82118Y179804D02*
G01X81823Y179804D01*
G01X80258Y177568D01*
G01X80258Y177312D01*
G01X81691Y177312D01*
G01X81691Y176212D01*
G01X82118Y176212D01*
G01X82118Y177312D01*
G01X82677Y177312D01*
G01X82677Y177622D01*
G01X82118Y177622D01*
G01X82118Y179804D01*
G37*

%LPC*%
G36*
G01X81691Y177622D02*
G01X81691Y179306D01*
G01X80523Y177622D01*
G01X81691Y177622D01*
G37*

%LPD*%
G36*
G01X78656Y179750D02*
G01X77238Y179750D01*
G01X77238Y179565D01*
G01X77729Y179514D01*
G01X77732Y179340D01*
G01X77733Y179281D01*
G01X77734Y179223D01*
G01X77734Y179165D01*
G01X77735Y179107D01*
G01X77737Y178873D01*
G01X77737Y178814D01*
G01X77738Y178756D01*
G01X77738Y178521D01*
G01X77739Y178463D01*
G01X77739Y177495D01*
G01X77738Y177437D01*
G01X77738Y177203D01*
G01X77737Y177145D01*
G01X77737Y177087D01*
G01X77736Y176971D01*
G01X77736Y176913D01*
G01X77734Y176797D01*
G01X77734Y176738D01*
G01X77732Y176622D01*
G01X77731Y176565D01*
G01X77730Y176506D01*
G01X77729Y176448D01*
G01X77238Y176395D01*
G01X77238Y176212D01*
G01X78734Y176212D01*
G01X78734Y176395D01*
G01X78232Y176453D01*
G01X78228Y176573D01*
G01X78226Y176692D01*
G01X78225Y176751D01*
G01X78225Y176810D01*
G01X78224Y176868D01*
G01X78223Y176927D01*
G01X78223Y176986D01*
G01X78222Y177044D01*
G01X78222Y177218D01*
G01X78221Y177277D01*
G01X78221Y177627D01*
G01X78501Y177627D01*
G01X78588Y177628D01*
G01X78672Y177631D01*
G01X78754Y177637D01*
G01X78832Y177645D01*
G01X78908Y177654D01*
G01X78981Y177665D01*
G01X79051Y177679D01*
G01X79118Y177695D01*
G01X79182Y177712D01*
G01X79244Y177731D01*
G01X79303Y177752D01*
G01X79359Y177775D01*
G01X79413Y177800D01*
G01X79464Y177825D01*
G01X79513Y177853D01*
G01X79558Y177882D01*
G01X79602Y177912D01*
G01X79642Y177944D01*
G01X79681Y177977D01*
G01X79717Y178012D01*
G01X79750Y178047D01*
G01X79781Y178084D01*
G01X79810Y178123D01*
G01X79837Y178162D01*
G01X79861Y178202D01*
G01X79883Y178243D01*
G01X79902Y178286D01*
G01X79920Y178329D01*
G01X79935Y178373D01*
G01X79948Y178418D01*
G01X79959Y178463D01*
G01X79968Y178510D01*
G01X79975Y178557D01*
G01X79980Y178604D01*
G01X79983Y178652D01*
G01X79984Y178701D01*
G01X79983Y178760D01*
G01X79979Y178817D01*
G01X79972Y178872D01*
G01X79963Y178926D01*
G01X79952Y178980D01*
G01X79938Y179031D01*
G01X79921Y179081D01*
G01X79901Y179130D01*
G01X79879Y179177D01*
G01X79855Y179222D01*
G01X79828Y179267D01*
G01X79798Y179309D01*
G01X79766Y179349D01*
G01X79731Y179389D01*
G01X79694Y179426D01*
G01X79653Y179461D01*
G01X79611Y179495D01*
G01X79565Y179526D01*
G01X79517Y179556D01*
G01X79466Y179584D01*
G01X79414Y179610D01*
G01X79358Y179633D01*
G01X79299Y179655D01*
G01X79238Y179675D01*
G01X79175Y179692D01*
G01X79108Y179707D01*
G01X79039Y179720D01*
G01X78968Y179731D01*
G01X78894Y179739D01*
G01X78817Y179745D01*
G01X78737Y179749D01*
G01X78656Y179750D01*
G37*

%LPC*%
G36*
G01X78569Y179542D02*
G01X78232Y179542D01*
G01X78230Y179484D01*
G01X78225Y179189D01*
G01X78223Y178951D01*
G01X78222Y178831D01*
G01X78222Y178591D01*
G01X78221Y178532D01*
G01X78221Y177838D01*
G01X78559Y177838D01*
G01X78639Y177840D01*
G01X78716Y177845D01*
G01X78789Y177854D01*
G01X78857Y177866D01*
G01X78922Y177882D01*
G01X78982Y177901D01*
G01X79040Y177923D01*
G01X79093Y177948D01*
G01X79143Y177976D01*
G01X79189Y178007D01*
G01X79231Y178041D01*
G01X79270Y178078D01*
G01X79306Y178118D01*
G01X79338Y178159D01*
G01X79367Y178203D01*
G01X79393Y178251D01*
G01X79415Y178299D01*
G01X79434Y178351D01*
G01X79450Y178405D01*
G01X79463Y178460D01*
G01X79474Y178517D01*
G01X79481Y178577D01*
G01X79485Y178638D01*
G01X79486Y178701D01*
G01X79485Y178767D01*
G01X79480Y178830D01*
G01X79473Y178891D01*
G01X79462Y178950D01*
G01X79449Y179005D01*
G01X79432Y179059D01*
G01X79412Y179109D01*
G01X79389Y179157D01*
G01X79363Y179203D01*
G01X79333Y179245D01*
G01X79301Y179285D01*
G01X79265Y179322D01*
G01X79226Y179357D01*
G01X79183Y179389D01*
G01X79137Y179417D01*
G01X79088Y179443D01*
G01X79036Y179466D01*
G01X78979Y179486D01*
G01X78920Y179503D01*
G01X78857Y179517D01*
G01X78790Y179528D01*
G01X78720Y179536D01*
G01X78647Y179540D01*
G01X78569Y179542D01*
G37*

%LPD*%
G36*
G01X73995Y179750D02*
G01X71374Y179750D01*
G01X71374Y179565D01*
G01X71866Y179514D01*
G01X71868Y179398D01*
G01X71870Y179340D01*
G01X71870Y179281D01*
G01X71873Y179107D01*
G01X71875Y178873D01*
G01X71875Y178698D01*
G01X71876Y178639D01*
G01X71876Y177320D01*
G01X71875Y177262D01*
G01X71875Y177087D01*
G01X71874Y176971D01*
G01X71873Y176913D01*
G01X71873Y176855D01*
G01X71872Y176797D01*
G01X71871Y176738D01*
G01X71870Y176680D01*
G01X71870Y176622D01*
G01X71868Y176565D01*
G01X71867Y176506D01*
G01X71866Y176448D01*
G01X71374Y176395D01*
G01X71374Y176212D01*
G01X74096Y176212D01*
G01X74124Y177152D01*
G01X73863Y177152D01*
G01X73723Y176443D01*
G01X72369Y176443D01*
G01X72368Y176502D01*
G01X72367Y176560D01*
G01X72365Y176678D01*
G01X72364Y176738D01*
G01X72363Y176797D01*
G01X72362Y176975D01*
G01X72361Y177035D01*
G01X72361Y177095D01*
G01X72360Y177155D01*
G01X72360Y177400D01*
G01X72359Y177462D01*
G01X72359Y177906D01*
G01X73159Y177906D01*
G01X73233Y177396D01*
G01X73449Y177396D01*
G01X73449Y178640D01*
G01X73233Y178640D01*
G01X73154Y178120D01*
G01X72359Y178120D01*
G01X72359Y178534D01*
G01X72360Y178592D01*
G01X72360Y178826D01*
G01X72362Y179057D01*
G01X72363Y179115D01*
G01X72363Y179173D01*
G01X72365Y179287D01*
G01X72367Y179402D01*
G01X72368Y179459D01*
G01X72369Y179517D01*
G01X73621Y179517D01*
G01X73764Y178818D01*
G01X74023Y178818D01*
G01X73995Y179750D01*
G37*

%LPD*%
G01X47498Y215392D02*
G01X47498Y214302D01*
G01X47498Y215392D02*
G01X47965Y215392D01*
G01X48120Y215341D01*
G01X48173Y215290D01*
G01X48224Y215186D01*
G01X48224Y215082D01*
G01X48173Y214977D01*
G01X48120Y214924D01*
G01X47965Y214873D01*
G01X47498Y214873D01*
G01X47861Y214873D02*
G01X48224Y214302D01*
G01X48567Y215186D02*
G01X48671Y215237D01*
G01X48828Y215392D01*
G01X48828Y214302D01*
G01X49847Y215028D02*
G01X49794Y214873D01*
G01X49690Y214769D01*
G01X49535Y214718D01*
G01X49481Y214718D01*
G01X49326Y214769D01*
G01X49222Y214873D01*
G01X49171Y215028D01*
G01X49171Y215082D01*
G01X49222Y215237D01*
G01X49326Y215341D01*
G01X49481Y215392D01*
G01X49535Y215392D01*
G01X49690Y215341D01*
G01X49794Y215237D01*
G01X49847Y215028D01*
G01X49847Y214769D01*
G01X49794Y214510D01*
G01X49690Y214353D01*
G01X49535Y214302D01*
G01X49430Y214302D01*
G01X49276Y214353D01*
G01X49222Y214457D01*
G01X79502Y197866D02*
G01X79502Y196776D01*
G01X79502Y197866D02*
G01X79969Y197866D01*
G01X80124Y197815D01*
G01X80177Y197764D01*
G01X80228Y197660D01*
G01X80228Y197556D01*
G01X80177Y197451D01*
G01X80124Y197398D01*
G01X79969Y197347D01*
G01X79502Y197347D01*
G01X79865Y197347D02*
G01X80228Y196776D01*
G01X80624Y197606D02*
G01X80624Y197660D01*
G01X80675Y197764D01*
G01X80728Y197815D01*
G01X80832Y197866D01*
G01X81038Y197866D01*
G01X81142Y197815D01*
G01X81196Y197764D01*
G01X81246Y197660D01*
G01X81246Y197556D01*
G01X81196Y197451D01*
G01X81092Y197294D01*
G01X80571Y196776D01*
G01X81300Y196776D01*
G01X81953Y197866D02*
G01X81798Y197815D01*
G01X81694Y197660D01*
G01X81643Y197398D01*
G01X81643Y197243D01*
G01X81694Y196984D01*
G01X81798Y196827D01*
G01X81953Y196776D01*
G01X82057Y196776D01*
G01X82214Y196827D01*
G01X82318Y196984D01*
G01X82369Y197243D01*
G01X82369Y197398D01*
G01X82318Y197660D01*
G01X82214Y197815D01*
G01X82057Y197866D01*
G01X81953Y197866D01*
G01X95504Y192671D02*
G01X96593Y192671D01*
G01X95504Y192671D02*
G01X95504Y193139D01*
G01X95554Y193294D01*
G01X95605Y193347D01*
G01X95709Y193398D01*
G01X95813Y193398D01*
G01X95918Y193347D01*
G01X95971Y193294D01*
G01X96022Y193139D01*
G01X96022Y192671D01*
G01X96022Y193034D02*
G01X96593Y193398D01*
G01X95763Y193794D02*
G01X95709Y193794D01*
G01X95605Y193845D01*
G01X95554Y193898D01*
G01X95504Y194002D01*
G01X95504Y194208D01*
G01X95554Y194312D01*
G01X95605Y194365D01*
G01X95709Y194416D01*
G01X95813Y194416D01*
G01X95918Y194365D01*
G01X96075Y194261D01*
G01X96593Y193741D01*
G01X96593Y194470D01*
G01X95709Y194812D02*
G01X95658Y194917D01*
G01X95504Y195072D01*
G01X96593Y195072D01*
G01X18796Y315394D02*
G01X19885Y315394D01*
G01X18796Y315394D02*
G01X18796Y315861D01*
G01X18846Y316016D01*
G01X18897Y316069D01*
G01X19001Y316120D01*
G01X19105Y316120D01*
G01X19210Y316069D01*
G01X19263Y316016D01*
G01X19314Y315861D01*
G01X19314Y315394D01*
G01X19314Y315757D02*
G01X19885Y316120D01*
G01X19055Y316517D02*
G01X19001Y316517D01*
G01X18897Y316567D01*
G01X18846Y316621D01*
G01X18796Y316725D01*
G01X18796Y316931D01*
G01X18846Y317035D01*
G01X18897Y317088D01*
G01X19001Y317139D01*
G01X19105Y317139D01*
G01X19210Y317088D01*
G01X19367Y316984D01*
G01X19885Y316463D01*
G01X19885Y317192D01*
G01X18796Y318157D02*
G01X18796Y317639D01*
G01X19263Y317586D01*
G01X19210Y317639D01*
G01X19159Y317794D01*
G01X19159Y317949D01*
G01X19210Y318107D01*
G01X19314Y318211D01*
G01X19469Y318262D01*
G01X19573Y318262D01*
G01X19730Y318211D01*
G01X19834Y318107D01*
G01X19885Y317949D01*
G01X19885Y317794D01*
G01X19834Y317639D01*
G01X19781Y317586D01*
G01X19677Y317535D01*
G01X71882Y314706D02*
G01X71882Y313616D01*
G01X71882Y314706D02*
G01X72349Y314706D01*
G01X72504Y314655D01*
G01X72557Y314604D01*
G01X72608Y314500D01*
G01X72608Y314396D01*
G01X72557Y314291D01*
G01X72504Y314238D01*
G01X72349Y314187D01*
G01X71882Y314187D01*
G01X72245Y314187D02*
G01X72608Y313616D01*
G01X73004Y314446D02*
G01X73004Y314500D01*
G01X73055Y314604D01*
G01X73108Y314655D01*
G01X73212Y314706D01*
G01X73418Y314706D01*
G01X73522Y314655D01*
G01X73576Y314604D01*
G01X73626Y314500D01*
G01X73626Y314396D01*
G01X73576Y314291D01*
G01X73472Y314134D01*
G01X72951Y313616D01*
G01X73680Y313616D01*
G01X74645Y314551D02*
G01X74594Y314655D01*
G01X74437Y314706D01*
G01X74333Y314706D01*
G01X74178Y314655D01*
G01X74074Y314500D01*
G01X74023Y314238D01*
G01X74023Y313979D01*
G01X74074Y313771D01*
G01X74178Y313667D01*
G01X74333Y313616D01*
G01X74386Y313616D01*
G01X74541Y313667D01*
G01X74645Y313771D01*
G01X74698Y313928D01*
G01X74698Y313979D01*
G01X74645Y314134D01*
G01X74541Y314238D01*
G01X74386Y314291D01*
G01X74333Y314291D01*
G01X74178Y314238D01*
G01X74074Y314134D01*
G01X74023Y313979D01*
G01X116586Y323268D02*
G01X117675Y323268D01*
G01X116586Y323268D02*
G01X116586Y323735D01*
G01X116636Y323890D01*
G01X116687Y323943D01*
G01X116791Y323994D01*
G01X116895Y323994D01*
G01X117000Y323943D01*
G01X117053Y323890D01*
G01X117104Y323735D01*
G01X117104Y323268D01*
G01X117104Y323631D02*
G01X117675Y323994D01*
G01X116845Y324390D02*
G01X116791Y324390D01*
G01X116687Y324441D01*
G01X116636Y324495D01*
G01X116586Y324599D01*
G01X116586Y324805D01*
G01X116636Y324909D01*
G01X116687Y324962D01*
G01X116791Y325013D01*
G01X116895Y325013D01*
G01X117000Y324962D01*
G01X117157Y324858D01*
G01X117675Y324337D01*
G01X117675Y325066D01*
G01X116586Y326135D02*
G01X117675Y325617D01*
G01X116586Y325409D02*
G01X116586Y326135D01*
G01X61485Y183128D02*
G01X61432Y183233D01*
G01X61328Y183337D01*
G01X61226Y183388D01*
G01X61018Y183388D01*
G01X60914Y183337D01*
G01X60810Y183233D01*
G01X60756Y183128D01*
G01X60706Y182974D01*
G01X60706Y182714D01*
G01X60756Y182557D01*
G01X60810Y182453D01*
G01X60914Y182349D01*
G01X61018Y182298D01*
G01X61226Y182298D01*
G01X61328Y182349D01*
G01X61432Y182453D01*
G01X61485Y182557D01*
G01X62450Y183388D02*
G01X61932Y183388D01*
G01X61879Y182920D01*
G01X61932Y182974D01*
G01X62087Y183024D01*
G01X62242Y183024D01*
G01X62400Y182974D01*
G01X62504Y182869D01*
G01X62555Y182714D01*
G01X62555Y182610D01*
G01X62504Y182453D01*
G01X62400Y182349D01*
G01X62242Y182298D01*
G01X62087Y182298D01*
G01X61932Y182349D01*
G01X61879Y182402D01*
G01X61828Y182506D01*
G01X33530Y347454D02*
G01X33347Y347637D01*
G01X33075Y347725D01*
G01X32712Y347725D01*
G01X32440Y347637D01*
G01X32258Y347454D01*
G01X32258Y347273D01*
G01X32349Y347090D01*
G01X32440Y346999D01*
G01X32621Y346908D01*
G01X33167Y346727D01*
G01X33347Y346636D01*
G01X33439Y346544D01*
G01X33530Y346364D01*
G01X33530Y346090D01*
G01X33347Y345909D01*
G01X33075Y345818D01*
G01X32712Y345818D01*
G01X32440Y345909D01*
G01X32258Y346090D01*
G01X35313Y347090D02*
G01X35222Y346819D01*
G01X35039Y346636D01*
G01X34767Y346544D01*
G01X34676Y346544D01*
G01X34404Y346636D01*
G01X34221Y346819D01*
G01X34129Y347090D01*
G01X34129Y347182D01*
G01X34221Y347454D01*
G01X34404Y347637D01*
G01X34676Y347725D01*
G01X34767Y347725D01*
G01X35039Y347637D01*
G01X35222Y347454D01*
G01X35313Y347090D01*
G01X35313Y346636D01*
G01X35222Y346181D01*
G01X35039Y345909D01*
G01X34767Y345818D01*
G01X34584Y345818D01*
G01X34312Y345909D01*
G01X34221Y346090D01*
G01X85346Y345422D02*
G01X85163Y345605D01*
G01X84891Y345693D01*
G01X84528Y345693D01*
G01X84256Y345605D01*
G01X84074Y345422D01*
G01X84074Y345241D01*
G01X84165Y345058D01*
G01X84256Y344967D01*
G01X84437Y344876D01*
G01X84983Y344695D01*
G01X85163Y344604D01*
G01X85255Y344512D01*
G01X85346Y344332D01*
G01X85346Y344058D01*
G01X85163Y343877D01*
G01X84891Y343786D01*
G01X84528Y343786D01*
G01X84256Y343877D01*
G01X84074Y344058D01*
G01X85945Y345330D02*
G01X86128Y345422D01*
G01X86400Y345693D01*
G01X86400Y343786D01*
G01X87546Y345693D02*
G01X87274Y345605D01*
G01X87091Y345330D01*
G01X87000Y344876D01*
G01X87000Y344604D01*
G01X87091Y344149D01*
G01X87274Y343877D01*
G01X87546Y343786D01*
G01X87729Y343786D01*
G01X88000Y343877D01*
G01X88183Y344149D01*
G01X88275Y344604D01*
G01X88275Y344876D01*
G01X88183Y345330D01*
G01X88000Y345605D01*
G01X87729Y345693D01*
G01X87546Y345693D01*
G01X92712Y345422D02*
G01X92529Y345605D01*
G01X92257Y345693D01*
G01X91894Y345693D01*
G01X91622Y345605D01*
G01X91440Y345422D01*
G01X91440Y345241D01*
G01X91531Y345058D01*
G01X91622Y344967D01*
G01X91803Y344876D01*
G01X92349Y344695D01*
G01X92529Y344604D01*
G01X92621Y344512D01*
G01X92712Y344332D01*
G01X92712Y344058D01*
G01X92529Y343877D01*
G01X92257Y343786D01*
G01X91894Y343786D01*
G01X91622Y343877D01*
G01X91440Y344058D01*
G01X93311Y345330D02*
G01X93494Y345422D01*
G01X93766Y345693D01*
G01X93766Y343786D01*
G01X94366Y345330D02*
G01X94548Y345422D01*
G01X94820Y345693D01*
G01X94820Y343786D01*
G01X109278Y216898D02*
G01X109095Y216717D01*
G01X109006Y216443D01*
G01X109006Y216080D01*
G01X109095Y215808D01*
G01X109278Y215625D01*
G01X109458Y215625D01*
G01X109641Y215717D01*
G01X109733Y215808D01*
G01X109824Y215988D01*
G01X110004Y216534D01*
G01X110096Y216717D01*
G01X110187Y216806D01*
G01X110368Y216898D01*
G01X110642Y216898D01*
G01X110822Y216717D01*
G01X110914Y216443D01*
G01X110914Y216080D01*
G01X110822Y215808D01*
G01X110642Y215625D01*
G01X109006Y218589D02*
G01X109006Y217680D01*
G01X109824Y217589D01*
G01X109733Y217680D01*
G01X109641Y217952D01*
G01X109641Y218226D01*
G01X109733Y218498D01*
G01X109913Y218681D01*
G01X110187Y218770D01*
G01X110368Y218770D01*
G01X110642Y218681D01*
G01X110822Y218498D01*
G01X110914Y218226D01*
G01X110914Y217952D01*
G01X110822Y217680D01*
G01X110733Y217589D01*
G01X110550Y217497D01*
G01X76217Y223883D02*
G01X76164Y223987D01*
G01X76060Y224091D01*
G01X75958Y224142D01*
G01X75750Y224142D01*
G01X75646Y224091D01*
G01X75542Y223987D01*
G01X75488Y223883D01*
G01X75438Y223728D01*
G01X75438Y223469D01*
G01X75488Y223311D01*
G01X75542Y223207D01*
G01X75646Y223103D01*
G01X75750Y223052D01*
G01X75958Y223052D01*
G01X76060Y223103D01*
G01X76164Y223207D01*
G01X76217Y223311D01*
G01X76819Y224142D02*
G01X76664Y224091D01*
G01X76611Y223987D01*
G01X76611Y223883D01*
G01X76664Y223779D01*
G01X76768Y223728D01*
G01X76974Y223674D01*
G01X77132Y223624D01*
G01X77236Y223520D01*
G01X77287Y223415D01*
G01X77287Y223260D01*
G01X77236Y223156D01*
G01X77182Y223103D01*
G01X77028Y223052D01*
G01X76819Y223052D01*
G01X76664Y223103D01*
G01X76611Y223156D01*
G01X76560Y223260D01*
G01X76560Y223415D01*
G01X76611Y223520D01*
G01X76715Y223624D01*
G01X76873Y223674D01*
G01X77078Y223728D01*
G01X77182Y223779D01*
G01X77236Y223883D01*
G01X77236Y223987D01*
G01X77182Y224091D01*
G01X77028Y224142D01*
G01X76819Y224142D01*
G54D16*
G01X73728Y221234D02*
G01X73728Y219572D01*
G01X72898Y220403D02*
G01X74561Y220403D01*
G54D25*
G01X104665Y189732D02*
G01X104612Y189837D01*
G01X104508Y189941D01*
G01X104406Y189992D01*
G01X104198Y189992D01*
G01X104094Y189941D01*
G01X103990Y189837D01*
G01X103936Y189732D01*
G01X103886Y189577D01*
G01X103886Y189318D01*
G01X103936Y189161D01*
G01X103990Y189057D01*
G01X104094Y188953D01*
G01X104198Y188902D01*
G01X104406Y188902D01*
G01X104508Y188953D01*
G01X104612Y189057D01*
G01X104665Y189161D01*
G01X105008Y189786D02*
G01X105112Y189837D01*
G01X105267Y189992D01*
G01X105267Y188902D01*
G01X105923Y189992D02*
G01X105765Y189941D01*
G01X105664Y189786D01*
G01X105610Y189524D01*
G01X105610Y189369D01*
G01X105664Y189110D01*
G01X105765Y188953D01*
G01X105923Y188902D01*
G01X106027Y188902D01*
G01X106182Y188953D01*
G01X106286Y189110D01*
G01X106337Y189369D01*
G01X106337Y189524D01*
G01X106286Y189786D01*
G01X106182Y189941D01*
G01X106027Y189992D01*
G01X105923Y189992D01*
G54D16*
G01X105986Y188214D02*
G01X105986Y186552D01*
G01X105156Y187383D02*
G01X106819Y187383D01*
G54D25*
G01X62755Y186430D02*
G01X62702Y186535D01*
G01X62598Y186639D01*
G01X62496Y186690D01*
G01X62288Y186690D01*
G01X62184Y186639D01*
G01X62080Y186535D01*
G01X62026Y186430D01*
G01X61976Y186276D01*
G01X61976Y186016D01*
G01X62026Y185859D01*
G01X62080Y185755D01*
G01X62184Y185651D01*
G01X62288Y185600D01*
G01X62496Y185600D01*
G01X62598Y185651D01*
G01X62702Y185755D01*
G01X62755Y185859D01*
G01X63720Y186535D02*
G01X63670Y186639D01*
G01X63512Y186690D01*
G01X63411Y186690D01*
G01X63253Y186639D01*
G01X63149Y186484D01*
G01X63098Y186222D01*
G01X63098Y185963D01*
G01X63149Y185755D01*
G01X63253Y185651D01*
G01X63411Y185600D01*
G01X63461Y185600D01*
G01X63616Y185651D01*
G01X63720Y185755D01*
G01X63774Y185912D01*
G01X63774Y185963D01*
G01X63720Y186118D01*
G01X63616Y186222D01*
G01X63461Y186276D01*
G01X63411Y186276D01*
G01X63253Y186222D01*
G01X63149Y186118D01*
G01X63098Y185963D01*
G54D16*
G01X56202Y191262D02*
G01X56202Y189600D01*
G01X55372Y190431D02*
G01X57035Y190431D01*

%LPD*%
G36*
G01X38014Y183644D02*
G01X37948Y183646D01*
G01X37878Y183644D01*
G01X37808Y183640D01*
G01X37739Y183633D01*
G01X37673Y183624D01*
G01X37608Y183612D01*
G01X37544Y183597D01*
G01X37482Y183580D01*
G01X37422Y183560D01*
G01X37365Y183538D01*
G01X37309Y183513D01*
G01X37255Y183486D01*
G01X37204Y183456D01*
G01X37155Y183424D01*
G01X37108Y183390D01*
G01X37065Y183353D01*
G01X37024Y183314D01*
G01X36985Y183273D01*
G01X36949Y183229D01*
G01X36916Y183183D01*
G01X36886Y183135D01*
G01X36860Y183085D01*
G01X36837Y183032D01*
G01X36817Y182978D01*
G01X36800Y182922D01*
G01X36787Y182863D01*
G01X36778Y182802D01*
G01X36772Y182740D01*
G01X36770Y182675D01*
G01X36772Y182610D01*
G01X36777Y182547D01*
G01X36786Y182486D01*
G01X36799Y182428D01*
G01X36815Y182372D01*
G01X36835Y182317D01*
G01X36857Y182265D01*
G01X36884Y182215D01*
G01X36913Y182166D01*
G01X36945Y182119D01*
G01X36981Y182074D01*
G01X37019Y182031D01*
G01X37060Y181989D01*
G01X37104Y181948D01*
G01X37151Y181910D01*
G01X37200Y181873D01*
G01X37252Y181837D01*
G01X37307Y181802D01*
G01X37363Y181769D01*
G01X37423Y181737D01*
G01X37484Y181706D01*
G01X37548Y181676D01*
G01X37614Y181647D01*
G01X37681Y181619D01*
G01X37880Y181537D01*
G01X37965Y181502D01*
G01X38044Y181467D01*
G01X38117Y181433D01*
G01X38183Y181397D01*
G01X38243Y181362D01*
G01X38298Y181325D01*
G01X38346Y181287D01*
G01X38390Y181247D01*
G01X38427Y181206D01*
G01X38459Y181162D01*
G01X38486Y181117D01*
G01X38508Y181068D01*
G01X38524Y181017D01*
G01X38536Y180962D01*
G01X38543Y180903D01*
G01X38545Y180841D01*
G01X38543Y180778D01*
G01X38535Y180718D01*
G01X38523Y180662D01*
G01X38506Y180608D01*
G01X38485Y180557D01*
G01X38460Y180509D01*
G01X38430Y180464D01*
G01X38396Y180423D01*
G01X38357Y180385D01*
G01X38315Y180350D01*
G01X38269Y180318D01*
G01X38219Y180290D01*
G01X38166Y180264D01*
G01X38109Y180242D01*
G01X38049Y180224D01*
G01X37986Y180208D01*
G01X37919Y180196D01*
G01X37850Y180188D01*
G01X37777Y180183D01*
G01X37702Y180181D01*
G01X37619Y180183D01*
G01X37543Y180188D01*
G01X37471Y180198D01*
G01X37402Y180211D01*
G01X37336Y180229D01*
G01X37272Y180252D01*
G01X37209Y180279D01*
G01X37145Y180311D01*
G01X37011Y180971D01*
G01X36742Y180971D01*
G01X36706Y180229D01*
G01X36753Y180200D01*
G01X36803Y180172D01*
G01X36856Y180146D01*
G01X36912Y180120D01*
G01X36971Y180096D01*
G01X37032Y180072D01*
G01X37095Y180051D01*
G01X37161Y180031D01*
G01X37228Y180013D01*
G01X37297Y179997D01*
G01X37367Y179983D01*
G01X37439Y179972D01*
G01X37512Y179962D01*
G01X37585Y179955D01*
G01X37660Y179951D01*
G01X37735Y179950D01*
G01X37803Y179951D01*
G01X37870Y179954D01*
G01X37935Y179960D01*
G01X37999Y179967D01*
G01X38061Y179977D01*
G01X38122Y179988D01*
G01X38182Y180002D01*
G01X38239Y180018D01*
G01X38295Y180036D01*
G01X38349Y180056D01*
G01X38401Y180078D01*
G01X38452Y180102D01*
G01X38500Y180128D01*
G01X38546Y180155D01*
G01X38590Y180185D01*
G01X38632Y180216D01*
G01X38673Y180249D01*
G01X38711Y180284D01*
G01X38746Y180321D01*
G01X38779Y180360D01*
G01X38810Y180400D01*
G01X38839Y180442D01*
G01X38865Y180486D01*
G01X38888Y180532D01*
G01X38909Y180579D01*
G01X38928Y180628D01*
G01X38943Y180678D01*
G01X38956Y180730D01*
G01X38966Y180783D01*
G01X38974Y180838D01*
G01X38978Y180895D01*
G01X38979Y180953D01*
G01X38978Y181014D01*
G01X38974Y181073D01*
G01X38967Y181130D01*
G01X38957Y181186D01*
G01X38944Y181239D01*
G01X38928Y181291D01*
G01X38909Y181341D01*
G01X38886Y181390D01*
G01X38860Y181436D01*
G01X38831Y181482D01*
G01X38798Y181527D01*
G01X38762Y181570D01*
G01X38722Y181612D01*
G01X38678Y181653D01*
G01X38630Y181693D01*
G01X38579Y181732D01*
G01X38523Y181771D01*
G01X38463Y181809D01*
G01X38399Y181846D01*
G01X38331Y181882D01*
G01X38259Y181918D01*
G01X38182Y181954D01*
G01X38101Y181989D01*
G01X38014Y182025D01*
G01X37803Y182106D01*
G01X37734Y182135D01*
G01X37668Y182165D01*
G01X37606Y182197D01*
G01X37548Y182230D01*
G01X37494Y182265D01*
G01X37445Y182301D01*
G01X37400Y182340D01*
G01X37360Y182381D01*
G01X37324Y182424D01*
G01X37293Y182470D01*
G01X37266Y182517D01*
G01X37244Y182568D01*
G01X37227Y182620D01*
G01X37214Y182676D01*
G01X37206Y182735D01*
G01X37204Y182797D01*
G01X37206Y182856D01*
G01X37214Y182913D01*
G01X37225Y182966D01*
G01X37240Y183016D01*
G01X37260Y183064D01*
G01X37284Y183109D01*
G01X37311Y183150D01*
G01X37342Y183189D01*
G01X37377Y183224D01*
G01X37415Y183257D01*
G01X37456Y183287D01*
G01X37500Y183313D01*
G01X37547Y183337D01*
G01X37597Y183357D01*
G01X37649Y183375D01*
G01X37703Y183389D01*
G01X37761Y183400D01*
G01X37820Y183408D01*
G01X37881Y183412D01*
G01X37943Y183414D01*
G01X38003Y183413D01*
G01X38060Y183408D01*
G01X38115Y183401D01*
G01X38169Y183390D01*
G01X38220Y183375D01*
G01X38272Y183357D01*
G01X38322Y183334D01*
G01X38372Y183308D01*
G01X38507Y182675D01*
G01X38781Y182675D01*
G01X38817Y183366D01*
G01X38773Y183397D01*
G01X38727Y183426D01*
G01X38681Y183454D01*
G01X38633Y183480D01*
G01X38584Y183505D01*
G01X38533Y183528D01*
G01X38482Y183549D01*
G01X38428Y183568D01*
G01X38374Y183586D01*
G01X38318Y183601D01*
G01X38261Y183614D01*
G01X38201Y183625D01*
G01X38141Y183634D01*
G01X38078Y183640D01*
G01X38014Y183644D01*
G37*

%LPD*%
G36*
G01X43665Y183633D02*
G01X43589Y183635D01*
G01X43529Y183634D01*
G01X43470Y183630D01*
G01X43411Y183625D01*
G01X43354Y183617D01*
G01X43297Y183606D01*
G01X43242Y183593D01*
G01X43189Y183579D01*
G01X43137Y183561D01*
G01X43088Y183541D01*
G01X43039Y183519D01*
G01X42993Y183494D01*
G01X42948Y183467D01*
G01X42905Y183438D01*
G01X42865Y183406D01*
G01X42826Y183372D01*
G01X42790Y183335D01*
G01X42757Y183296D01*
G01X42726Y183255D01*
G01X42698Y183211D01*
G01X42672Y183164D01*
G01X42649Y183116D01*
G01X42629Y183064D01*
G01X42613Y183011D01*
G01X42599Y182955D01*
G01X42642Y182869D01*
G01X42698Y182812D01*
G01X42766Y182781D01*
G01X42845Y182772D01*
G01X42905Y182776D01*
G01X42956Y182791D01*
G01X43000Y182815D01*
G01X43037Y182850D01*
G01X43070Y182894D01*
G01X43098Y182950D01*
G01X43123Y183015D01*
G01X43145Y183092D01*
G01X43231Y183399D01*
G01X43302Y183414D01*
G01X43368Y183423D01*
G01X43430Y183426D01*
G01X43488Y183427D01*
G01X43549Y183425D01*
G01X43607Y183420D01*
G01X43663Y183411D01*
G01X43715Y183399D01*
G01X43765Y183383D01*
G01X43812Y183364D01*
G01X43856Y183341D01*
G01X43898Y183315D01*
G01X43936Y183285D01*
G01X43971Y183252D01*
G01X44003Y183217D01*
G01X44032Y183177D01*
G01X44058Y183135D01*
G01X44080Y183089D01*
G01X44099Y183040D01*
G01X44115Y182988D01*
G01X44127Y182933D01*
G01X44136Y182874D01*
G01X44142Y182813D01*
G01X44143Y182749D01*
G01X44141Y182679D01*
G01X44135Y182613D01*
G01X44123Y182549D01*
G01X44109Y182489D01*
G01X44089Y182433D01*
G01X44066Y182380D01*
G01X44039Y182330D01*
G01X44008Y182283D01*
G01X43973Y182240D01*
G01X43934Y182201D01*
G01X43893Y182165D01*
G01X43847Y182133D01*
G01X43798Y182104D01*
G01X43746Y182079D01*
G01X43691Y182058D01*
G01X43633Y182041D01*
G01X43572Y182027D01*
G01X43508Y182017D01*
G01X43441Y182011D01*
G01X43371Y182010D01*
G01X43165Y182010D01*
G01X43165Y181774D01*
G01X43414Y181774D01*
G01X43481Y181772D01*
G01X43545Y181767D01*
G01X43606Y181759D01*
G01X43665Y181748D01*
G01X43721Y181734D01*
G01X43773Y181717D01*
G01X43823Y181697D01*
G01X43870Y181675D01*
G01X43914Y181649D01*
G01X43955Y181621D01*
G01X43994Y181590D01*
G01X44029Y181557D01*
G01X44062Y181521D01*
G01X44092Y181482D01*
G01X44119Y181441D01*
G01X44144Y181398D01*
G01X44165Y181352D01*
G01X44183Y181304D01*
G01X44199Y181254D01*
G01X44212Y181201D01*
G01X44222Y181147D01*
G01X44229Y181090D01*
G01X44234Y181031D01*
G01X44235Y180971D01*
G01X44233Y180912D01*
G01X44229Y180855D01*
G01X44221Y180799D01*
G01X44211Y180745D01*
G01X44198Y180693D01*
G01X44182Y180643D01*
G01X44163Y180595D01*
G01X44141Y180548D01*
G01X44117Y180505D01*
G01X44089Y180463D01*
G01X44059Y180423D01*
G01X44027Y180387D01*
G01X43992Y180352D01*
G01X43954Y180320D01*
G01X43914Y180291D01*
G01X43870Y180264D01*
G01X43825Y180241D01*
G01X43777Y180220D01*
G01X43727Y180202D01*
G01X43674Y180187D01*
G01X43619Y180176D01*
G01X43562Y180167D01*
G01X43502Y180162D01*
G01X43440Y180161D01*
G01X43366Y180163D01*
G01X43291Y180169D01*
G01X43214Y180181D01*
G01X43135Y180199D01*
G01X43048Y180514D01*
G01X43025Y180598D01*
G01X43000Y180670D01*
G01X42972Y180730D01*
G01X42941Y180778D01*
G01X42905Y180815D01*
G01X42864Y180841D01*
G01X42816Y180857D01*
G01X42759Y180862D01*
G01X42680Y180852D01*
G01X42611Y180820D01*
G01X42552Y180767D01*
G01X42502Y180692D01*
G01X42516Y180629D01*
G01X42533Y180570D01*
G01X42552Y180513D01*
G01X42574Y180460D01*
G01X42600Y180409D01*
G01X42628Y180361D01*
G01X42658Y180316D01*
G01X42691Y180274D01*
G01X42727Y180235D01*
G01X42765Y180198D01*
G01X42806Y180164D01*
G01X42848Y180133D01*
G01X42893Y180104D01*
G01X42941Y180078D01*
G01X42990Y180055D01*
G01X43041Y180034D01*
G01X43094Y180016D01*
G01X43150Y180000D01*
G01X43206Y179987D01*
G01X43265Y179976D01*
G01X43325Y179968D01*
G01X43387Y179962D01*
G01X43451Y179959D01*
G01X43516Y179957D01*
G01X43581Y179959D01*
G01X43646Y179962D01*
G01X43708Y179968D01*
G01X43770Y179977D01*
G01X43829Y179987D01*
G01X43888Y180001D01*
G01X43944Y180015D01*
G01X43999Y180033D01*
G01X44052Y180052D01*
G01X44104Y180074D01*
G01X44153Y180097D01*
G01X44201Y180123D01*
G01X44247Y180150D01*
G01X44290Y180179D01*
G01X44333Y180210D01*
G01X44373Y180243D01*
G01X44410Y180278D01*
G01X44446Y180314D01*
G01X44480Y180351D01*
G01X44511Y180390D01*
G01X44540Y180431D01*
G01X44567Y180473D01*
G01X44592Y180517D01*
G01X44614Y180561D01*
G01X44634Y180608D01*
G01X44651Y180655D01*
G01X44665Y180704D01*
G01X44678Y180754D01*
G01X44687Y180804D01*
G01X44694Y180856D01*
G01X44698Y180909D01*
G01X44699Y180963D01*
G01X44698Y181022D01*
G01X44694Y181079D01*
G01X44687Y181135D01*
G01X44677Y181188D01*
G01X44664Y181241D01*
G01X44648Y181293D01*
G01X44629Y181342D01*
G01X44607Y181391D01*
G01X44583Y181437D01*
G01X44555Y181481D01*
G01X44524Y181524D01*
G01X44491Y181565D01*
G01X44454Y181604D01*
G01X44413Y181641D01*
G01X44371Y181676D01*
G01X44325Y181709D01*
G01X44275Y181740D01*
G01X44223Y181769D01*
G01X44167Y181795D01*
G01X44109Y181820D01*
G01X44047Y181842D01*
G01X43981Y181861D01*
G01X43913Y181878D01*
G01X43841Y181893D01*
G01X43912Y181916D01*
G01X43979Y181943D01*
G01X44043Y181972D01*
G01X44103Y182003D01*
G01X44160Y182037D01*
G01X44214Y182072D01*
G01X44265Y182110D01*
G01X44311Y182151D01*
G01X44355Y182193D01*
G01X44395Y182237D01*
G01X44431Y182283D01*
G01X44463Y182331D01*
G01X44492Y182381D01*
G01X44518Y182432D01*
G01X44539Y182485D01*
G01X44556Y182540D01*
G01X44570Y182596D01*
G01X44580Y182653D01*
G01X44586Y182711D01*
G01X44588Y182772D01*
G01X44586Y182835D01*
G01X44580Y182897D01*
G01X44570Y182957D01*
G01X44557Y183015D01*
G01X44539Y183071D01*
G01X44518Y183124D01*
G01X44493Y183176D01*
G01X44465Y183224D01*
G01X44433Y183271D01*
G01X44398Y183316D01*
G01X44360Y183358D01*
G01X44318Y183397D01*
G01X44274Y183433D01*
G01X44225Y183467D01*
G01X44175Y183498D01*
G01X44120Y183526D01*
G01X44063Y183551D01*
G01X44004Y183573D01*
G01X43942Y183592D01*
G01X43876Y183607D01*
G01X43808Y183619D01*
G01X43738Y183628D01*
G01X43665Y183633D01*
G37*

%LPD*%
G36*
G01X40813Y183564D02*
G01X39396Y183564D01*
G01X39396Y183379D01*
G01X39886Y183328D01*
G01X39888Y183270D01*
G01X39889Y183212D01*
G01X39890Y183153D01*
G01X39892Y183037D01*
G01X39892Y182979D01*
G01X39893Y182921D01*
G01X39894Y182862D01*
G01X39894Y182745D01*
G01X39895Y182629D01*
G01X39896Y182570D01*
G01X39896Y181017D01*
G01X39895Y180959D01*
G01X39894Y180843D01*
G01X39894Y180727D01*
G01X39893Y180669D01*
G01X39892Y180610D01*
G01X39892Y180552D01*
G01X39888Y180320D01*
G01X39886Y180262D01*
G01X39396Y180209D01*
G01X39396Y180026D01*
G01X40892Y180026D01*
G01X40892Y180209D01*
G01X40389Y180267D01*
G01X40386Y180447D01*
G01X40382Y180623D01*
G01X40382Y180682D01*
G01X40380Y180916D01*
G01X40380Y180974D01*
G01X40379Y181032D01*
G01X40379Y181441D01*
G01X40658Y181441D01*
G01X40746Y181442D01*
G01X40831Y181445D01*
G01X40912Y181450D01*
G01X40991Y181458D01*
G01X41066Y181468D01*
G01X41139Y181479D01*
G01X41209Y181493D01*
G01X41276Y181508D01*
G01X41341Y181526D01*
G01X41402Y181545D01*
G01X41461Y181566D01*
G01X41517Y181589D01*
G01X41571Y181613D01*
G01X41622Y181639D01*
G01X41670Y181666D01*
G01X41716Y181695D01*
G01X41760Y181726D01*
G01X41800Y181758D01*
G01X41838Y181791D01*
G01X41874Y181825D01*
G01X41908Y181861D01*
G01X41939Y181899D01*
G01X41968Y181937D01*
G01X41994Y181976D01*
G01X42019Y182016D01*
G01X42041Y182058D01*
G01X42060Y182100D01*
G01X42078Y182143D01*
G01X42093Y182187D01*
G01X42106Y182232D01*
G01X42117Y182278D01*
G01X42126Y182324D01*
G01X42133Y182370D01*
G01X42138Y182418D01*
G01X42141Y182466D01*
G01X42142Y182515D01*
G01X42141Y182573D01*
G01X42137Y182630D01*
G01X42130Y182686D01*
G01X42121Y182740D01*
G01X42110Y182793D01*
G01X42095Y182845D01*
G01X42079Y182895D01*
G01X42059Y182944D01*
G01X42038Y182991D01*
G01X42013Y183036D01*
G01X41986Y183080D01*
G01X41956Y183123D01*
G01X41924Y183163D01*
G01X41889Y183202D01*
G01X41851Y183240D01*
G01X41811Y183275D01*
G01X41768Y183308D01*
G01X41723Y183340D01*
G01X41675Y183370D01*
G01X41625Y183398D01*
G01X41571Y183424D01*
G01X41515Y183447D01*
G01X41457Y183469D01*
G01X41396Y183489D01*
G01X41332Y183506D01*
G01X41266Y183521D01*
G01X41197Y183534D01*
G01X41126Y183544D01*
G01X41051Y183553D01*
G01X40975Y183559D01*
G01X40896Y183563D01*
G01X40813Y183564D01*
G37*

%LPC*%
G36*
G01X40727Y183356D02*
G01X40389Y183356D01*
G01X40388Y183297D01*
G01X40387Y183239D01*
G01X40384Y183062D01*
G01X40383Y183002D01*
G01X40383Y182944D01*
G01X40381Y182824D01*
G01X40381Y182705D01*
G01X40380Y182585D01*
G01X40380Y182465D01*
G01X40379Y182405D01*
G01X40379Y181652D01*
G01X40717Y181652D01*
G01X40797Y181653D01*
G01X40874Y181659D01*
G01X40946Y181667D01*
G01X41015Y181680D01*
G01X41079Y181696D01*
G01X41140Y181715D01*
G01X41197Y181737D01*
G01X41251Y181762D01*
G01X41300Y181790D01*
G01X41347Y181821D01*
G01X41389Y181855D01*
G01X41428Y181892D01*
G01X41464Y181931D01*
G01X41496Y181973D01*
G01X41525Y182017D01*
G01X41550Y182064D01*
G01X41573Y182113D01*
G01X41592Y182165D01*
G01X41608Y182218D01*
G01X41621Y182274D01*
G01X41631Y182331D01*
G01X41638Y182391D01*
G01X41643Y182452D01*
G01X41644Y182515D01*
G01X41643Y182581D01*
G01X41638Y182644D01*
G01X41631Y182705D01*
G01X41620Y182763D01*
G01X41606Y182819D01*
G01X41589Y182872D01*
G01X41570Y182923D01*
G01X41547Y182971D01*
G01X41521Y183017D01*
G01X41491Y183059D01*
G01X41458Y183099D01*
G01X41423Y183137D01*
G01X41384Y183171D01*
G01X41341Y183203D01*
G01X41295Y183231D01*
G01X41246Y183257D01*
G01X41193Y183280D01*
G01X41137Y183300D01*
G01X41078Y183317D01*
G01X41014Y183331D01*
G01X40948Y183342D01*
G01X40878Y183349D01*
G01X40805Y183354D01*
G01X40727Y183356D01*
G37*

%LPD*%
G36*
G01X36152Y183564D02*
G01X33531Y183564D01*
G01X33531Y183379D01*
G01X34024Y183328D01*
G01X34026Y183212D01*
G01X34027Y183153D01*
G01X34030Y182979D01*
G01X34030Y182921D01*
G01X34031Y182862D01*
G01X34032Y182804D01*
G01X34032Y182745D01*
G01X34033Y182629D01*
G01X34033Y182453D01*
G01X34034Y182394D01*
G01X34034Y181192D01*
G01X34033Y181134D01*
G01X34033Y180959D01*
G01X34032Y180843D01*
G01X34032Y180785D01*
G01X34030Y180669D01*
G01X34030Y180610D01*
G01X34024Y180262D01*
G01X33531Y180209D01*
G01X33531Y180026D01*
G01X36254Y180026D01*
G01X36282Y180966D01*
G01X36020Y180966D01*
G01X35881Y180257D01*
G01X34527Y180257D01*
G01X34526Y180316D01*
G01X34522Y180551D01*
G01X34521Y180611D01*
G01X34521Y180670D01*
G01X34520Y180730D01*
G01X34519Y180789D01*
G01X34519Y180909D01*
G01X34518Y181030D01*
G01X34518Y181152D01*
G01X34517Y181214D01*
G01X34517Y181720D01*
G01X35317Y181720D01*
G01X35390Y181210D01*
G01X35606Y181210D01*
G01X35606Y182454D01*
G01X35390Y182454D01*
G01X35312Y181934D01*
G01X34517Y181934D01*
G01X34517Y182406D01*
G01X34518Y182464D01*
G01X34518Y182640D01*
G01X34519Y182698D01*
G01X34519Y182813D01*
G01X34521Y182929D01*
G01X34521Y182986D01*
G01X34522Y183044D01*
G01X34524Y183159D01*
G01X34525Y183216D01*
G01X34527Y183331D01*
G01X35779Y183331D01*
G01X35921Y182632D01*
G01X36180Y182632D01*
G01X36152Y183564D01*
G37*

%LPD*%

%LPD*%
G36*
G01X113702Y231138D02*
G01X113637Y231140D01*
G01X113565Y231138D01*
G01X113496Y231134D01*
G01X113428Y231127D01*
G01X113361Y231118D01*
G01X113296Y231106D01*
G01X113232Y231091D01*
G01X113171Y231074D01*
G01X113111Y231054D01*
G01X113053Y231032D01*
G01X112997Y231007D01*
G01X112944Y230980D01*
G01X112892Y230951D01*
G01X112843Y230919D01*
G01X112797Y230884D01*
G01X112753Y230847D01*
G01X112711Y230808D01*
G01X112673Y230767D01*
G01X112637Y230723D01*
G01X112604Y230677D01*
G01X112575Y230629D01*
G01X112548Y230579D01*
G01X112525Y230527D01*
G01X112505Y230472D01*
G01X112488Y230416D01*
G01X112475Y230357D01*
G01X112466Y230296D01*
G01X112460Y230234D01*
G01X112458Y230169D01*
G01X112460Y230104D01*
G01X112465Y230041D01*
G01X112475Y229980D01*
G01X112487Y229922D01*
G01X112503Y229865D01*
G01X112523Y229811D01*
G01X112546Y229759D01*
G01X112572Y229708D01*
G01X112601Y229660D01*
G01X112633Y229613D01*
G01X112669Y229568D01*
G01X112707Y229525D01*
G01X112749Y229483D01*
G01X112792Y229443D01*
G01X112839Y229404D01*
G01X112888Y229367D01*
G01X112941Y229331D01*
G01X112995Y229296D01*
G01X113052Y229263D01*
G01X113111Y229230D01*
G01X113172Y229199D01*
G01X113236Y229169D01*
G01X113302Y229141D01*
G01X113370Y229113D01*
G01X113568Y229031D01*
G01X113653Y228996D01*
G01X113732Y228962D01*
G01X113805Y228927D01*
G01X113871Y228892D01*
G01X113932Y228856D01*
G01X113986Y228819D01*
G01X114035Y228781D01*
G01X114078Y228741D01*
G01X114115Y228700D01*
G01X114148Y228656D01*
G01X114174Y228611D01*
G01X114196Y228562D01*
G01X114213Y228511D01*
G01X114224Y228456D01*
G01X114231Y228398D01*
G01X114233Y228335D01*
G01X114231Y228272D01*
G01X114224Y228212D01*
G01X114212Y228156D01*
G01X114195Y228102D01*
G01X114174Y228051D01*
G01X114148Y228004D01*
G01X114118Y227959D01*
G01X114084Y227917D01*
G01X114046Y227879D01*
G01X114003Y227844D01*
G01X113957Y227812D01*
G01X113907Y227784D01*
G01X113854Y227758D01*
G01X113798Y227736D01*
G01X113737Y227718D01*
G01X113674Y227702D01*
G01X113607Y227690D01*
G01X113538Y227682D01*
G01X113465Y227676D01*
G01X113390Y227675D01*
G01X113307Y227677D01*
G01X113231Y227682D01*
G01X113159Y227692D01*
G01X113090Y227705D01*
G01X113024Y227723D01*
G01X112960Y227746D01*
G01X112897Y227772D01*
G01X112834Y227804D01*
G01X112699Y228465D01*
G01X112430Y228465D01*
G01X112395Y227723D01*
G01X112441Y227695D01*
G01X112492Y227667D01*
G01X112544Y227640D01*
G01X112601Y227614D01*
G01X112659Y227590D01*
G01X112720Y227567D01*
G01X112784Y227545D01*
G01X112849Y227526D01*
G01X112916Y227507D01*
G01X112985Y227492D01*
G01X113055Y227477D01*
G01X113127Y227466D01*
G01X113200Y227457D01*
G01X113274Y227449D01*
G01X113348Y227445D01*
G01X113423Y227444D01*
G01X113491Y227445D01*
G01X113558Y227448D01*
G01X113623Y227453D01*
G01X113687Y227461D01*
G01X113750Y227471D01*
G01X113811Y227482D01*
G01X113870Y227497D01*
G01X113927Y227512D01*
G01X113983Y227530D01*
G01X114037Y227550D01*
G01X114089Y227572D01*
G01X114139Y227596D01*
G01X114188Y227622D01*
G01X114234Y227649D01*
G01X114279Y227679D01*
G01X114321Y227710D01*
G01X114361Y227744D01*
G01X114399Y227779D01*
G01X114434Y227815D01*
G01X114468Y227854D01*
G01X114499Y227894D01*
G01X114527Y227937D01*
G01X114553Y227980D01*
G01X114576Y228025D01*
G01X114598Y228073D01*
G01X114616Y228121D01*
G01X114631Y228172D01*
G01X114644Y228224D01*
G01X114655Y228277D01*
G01X114662Y228332D01*
G01X114666Y228389D01*
G01X114668Y228447D01*
G01X114666Y228508D01*
G01X114662Y228567D01*
G01X114655Y228624D01*
G01X114645Y228680D01*
G01X114632Y228733D01*
G01X114616Y228785D01*
G01X114597Y228835D01*
G01X114574Y228883D01*
G01X114548Y228931D01*
G01X114519Y228976D01*
G01X114486Y229021D01*
G01X114450Y229064D01*
G01X114410Y229106D01*
G01X114366Y229147D01*
G01X114318Y229187D01*
G01X114266Y229226D01*
G01X114211Y229265D01*
G01X114151Y229303D01*
G01X114087Y229340D01*
G01X114019Y229376D01*
G01X113947Y229412D01*
G01X113870Y229448D01*
G01X113788Y229483D01*
G01X113703Y229519D01*
G01X113492Y229600D01*
G01X113422Y229629D01*
G01X113356Y229659D01*
G01X113294Y229691D01*
G01X113236Y229724D01*
G01X113183Y229759D01*
G01X113134Y229796D01*
G01X113088Y229834D01*
G01X113048Y229875D01*
G01X113012Y229918D01*
G01X112981Y229963D01*
G01X112954Y230011D01*
G01X112932Y230062D01*
G01X112915Y230115D01*
G01X112903Y230171D01*
G01X112895Y230229D01*
G01X112892Y230291D01*
G01X112894Y230350D01*
G01X112901Y230406D01*
G01X112913Y230460D01*
G01X112928Y230511D01*
G01X112948Y230558D01*
G01X112972Y230603D01*
G01X112999Y230644D01*
G01X113031Y230683D01*
G01X113065Y230718D01*
G01X113103Y230751D01*
G01X113144Y230781D01*
G01X113188Y230807D01*
G01X113235Y230831D01*
G01X113285Y230851D01*
G01X113337Y230869D01*
G01X113392Y230883D01*
G01X113449Y230894D01*
G01X113508Y230902D01*
G01X113568Y230907D01*
G01X113631Y230908D01*
G01X113691Y230907D01*
G01X113748Y230902D01*
G01X113803Y230895D01*
G01X113857Y230883D01*
G01X113908Y230869D01*
G01X113960Y230850D01*
G01X114010Y230828D01*
G01X114061Y230802D01*
G01X114195Y230169D01*
G01X114470Y230169D01*
G01X114505Y230860D01*
G01X114461Y230891D01*
G01X114415Y230920D01*
G01X114369Y230948D01*
G01X114321Y230974D01*
G01X114272Y230999D01*
G01X114221Y231022D01*
G01X114169Y231043D01*
G01X114117Y231063D01*
G01X114062Y231080D01*
G01X114006Y231095D01*
G01X113948Y231109D01*
G01X113890Y231119D01*
G01X113829Y231128D01*
G01X113766Y231134D01*
G01X113702Y231138D01*
G37*

%LPD*%
G36*
G01X120286Y231058D02*
G01X118559Y231058D01*
G01X118447Y229407D01*
G01X118582Y229369D01*
G01X118646Y229386D01*
G01X118710Y229400D01*
G01X118774Y229411D01*
G01X118838Y229420D01*
G01X118901Y229427D01*
G01X118965Y229432D01*
G01X119027Y229434D01*
G01X119090Y229435D01*
G01X119152Y229434D01*
G01X119212Y229429D01*
G01X119271Y229421D01*
G01X119327Y229410D01*
G01X119381Y229396D01*
G01X119432Y229378D01*
G01X119482Y229358D01*
G01X119529Y229335D01*
G01X119574Y229308D01*
G01X119616Y229279D01*
G01X119656Y229247D01*
G01X119693Y229211D01*
G01X119728Y229173D01*
G01X119760Y229132D01*
G01X119789Y229088D01*
G01X119815Y229041D01*
G01X119839Y228992D01*
G01X119860Y228939D01*
G01X119877Y228884D01*
G01X119892Y228826D01*
G01X119903Y228765D01*
G01X119911Y228702D01*
G01X119916Y228635D01*
G01X119918Y228566D01*
G01X119916Y228498D01*
G01X119912Y228432D01*
G01X119905Y228368D01*
G01X119895Y228307D01*
G01X119881Y228247D01*
G01X119866Y228191D01*
G01X119847Y228136D01*
G01X119825Y228084D01*
G01X119801Y228035D01*
G01X119774Y227988D01*
G01X119744Y227944D01*
G01X119711Y227903D01*
G01X119676Y227864D01*
G01X119638Y227829D01*
G01X119597Y227797D01*
G01X119554Y227768D01*
G01X119509Y227742D01*
G01X119460Y227719D01*
G01X119409Y227700D01*
G01X119356Y227684D01*
G01X119300Y227671D01*
G01X119242Y227662D01*
G01X119181Y227657D01*
G01X119118Y227655D01*
G01X119032Y227658D01*
G01X118950Y227666D01*
G01X118868Y227682D01*
G01X118785Y227703D01*
G01X118699Y228023D01*
G01X118674Y228110D01*
G01X118649Y228182D01*
G01X118621Y228240D01*
G01X118590Y228285D01*
G01X118555Y228318D01*
G01X118514Y228339D01*
G01X118468Y228352D01*
G01X118414Y228356D01*
G01X118331Y228345D01*
G01X118261Y228312D01*
G01X118204Y228259D01*
G01X118163Y228185D01*
G01X118178Y228126D01*
G01X118194Y228069D01*
G01X118214Y228014D01*
G01X118235Y227962D01*
G01X118259Y227912D01*
G01X118286Y227865D01*
G01X118315Y227820D01*
G01X118346Y227779D01*
G01X118379Y227739D01*
G01X118415Y227702D01*
G01X118453Y227667D01*
G01X118494Y227635D01*
G01X118536Y227606D01*
G01X118580Y227579D01*
G01X118627Y227555D01*
G01X118676Y227533D01*
G01X118728Y227514D01*
G01X118781Y227498D01*
G01X118836Y227483D01*
G01X118894Y227472D01*
G01X118954Y227463D01*
G01X119016Y227457D01*
G01X119080Y227452D01*
G01X119146Y227451D01*
G01X119215Y227453D01*
G01X119283Y227457D01*
G01X119350Y227464D01*
G01X119414Y227473D01*
G01X119477Y227485D01*
G01X119538Y227499D01*
G01X119597Y227516D01*
G01X119655Y227536D01*
G01X119711Y227557D01*
G01X119765Y227581D01*
G01X119816Y227608D01*
G01X119867Y227636D01*
G01X119914Y227667D01*
G01X119960Y227700D01*
G01X120004Y227735D01*
G01X120045Y227772D01*
G01X120085Y227812D01*
G01X120122Y227853D01*
G01X120156Y227896D01*
G01X120189Y227941D01*
G01X120219Y227987D01*
G01X120247Y228036D01*
G01X120272Y228086D01*
G01X120295Y228138D01*
G01X120315Y228192D01*
G01X120333Y228247D01*
G01X120348Y228304D01*
G01X120360Y228362D01*
G01X120370Y228422D01*
G01X120377Y228483D01*
G01X120381Y228546D01*
G01X120383Y228610D01*
G01X120381Y228675D01*
G01X120377Y228739D01*
G01X120371Y228801D01*
G01X120361Y228862D01*
G01X120349Y228920D01*
G01X120335Y228976D01*
G01X120318Y229031D01*
G01X120298Y229083D01*
G01X120277Y229133D01*
G01X120253Y229182D01*
G01X120227Y229229D01*
G01X120198Y229274D01*
G01X120167Y229316D01*
G01X120134Y229356D01*
G01X120099Y229395D01*
G01X120062Y229431D01*
G01X120023Y229466D01*
G01X119982Y229498D01*
G01X119939Y229528D01*
G01X119895Y229556D01*
G01X119848Y229582D01*
G01X119800Y229605D01*
G01X119750Y229627D01*
G01X119698Y229646D01*
G01X119645Y229663D01*
G01X119590Y229678D01*
G01X119533Y229691D01*
G01X119476Y229701D01*
G01X119416Y229709D01*
G01X119355Y229715D01*
G01X119293Y229719D01*
G01X119230Y229720D01*
G01X119158Y229719D01*
G01X119089Y229715D01*
G01X119021Y229709D01*
G01X118954Y229701D01*
G01X118888Y229691D01*
G01X118823Y229678D01*
G01X118758Y229662D01*
G01X118694Y229643D01*
G01X118760Y230642D01*
G01X120286Y230642D01*
G01X120286Y231058D01*
G37*

%LPD*%
G36*
G01X116502Y231058D02*
G01X115084Y231058D01*
G01X115084Y230873D01*
G01X115575Y230822D01*
G01X115578Y230648D01*
G01X115579Y230589D01*
G01X115580Y230531D01*
G01X115580Y230473D01*
G01X115581Y230415D01*
G01X115583Y230181D01*
G01X115583Y230122D01*
G01X115584Y230064D01*
G01X115584Y229829D01*
G01X115585Y229771D01*
G01X115585Y228803D01*
G01X115584Y228745D01*
G01X115584Y228511D01*
G01X115583Y228453D01*
G01X115583Y228395D01*
G01X115582Y228279D01*
G01X115582Y228221D01*
G01X115580Y228105D01*
G01X115580Y228046D01*
G01X115578Y227930D01*
G01X115577Y227873D01*
G01X115576Y227814D01*
G01X115575Y227756D01*
G01X115084Y227703D01*
G01X115084Y227520D01*
G01X116580Y227520D01*
G01X116580Y227703D01*
G01X116078Y227761D01*
G01X116074Y227881D01*
G01X116072Y228000D01*
G01X116071Y228059D01*
G01X116071Y228118D01*
G01X116070Y228176D01*
G01X116069Y228235D01*
G01X116069Y228294D01*
G01X116068Y228352D01*
G01X116068Y228526D01*
G01X116067Y228585D01*
G01X116067Y228935D01*
G01X116347Y228935D01*
G01X116434Y228936D01*
G01X116518Y228939D01*
G01X116600Y228945D01*
G01X116678Y228952D01*
G01X116754Y228962D01*
G01X116827Y228973D01*
G01X116897Y228987D01*
G01X116964Y229003D01*
G01X117028Y229020D01*
G01X117090Y229039D01*
G01X117149Y229060D01*
G01X117205Y229083D01*
G01X117259Y229107D01*
G01X117310Y229133D01*
G01X117359Y229161D01*
G01X117404Y229190D01*
G01X117448Y229220D01*
G01X117488Y229252D01*
G01X117527Y229285D01*
G01X117563Y229320D01*
G01X117596Y229355D01*
G01X117627Y229392D01*
G01X117656Y229431D01*
G01X117683Y229470D01*
G01X117707Y229510D01*
G01X117729Y229551D01*
G01X117748Y229594D01*
G01X117766Y229637D01*
G01X117781Y229681D01*
G01X117794Y229726D01*
G01X117805Y229771D01*
G01X117814Y229818D01*
G01X117821Y229865D01*
G01X117826Y229912D01*
G01X117829Y229960D01*
G01X117830Y230009D01*
G01X117829Y230068D01*
G01X117825Y230125D01*
G01X117818Y230180D01*
G01X117809Y230234D01*
G01X117798Y230288D01*
G01X117784Y230339D01*
G01X117767Y230389D01*
G01X117747Y230438D01*
G01X117725Y230485D01*
G01X117701Y230530D01*
G01X117674Y230575D01*
G01X117644Y230617D01*
G01X117612Y230657D01*
G01X117577Y230697D01*
G01X117540Y230734D01*
G01X117499Y230769D01*
G01X117457Y230803D01*
G01X117411Y230834D01*
G01X117363Y230864D01*
G01X117312Y230892D01*
G01X117260Y230918D01*
G01X117204Y230941D01*
G01X117145Y230963D01*
G01X117084Y230983D01*
G01X117021Y231000D01*
G01X116954Y231015D01*
G01X116885Y231028D01*
G01X116814Y231039D01*
G01X116740Y231047D01*
G01X116663Y231053D01*
G01X116583Y231057D01*
G01X116502Y231058D01*
G37*

%LPC*%
G36*
G01X116415Y230850D02*
G01X116078Y230850D01*
G01X116076Y230792D01*
G01X116071Y230497D01*
G01X116070Y230319D01*
G01X116069Y230259D01*
G01X116069Y230199D01*
G01X116068Y230139D01*
G01X116068Y229899D01*
G01X116067Y229839D01*
G01X116067Y229146D01*
G01X116405Y229146D01*
G01X116485Y229148D01*
G01X116562Y229153D01*
G01X116635Y229162D01*
G01X116703Y229174D01*
G01X116768Y229190D01*
G01X116828Y229209D01*
G01X116886Y229231D01*
G01X116939Y229256D01*
G01X116989Y229284D01*
G01X117035Y229315D01*
G01X117077Y229349D01*
G01X117116Y229386D01*
G01X117152Y229426D01*
G01X117184Y229467D01*
G01X117213Y229511D01*
G01X117239Y229559D01*
G01X117261Y229607D01*
G01X117280Y229659D01*
G01X117296Y229713D01*
G01X117309Y229768D01*
G01X117320Y229825D01*
G01X117327Y229885D01*
G01X117331Y229946D01*
G01X117332Y230009D01*
G01X117331Y230075D01*
G01X117326Y230138D01*
G01X117319Y230199D01*
G01X117308Y230258D01*
G01X117295Y230313D01*
G01X117278Y230367D01*
G01X117258Y230417D01*
G01X117235Y230465D01*
G01X117209Y230511D01*
G01X117179Y230553D01*
G01X117147Y230593D01*
G01X117111Y230630D01*
G01X117072Y230665D01*
G01X117029Y230697D01*
G01X116983Y230725D01*
G01X116934Y230751D01*
G01X116882Y230774D01*
G01X116825Y230794D01*
G01X116766Y230811D01*
G01X116703Y230825D01*
G01X116636Y230836D01*
G01X116566Y230844D01*
G01X116493Y230848D01*
G01X116415Y230850D01*
G37*

%LPD*%
G36*
G01X111841Y231058D02*
G01X109220Y231058D01*
G01X109220Y230873D01*
G01X109712Y230822D01*
G01X109714Y230706D01*
G01X109716Y230648D01*
G01X109716Y230589D01*
G01X109719Y230415D01*
G01X109721Y230181D01*
G01X109721Y230006D01*
G01X109722Y229947D01*
G01X109722Y228628D01*
G01X109721Y228570D01*
G01X109721Y228395D01*
G01X109720Y228279D01*
G01X109719Y228221D01*
G01X109719Y228163D01*
G01X109718Y228105D01*
G01X109717Y228046D01*
G01X109716Y227988D01*
G01X109716Y227930D01*
G01X109714Y227873D01*
G01X109713Y227814D01*
G01X109712Y227756D01*
G01X109220Y227703D01*
G01X109220Y227520D01*
G01X111942Y227520D01*
G01X111970Y228460D01*
G01X111709Y228460D01*
G01X111569Y227751D01*
G01X110215Y227751D01*
G01X110214Y227810D01*
G01X110213Y227868D01*
G01X110211Y227986D01*
G01X110210Y228046D01*
G01X110209Y228105D01*
G01X110208Y228283D01*
G01X110207Y228343D01*
G01X110207Y228403D01*
G01X110206Y228463D01*
G01X110206Y228708D01*
G01X110205Y228770D01*
G01X110205Y229214D01*
G01X111005Y229214D01*
G01X111079Y228704D01*
G01X111295Y228704D01*
G01X111295Y229948D01*
G01X111079Y229948D01*
G01X111000Y229428D01*
G01X110205Y229428D01*
G01X110205Y229842D01*
G01X110206Y229900D01*
G01X110206Y230134D01*
G01X110208Y230365D01*
G01X110209Y230423D01*
G01X110209Y230481D01*
G01X110211Y230595D01*
G01X110213Y230710D01*
G01X110214Y230767D01*
G01X110215Y230825D01*
G01X111467Y230825D01*
G01X111610Y230126D01*
G01X111869Y230126D01*
G01X111841Y231058D01*
G37*

%LPD*%

%LPD*%
G36*
G01X50465Y306058D02*
G01X50408Y306059D01*
G01X50347Y306058D01*
G01X50288Y306054D01*
G01X50230Y306048D01*
G01X50172Y306039D01*
G01X50116Y306027D01*
G01X50062Y306014D01*
G01X50009Y305997D01*
G01X49957Y305979D01*
G01X49907Y305958D01*
G01X49859Y305935D01*
G01X49812Y305909D01*
G01X49767Y305882D01*
G01X49723Y305852D01*
G01X49681Y305821D01*
G01X49642Y305787D01*
G01X49604Y305750D01*
G01X49568Y305713D01*
G01X49534Y305673D01*
G01X49502Y305631D01*
G01X49472Y305587D01*
G01X49444Y305542D01*
G01X49418Y305495D01*
G01X49394Y305446D01*
G01X49373Y305395D01*
G01X49354Y305343D01*
G01X49337Y305288D01*
G01X49324Y305233D01*
G01X49312Y305175D01*
G01X49303Y305116D01*
G01X49296Y305057D01*
G01X49292Y304995D01*
G01X49291Y304932D01*
G01X49292Y304861D01*
G01X49297Y304793D01*
G01X49306Y304727D01*
G01X49318Y304664D01*
G01X49332Y304602D01*
G01X49350Y304542D01*
G01X49371Y304485D01*
G01X49394Y304430D01*
G01X49421Y304377D01*
G01X49450Y304327D01*
G01X49481Y304279D01*
G01X49515Y304234D01*
G01X49551Y304190D01*
G01X49590Y304150D01*
G01X49631Y304112D01*
G01X49673Y304076D01*
G01X49718Y304043D01*
G01X49764Y304013D01*
G01X49813Y303985D01*
G01X49863Y303960D01*
G01X49915Y303938D01*
G01X49967Y303919D01*
G01X50022Y303902D01*
G01X50078Y303889D01*
G01X50135Y303878D01*
G01X50193Y303871D01*
G01X50252Y303866D01*
G01X50312Y303865D01*
G01X50382Y303867D01*
G01X50451Y303872D01*
G01X50518Y303882D01*
G01X50582Y303895D01*
G01X50644Y303912D01*
G01X50704Y303932D01*
G01X50762Y303956D01*
G01X50817Y303984D01*
G01X50871Y304015D01*
G01X50922Y304049D01*
G01X50971Y304087D01*
G01X51018Y304129D01*
G01X51008Y304072D01*
G01X50997Y304016D01*
G01X50984Y303960D01*
G01X50970Y303906D01*
G01X50955Y303852D01*
G01X50939Y303799D01*
G01X50922Y303747D01*
G01X50903Y303697D01*
G01X50883Y303646D01*
G01X50862Y303597D01*
G01X50840Y303548D01*
G01X50816Y303501D01*
G01X50790Y303454D01*
G01X50764Y303408D01*
G01X50735Y303363D01*
G01X50707Y303319D01*
G01X50676Y303276D01*
G01X50644Y303233D01*
G01X50610Y303192D01*
G01X50574Y303152D01*
G01X50538Y303111D01*
G01X50500Y303073D01*
G01X50461Y303035D01*
G01X50420Y302997D01*
G01X50377Y302961D01*
G01X50333Y302925D01*
G01X50287Y302891D01*
G01X50240Y302857D01*
G01X50191Y302824D01*
G01X50141Y302792D01*
G01X50089Y302761D01*
G01X50035Y302730D01*
G01X49980Y302701D01*
G01X49923Y302673D01*
G01X49864Y302645D01*
G01X49803Y302618D01*
G01X49741Y302592D01*
G01X49678Y302566D01*
G01X49612Y302542D01*
G01X49545Y302519D01*
G01X49585Y302353D01*
G01X49657Y302371D01*
G01X49728Y302391D01*
G01X49796Y302410D01*
G01X49864Y302432D01*
G01X49929Y302454D01*
G01X49994Y302477D01*
G01X50057Y302502D01*
G01X50118Y302527D01*
G01X50179Y302554D01*
G01X50237Y302581D01*
G01X50295Y302610D01*
G01X50350Y302639D01*
G01X50405Y302669D01*
G01X50458Y302700D01*
G01X50509Y302732D01*
G01X50560Y302766D01*
G01X50608Y302800D01*
G01X50656Y302835D01*
G01X50702Y302871D01*
G01X50747Y302907D01*
G01X50790Y302944D01*
G01X50833Y302983D01*
G01X50873Y303022D01*
G01X50912Y303062D01*
G01X50950Y303102D01*
G01X50987Y303143D01*
G01X51023Y303186D01*
G01X51057Y303228D01*
G01X51090Y303271D01*
G01X51122Y303316D01*
G01X51152Y303360D01*
G01X51181Y303406D01*
G01X51208Y303452D01*
G01X51235Y303499D01*
G01X51260Y303546D01*
G01X51284Y303594D01*
G01X51307Y303642D01*
G01X51328Y303692D01*
G01X51349Y303741D01*
G01X51368Y303791D01*
G01X51386Y303841D01*
G01X51402Y303893D01*
G01X51418Y303944D01*
G01X51432Y303996D01*
G01X51445Y304049D01*
G01X51457Y304102D01*
G01X51468Y304155D01*
G01X51478Y304208D01*
G01X51486Y304263D01*
G01X51500Y304371D01*
G01X51505Y304427D01*
G01X51511Y304537D01*
G01X51513Y304593D01*
G01X51513Y304650D01*
G01X51512Y304721D01*
G01X51509Y304790D01*
G01X51505Y304858D01*
G01X51498Y304925D01*
G01X51489Y304989D01*
G01X51479Y305053D01*
G01X51467Y305115D01*
G01X51453Y305175D01*
G01X51437Y305233D01*
G01X51419Y305290D01*
G01X51400Y305345D01*
G01X51379Y305398D01*
G01X51356Y305449D01*
G01X51332Y305499D01*
G01X51306Y305546D01*
G01X51278Y305592D01*
G01X51249Y305636D01*
G01X51218Y305677D01*
G01X51186Y305717D01*
G01X51152Y305755D01*
G01X51115Y305791D01*
G01X51078Y305824D01*
G01X51040Y305856D01*
G01X51000Y305885D01*
G01X50958Y305913D01*
G01X50915Y305937D01*
G01X50870Y305960D01*
G01X50824Y305981D01*
G01X50777Y305999D01*
G01X50728Y306015D01*
G01X50678Y306028D01*
G01X50627Y306040D01*
G01X50574Y306048D01*
G01X50520Y306054D01*
G01X50465Y306058D01*
G37*

%LPC*%
G36*
G01X50432Y305850D02*
G01X50391Y305851D01*
G01X50338Y305849D01*
G01X50286Y305842D01*
G01X50237Y305831D01*
G01X50187Y305816D01*
G01X50141Y305796D01*
G01X50095Y305772D01*
G01X50051Y305744D01*
G01X50010Y305711D01*
G01X49971Y305674D01*
G01X49934Y305633D01*
G01X49900Y305587D01*
G01X49869Y305537D01*
G01X49841Y305483D01*
G01X49816Y305424D01*
G01X49794Y305361D01*
G01X49776Y305294D01*
G01X49762Y305223D01*
G01X49751Y305147D01*
G01X49745Y305067D01*
G01X49743Y304982D01*
G01X49745Y304899D01*
G01X49752Y304819D01*
G01X49763Y304745D01*
G01X49779Y304675D01*
G01X49798Y304609D01*
G01X49822Y304548D01*
G01X49849Y304492D01*
G01X49880Y304439D01*
G01X49914Y304392D01*
G01X49951Y304348D01*
G01X49991Y304309D01*
G01X50034Y304274D01*
G01X50080Y304243D01*
G01X50128Y304217D01*
G01X50179Y304194D01*
G01X50232Y304176D01*
G01X50287Y304162D01*
G01X50343Y304152D01*
G01X50402Y304146D01*
G01X50462Y304144D01*
G01X50518Y304146D01*
G01X50572Y304150D01*
G01X50626Y304157D01*
G01X50677Y304167D01*
G01X50727Y304180D01*
G01X50776Y304196D01*
G01X50823Y304215D01*
G01X50869Y304238D01*
G01X50914Y304263D01*
G01X50957Y304292D01*
G01X51000Y304325D01*
G01X51041Y304360D01*
G01X51048Y304485D01*
G01X51050Y304548D01*
G01X51051Y304612D01*
G01X51050Y304701D01*
G01X51047Y304788D01*
G01X51042Y304871D01*
G01X51035Y304950D01*
G01X51026Y305027D01*
G01X51015Y305099D01*
G01X51003Y305167D01*
G01X50988Y305233D01*
G01X50972Y305295D01*
G01X50954Y305353D01*
G01X50935Y305408D01*
G01X50914Y305460D01*
G01X50891Y305508D01*
G01X50868Y305553D01*
G01X50842Y305595D01*
G01X50815Y305634D01*
G01X50786Y305669D01*
G01X50756Y305701D01*
G01X50725Y305730D01*
G01X50692Y305756D01*
G01X50659Y305778D01*
G01X50624Y305798D01*
G01X50588Y305814D01*
G01X50550Y305828D01*
G01X50512Y305838D01*
G01X50472Y305845D01*
G01X50432Y305850D01*
G37*

%LPD*%
G36*
G01X44868Y306068D02*
G01X44803Y306070D01*
G01X44731Y306068D01*
G01X44662Y306064D01*
G01X44594Y306057D01*
G01X44527Y306048D01*
G01X44462Y306036D01*
G01X44398Y306021D01*
G01X44337Y306004D01*
G01X44277Y305984D01*
G01X44219Y305962D01*
G01X44163Y305937D01*
G01X44110Y305910D01*
G01X44058Y305881D01*
G01X44009Y305849D01*
G01X43963Y305814D01*
G01X43919Y305777D01*
G01X43877Y305738D01*
G01X43839Y305697D01*
G01X43803Y305653D01*
G01X43770Y305607D01*
G01X43741Y305559D01*
G01X43714Y305509D01*
G01X43691Y305457D01*
G01X43671Y305402D01*
G01X43654Y305346D01*
G01X43641Y305287D01*
G01X43632Y305226D01*
G01X43626Y305164D01*
G01X43624Y305099D01*
G01X43626Y305034D01*
G01X43632Y304971D01*
G01X43641Y304910D01*
G01X43653Y304852D01*
G01X43669Y304795D01*
G01X43689Y304741D01*
G01X43712Y304689D01*
G01X43738Y304638D01*
G01X43767Y304590D01*
G01X43800Y304543D01*
G01X43835Y304498D01*
G01X43873Y304455D01*
G01X43915Y304413D01*
G01X43958Y304373D01*
G01X44005Y304334D01*
G01X44054Y304297D01*
G01X44107Y304261D01*
G01X44161Y304226D01*
G01X44218Y304193D01*
G01X44277Y304161D01*
G01X44338Y304129D01*
G01X44402Y304099D01*
G01X44468Y304071D01*
G01X44536Y304043D01*
G01X44734Y303961D01*
G01X44819Y303926D01*
G01X44898Y303892D01*
G01X44971Y303857D01*
G01X45037Y303822D01*
G01X45098Y303786D01*
G01X45152Y303749D01*
G01X45201Y303711D01*
G01X45244Y303671D01*
G01X45282Y303630D01*
G01X45314Y303587D01*
G01X45340Y303541D01*
G01X45362Y303492D01*
G01X45379Y303441D01*
G01X45390Y303386D01*
G01X45397Y303328D01*
G01X45399Y303265D01*
G01X45397Y303202D01*
G01X45390Y303142D01*
G01X45378Y303086D01*
G01X45361Y303032D01*
G01X45340Y302981D01*
G01X45314Y302934D01*
G01X45284Y302889D01*
G01X45250Y302847D01*
G01X45212Y302809D01*
G01X45169Y302774D01*
G01X45123Y302742D01*
G01X45073Y302714D01*
G01X45020Y302688D01*
G01X44964Y302666D01*
G01X44903Y302648D01*
G01X44840Y302632D01*
G01X44774Y302620D01*
G01X44704Y302612D01*
G01X44631Y302606D01*
G01X44556Y302605D01*
G01X44473Y302607D01*
G01X44397Y302613D01*
G01X44325Y302622D01*
G01X44256Y302635D01*
G01X44190Y302653D01*
G01X44126Y302676D01*
G01X44063Y302702D01*
G01X44000Y302734D01*
G01X43865Y303395D01*
G01X43596Y303395D01*
G01X43561Y302653D01*
G01X43607Y302625D01*
G01X43658Y302597D01*
G01X43711Y302570D01*
G01X43767Y302544D01*
G01X43825Y302520D01*
G01X43886Y302497D01*
G01X43950Y302475D01*
G01X44015Y302456D01*
G01X44082Y302437D01*
G01X44151Y302422D01*
G01X44221Y302407D01*
G01X44293Y302396D01*
G01X44366Y302387D01*
G01X44440Y302379D01*
G01X44514Y302375D01*
G01X44589Y302374D01*
G01X44657Y302375D01*
G01X44724Y302378D01*
G01X44789Y302383D01*
G01X44853Y302391D01*
G01X44916Y302401D01*
G01X44977Y302412D01*
G01X45036Y302427D01*
G01X45093Y302442D01*
G01X45149Y302460D01*
G01X45203Y302480D01*
G01X45255Y302502D01*
G01X45305Y302526D01*
G01X45354Y302552D01*
G01X45400Y302579D01*
G01X45445Y302609D01*
G01X45487Y302640D01*
G01X45527Y302674D01*
G01X45565Y302709D01*
G01X45600Y302745D01*
G01X45634Y302784D01*
G01X45665Y302824D01*
G01X45693Y302867D01*
G01X45719Y302910D01*
G01X45742Y302955D01*
G01X45764Y303003D01*
G01X45782Y303051D01*
G01X45797Y303102D01*
G01X45810Y303154D01*
G01X45821Y303207D01*
G01X45828Y303262D01*
G01X45832Y303319D01*
G01X45834Y303377D01*
G01X45832Y303438D01*
G01X45828Y303497D01*
G01X45821Y303554D01*
G01X45811Y303610D01*
G01X45798Y303663D01*
G01X45782Y303715D01*
G01X45763Y303765D01*
G01X45740Y303813D01*
G01X45714Y303861D01*
G01X45685Y303906D01*
G01X45652Y303951D01*
G01X45616Y303994D01*
G01X45576Y304036D01*
G01X45532Y304077D01*
G01X45484Y304117D01*
G01X45432Y304156D01*
G01X45377Y304195D01*
G01X45317Y304233D01*
G01X45253Y304270D01*
G01X45185Y304306D01*
G01X45113Y304342D01*
G01X45036Y304378D01*
G01X44954Y304413D01*
G01X44869Y304449D01*
G01X44658Y304530D01*
G01X44588Y304559D01*
G01X44522Y304589D01*
G01X44460Y304621D01*
G01X44402Y304654D01*
G01X44349Y304689D01*
G01X44300Y304726D01*
G01X44254Y304764D01*
G01X44214Y304805D01*
G01X44178Y304848D01*
G01X44147Y304893D01*
G01X44120Y304941D01*
G01X44098Y304992D01*
G01X44081Y305045D01*
G01X44069Y305101D01*
G01X44061Y305159D01*
G01X44058Y305221D01*
G01X44061Y305280D01*
G01X44067Y305336D01*
G01X44079Y305390D01*
G01X44094Y305441D01*
G01X44114Y305488D01*
G01X44138Y305533D01*
G01X44165Y305574D01*
G01X44197Y305613D01*
G01X44231Y305648D01*
G01X44269Y305681D01*
G01X44310Y305711D01*
G01X44354Y305737D01*
G01X44401Y305761D01*
G01X44451Y305781D01*
G01X44503Y305799D01*
G01X44558Y305813D01*
G01X44615Y305824D01*
G01X44674Y305832D01*
G01X44734Y305837D01*
G01X44797Y305838D01*
G01X44857Y305837D01*
G01X44914Y305832D01*
G01X44969Y305825D01*
G01X45023Y305813D01*
G01X45075Y305799D01*
G01X45126Y305780D01*
G01X45176Y305758D01*
G01X45227Y305732D01*
G01X45361Y305099D01*
G01X45636Y305099D01*
G01X45671Y305790D01*
G01X45627Y305821D01*
G01X45581Y305850D01*
G01X45535Y305878D01*
G01X45487Y305904D01*
G01X45438Y305929D01*
G01X45387Y305952D01*
G01X45335Y305973D01*
G01X45283Y305993D01*
G01X45228Y306010D01*
G01X45172Y306025D01*
G01X45114Y306039D01*
G01X45056Y306049D01*
G01X44995Y306058D01*
G01X44933Y306064D01*
G01X44868Y306068D01*
G37*

%LPD*%
G36*
G01X47668Y305988D02*
G01X46250Y305988D01*
G01X46250Y305803D01*
G01X46741Y305752D01*
G01X46744Y305578D01*
G01X46745Y305519D01*
G01X46747Y305403D01*
G01X46749Y305111D01*
G01X46749Y305052D01*
G01X46750Y304936D01*
G01X46750Y304759D01*
G01X46751Y304701D01*
G01X46751Y303733D01*
G01X46750Y303675D01*
G01X46750Y303441D01*
G01X46749Y303383D01*
G01X46749Y303325D01*
G01X46748Y303209D01*
G01X46748Y303151D01*
G01X46747Y303035D01*
G01X46746Y302976D01*
G01X46744Y302860D01*
G01X46743Y302803D01*
G01X46742Y302744D01*
G01X46741Y302686D01*
G01X46250Y302633D01*
G01X46250Y302450D01*
G01X47746Y302450D01*
G01X47746Y302633D01*
G01X47244Y302691D01*
G01X47242Y302751D01*
G01X47241Y302811D01*
G01X47239Y302871D01*
G01X47237Y302989D01*
G01X47237Y303048D01*
G01X47236Y303106D01*
G01X47235Y303165D01*
G01X47235Y303224D01*
G01X47234Y303282D01*
G01X47234Y303456D01*
G01X47233Y303515D01*
G01X47233Y303865D01*
G01X47513Y303865D01*
G01X47600Y303866D01*
G01X47684Y303869D01*
G01X47766Y303875D01*
G01X47844Y303883D01*
G01X47920Y303892D01*
G01X47993Y303903D01*
G01X48063Y303917D01*
G01X48130Y303933D01*
G01X48194Y303950D01*
G01X48256Y303969D01*
G01X48315Y303990D01*
G01X48371Y304013D01*
G01X48425Y304038D01*
G01X48476Y304063D01*
G01X48525Y304091D01*
G01X48570Y304120D01*
G01X48614Y304150D01*
G01X48654Y304182D01*
G01X48693Y304215D01*
G01X48729Y304250D01*
G01X48762Y304285D01*
G01X48793Y304322D01*
G01X48822Y304361D01*
G01X48849Y304400D01*
G01X48873Y304440D01*
G01X48895Y304481D01*
G01X48914Y304524D01*
G01X48932Y304567D01*
G01X48947Y304611D01*
G01X48960Y304656D01*
G01X48971Y304701D01*
G01X48980Y304748D01*
G01X48987Y304795D01*
G01X48992Y304842D01*
G01X48995Y304890D01*
G01X48996Y304939D01*
G01X48995Y304998D01*
G01X48991Y305055D01*
G01X48984Y305110D01*
G01X48975Y305164D01*
G01X48964Y305218D01*
G01X48950Y305269D01*
G01X48933Y305319D01*
G01X48913Y305368D01*
G01X48891Y305415D01*
G01X48867Y305460D01*
G01X48840Y305505D01*
G01X48810Y305547D01*
G01X48778Y305587D01*
G01X48743Y305627D01*
G01X48706Y305664D01*
G01X48665Y305699D01*
G01X48623Y305733D01*
G01X48577Y305764D01*
G01X48529Y305794D01*
G01X48478Y305822D01*
G01X48426Y305848D01*
G01X48370Y305871D01*
G01X48311Y305893D01*
G01X48250Y305913D01*
G01X48187Y305930D01*
G01X48120Y305945D01*
G01X48052Y305958D01*
G01X47980Y305969D01*
G01X47906Y305977D01*
G01X47829Y305983D01*
G01X47749Y305987D01*
G01X47668Y305988D01*
G37*

%LPC*%
G36*
G01X47581Y305780D02*
G01X47244Y305780D01*
G01X47242Y305722D01*
G01X47237Y305427D01*
G01X47235Y305189D01*
G01X47234Y305069D01*
G01X47234Y304829D01*
G01X47233Y304770D01*
G01X47233Y304076D01*
G01X47571Y304076D01*
G01X47651Y304078D01*
G01X47728Y304083D01*
G01X47801Y304092D01*
G01X47869Y304104D01*
G01X47934Y304120D01*
G01X47995Y304139D01*
G01X48052Y304161D01*
G01X48105Y304186D01*
G01X48155Y304214D01*
G01X48201Y304245D01*
G01X48243Y304279D01*
G01X48282Y304316D01*
G01X48318Y304356D01*
G01X48350Y304397D01*
G01X48379Y304441D01*
G01X48405Y304489D01*
G01X48427Y304537D01*
G01X48446Y304589D01*
G01X48462Y304643D01*
G01X48475Y304698D01*
G01X48486Y304755D01*
G01X48493Y304815D01*
G01X48497Y304876D01*
G01X48498Y304939D01*
G01X48497Y305005D01*
G01X48492Y305068D01*
G01X48485Y305129D01*
G01X48474Y305188D01*
G01X48461Y305243D01*
G01X48444Y305297D01*
G01X48424Y305347D01*
G01X48401Y305395D01*
G01X48375Y305441D01*
G01X48345Y305483D01*
G01X48313Y305523D01*
G01X48277Y305560D01*
G01X48238Y305595D01*
G01X48195Y305627D01*
G01X48149Y305655D01*
G01X48100Y305681D01*
G01X48048Y305704D01*
G01X47991Y305724D01*
G01X47932Y305741D01*
G01X47869Y305755D01*
G01X47802Y305766D01*
G01X47732Y305774D01*
G01X47659Y305778D01*
G01X47581Y305780D01*
G37*

%LPD*%
G36*
G01X43007Y305988D02*
G01X40386Y305988D01*
G01X40386Y305803D01*
G01X40878Y305752D01*
G01X40879Y305694D01*
G01X40881Y305636D01*
G01X40882Y305578D01*
G01X40882Y305519D01*
G01X40884Y305403D01*
G01X40887Y305111D01*
G01X40887Y305052D01*
G01X40888Y304936D01*
G01X40888Y303500D01*
G01X40887Y303441D01*
G01X40887Y303325D01*
G01X40886Y303209D01*
G01X40885Y303151D01*
G01X40884Y303035D01*
G01X40883Y302976D01*
G01X40882Y302918D01*
G01X40882Y302860D01*
G01X40881Y302803D01*
G01X40879Y302744D01*
G01X40878Y302686D01*
G01X40386Y302633D01*
G01X40386Y302450D01*
G01X43108Y302450D01*
G01X43136Y303390D01*
G01X42875Y303390D01*
G01X42735Y302681D01*
G01X41381Y302681D01*
G01X41380Y302740D01*
G01X41379Y302798D01*
G01X41377Y302916D01*
G01X41376Y302976D01*
G01X41375Y303035D01*
G01X41374Y303213D01*
G01X41373Y303273D01*
G01X41373Y303333D01*
G01X41372Y303393D01*
G01X41372Y303638D01*
G01X41371Y303700D01*
G01X41371Y304144D01*
G01X42171Y304144D01*
G01X42245Y303634D01*
G01X42461Y303634D01*
G01X42461Y304878D01*
G01X42245Y304878D01*
G01X42166Y304358D01*
G01X41371Y304358D01*
G01X41371Y304772D01*
G01X41372Y304830D01*
G01X41372Y305064D01*
G01X41374Y305295D01*
G01X41375Y305353D01*
G01X41375Y305411D01*
G01X41377Y305525D01*
G01X41378Y305583D01*
G01X41380Y305697D01*
G01X41381Y305755D01*
G01X42633Y305755D01*
G01X42776Y305056D01*
G01X43035Y305056D01*
G01X43007Y305988D01*
G37*

%LPD*%

%LPD*%
G36*
G01X103024Y300978D02*
G01X102958Y300979D01*
G01X102887Y300978D01*
G01X102818Y300974D01*
G01X102750Y300967D01*
G01X102683Y300957D01*
G01X102618Y300946D01*
G01X102554Y300931D01*
G01X102493Y300914D01*
G01X102433Y300894D01*
G01X102375Y300872D01*
G01X102319Y300847D01*
G01X102265Y300820D01*
G01X102214Y300790D01*
G01X102165Y300758D01*
G01X102119Y300724D01*
G01X102074Y300687D01*
G01X102033Y300648D01*
G01X101995Y300606D01*
G01X101959Y300563D01*
G01X101926Y300517D01*
G01X101897Y300469D01*
G01X101870Y300419D01*
G01X101847Y300367D01*
G01X101827Y300312D01*
G01X101810Y300255D01*
G01X101797Y300197D01*
G01X101787Y300136D01*
G01X101782Y300074D01*
G01X101780Y300009D01*
G01X101782Y299944D01*
G01X101787Y299881D01*
G01X101797Y299820D01*
G01X101809Y299762D01*
G01X101825Y299705D01*
G01X101845Y299651D01*
G01X101868Y299599D01*
G01X101894Y299548D01*
G01X101923Y299500D01*
G01X101956Y299453D01*
G01X101991Y299408D01*
G01X102029Y299364D01*
G01X102070Y299323D01*
G01X102114Y299283D01*
G01X102161Y299244D01*
G01X102210Y299206D01*
G01X102262Y299171D01*
G01X102317Y299136D01*
G01X102374Y299103D01*
G01X102433Y299070D01*
G01X102494Y299039D01*
G01X102558Y299009D01*
G01X102624Y298980D01*
G01X102692Y298952D01*
G01X102890Y298871D01*
G01X102975Y298836D01*
G01X103054Y298802D01*
G01X103127Y298766D01*
G01X103193Y298731D01*
G01X103254Y298695D01*
G01X103308Y298659D01*
G01X103357Y298621D01*
G01X103400Y298581D01*
G01X103437Y298540D01*
G01X103469Y298496D01*
G01X103496Y298451D01*
G01X103518Y298402D01*
G01X103534Y298350D01*
G01X103546Y298296D01*
G01X103553Y298238D01*
G01X103555Y298175D01*
G01X103553Y298112D01*
G01X103546Y298052D01*
G01X103533Y297995D01*
G01X103517Y297942D01*
G01X103495Y297891D01*
G01X103469Y297843D01*
G01X103439Y297799D01*
G01X103405Y297757D01*
G01X103367Y297719D01*
G01X103325Y297684D01*
G01X103279Y297652D01*
G01X103229Y297623D01*
G01X103176Y297598D01*
G01X103119Y297576D01*
G01X103059Y297557D01*
G01X102996Y297542D01*
G01X102929Y297530D01*
G01X102860Y297522D01*
G01X102787Y297516D01*
G01X102712Y297515D01*
G01X102629Y297517D01*
G01X102553Y297522D01*
G01X102480Y297532D01*
G01X102412Y297545D01*
G01X102346Y297563D01*
G01X102282Y297585D01*
G01X102219Y297612D01*
G01X102156Y297644D01*
G01X102021Y298305D01*
G01X101752Y298305D01*
G01X101716Y297563D01*
G01X101763Y297535D01*
G01X101813Y297507D01*
G01X101867Y297480D01*
G01X101923Y297454D01*
G01X101981Y297429D01*
G01X102042Y297407D01*
G01X102105Y297385D01*
G01X102170Y297365D01*
G01X102238Y297347D01*
G01X102307Y297331D01*
G01X102377Y297317D01*
G01X102449Y297305D01*
G01X102522Y297296D01*
G01X102596Y297289D01*
G01X102670Y297285D01*
G01X102745Y297284D01*
G01X102813Y297285D01*
G01X102880Y297288D01*
G01X102945Y297293D01*
G01X103009Y297301D01*
G01X103072Y297311D01*
G01X103133Y297322D01*
G01X103192Y297336D01*
G01X103249Y297352D01*
G01X103305Y297370D01*
G01X103359Y297390D01*
G01X103411Y297412D01*
G01X103461Y297436D01*
G01X103510Y297461D01*
G01X103556Y297489D01*
G01X103601Y297519D01*
G01X103643Y297550D01*
G01X103683Y297583D01*
G01X103720Y297618D01*
G01X103756Y297655D01*
G01X103789Y297694D01*
G01X103820Y297734D01*
G01X103849Y297776D01*
G01X103875Y297820D01*
G01X103898Y297865D01*
G01X103920Y297913D01*
G01X103938Y297961D01*
G01X103953Y298012D01*
G01X103966Y298064D01*
G01X103976Y298117D01*
G01X103984Y298172D01*
G01X103988Y298229D01*
G01X103990Y298287D01*
G01X103988Y298348D01*
G01X103984Y298407D01*
G01X103977Y298464D01*
G01X103967Y298520D01*
G01X103954Y298573D01*
G01X103938Y298625D01*
G01X103919Y298675D01*
G01X103896Y298723D01*
G01X103870Y298771D01*
G01X103841Y298816D01*
G01X103808Y298860D01*
G01X103772Y298904D01*
G01X103732Y298946D01*
G01X103688Y298987D01*
G01X103640Y299027D01*
G01X103588Y299066D01*
G01X103533Y299105D01*
G01X103473Y299142D01*
G01X103409Y299179D01*
G01X103341Y299216D01*
G01X103269Y299252D01*
G01X103192Y299288D01*
G01X103110Y299323D01*
G01X103024Y299359D01*
G01X102814Y299440D01*
G01X102744Y299469D01*
G01X102677Y299499D01*
G01X102616Y299531D01*
G01X102558Y299564D01*
G01X102505Y299599D01*
G01X102455Y299636D01*
G01X102410Y299674D01*
G01X102370Y299715D01*
G01X102334Y299758D01*
G01X102303Y299803D01*
G01X102276Y299851D01*
G01X102254Y299901D01*
G01X102237Y299955D01*
G01X102224Y300011D01*
G01X102217Y300069D01*
G01X102214Y300131D01*
G01X102217Y300190D01*
G01X102223Y300246D01*
G01X102235Y300300D01*
G01X102250Y300350D01*
G01X102270Y300398D01*
G01X102293Y300442D01*
G01X102321Y300484D01*
G01X102352Y300523D01*
G01X102387Y300558D01*
G01X102424Y300591D01*
G01X102466Y300621D01*
G01X102510Y300647D01*
G01X102557Y300671D01*
G01X102606Y300691D01*
G01X102659Y300709D01*
G01X102714Y300723D01*
G01X102770Y300734D01*
G01X102829Y300742D01*
G01X102890Y300747D01*
G01X102953Y300748D01*
G01X103013Y300747D01*
G01X103070Y300742D01*
G01X103125Y300734D01*
G01X103178Y300723D01*
G01X103231Y300709D01*
G01X103281Y300690D01*
G01X103332Y300668D01*
G01X103383Y300642D01*
G01X103517Y300009D01*
G01X103792Y300009D01*
G01X103827Y300700D01*
G01X103783Y300731D01*
G01X103737Y300760D01*
G01X103690Y300788D01*
G01X103643Y300814D01*
G01X103594Y300839D01*
G01X103543Y300862D01*
G01X103491Y300883D01*
G01X103438Y300903D01*
G01X103384Y300920D01*
G01X103328Y300935D01*
G01X103270Y300948D01*
G01X103211Y300959D01*
G01X103150Y300968D01*
G01X103088Y300974D01*
G01X103024Y300978D01*
G37*

%LPD*%
G36*
G01X111544Y300898D02*
G01X111470Y300951D01*
G01X110385Y300664D01*
G01X110385Y300482D01*
G01X111089Y300550D01*
G01X111089Y298405D01*
G01X111088Y298265D01*
G01X111086Y298123D01*
G01X111086Y298053D01*
G01X111084Y297912D01*
G01X111082Y297841D01*
G01X111081Y297770D01*
G01X111080Y297700D01*
G01X111079Y297629D01*
G01X110327Y297525D01*
G01X110327Y297360D01*
G01X112278Y297360D01*
G01X112278Y297525D01*
G01X111533Y297629D01*
G01X111532Y297700D01*
G01X111530Y297841D01*
G01X111528Y297912D01*
G01X111525Y298123D01*
G01X111524Y298265D01*
G01X111523Y298405D01*
G01X111523Y300136D01*
G01X111544Y300898D01*
G37*

%LPD*%
G36*
G01X108894Y300898D02*
G01X108821Y300951D01*
G01X107736Y300664D01*
G01X107736Y300482D01*
G01X108440Y300550D01*
G01X108440Y298405D01*
G01X108439Y298265D01*
G01X108437Y298123D01*
G01X108437Y298053D01*
G01X108435Y297912D01*
G01X108433Y297841D01*
G01X108432Y297770D01*
G01X108431Y297700D01*
G01X108430Y297629D01*
G01X107678Y297525D01*
G01X107678Y297360D01*
G01X109626Y297360D01*
G01X109626Y297525D01*
G01X108884Y297629D01*
G01X108883Y297700D01*
G01X108881Y297841D01*
G01X108879Y297912D01*
G01X108876Y298123D01*
G01X108875Y298265D01*
G01X108874Y298405D01*
G01X108874Y300136D01*
G01X108894Y300898D01*
G37*

%LPD*%
G36*
G01X105824Y300898D02*
G01X104406Y300898D01*
G01X104406Y300713D01*
G01X104896Y300662D01*
G01X104897Y300604D01*
G01X104899Y300546D01*
G01X104900Y300488D01*
G01X104900Y300429D01*
G01X104902Y300371D01*
G01X104903Y300313D01*
G01X104905Y300021D01*
G01X104905Y299962D01*
G01X104906Y299845D01*
G01X104906Y299669D01*
G01X104907Y299611D01*
G01X104907Y298643D01*
G01X104906Y298585D01*
G01X104906Y298351D01*
G01X104905Y298293D01*
G01X104905Y298235D01*
G01X104904Y298119D01*
G01X104904Y298060D01*
G01X104903Y297945D01*
G01X104902Y297886D01*
G01X104900Y297828D01*
G01X104900Y297770D01*
G01X104899Y297712D01*
G01X104897Y297654D01*
G01X104896Y297596D01*
G01X104406Y297543D01*
G01X104406Y297360D01*
G01X105902Y297360D01*
G01X105902Y297543D01*
G01X105399Y297601D01*
G01X105397Y297721D01*
G01X105395Y297780D01*
G01X105394Y297840D01*
G01X105393Y297899D01*
G01X105393Y297958D01*
G01X105392Y298016D01*
G01X105391Y298075D01*
G01X105391Y298134D01*
G01X105390Y298191D01*
G01X105390Y298366D01*
G01X105389Y298425D01*
G01X105389Y298775D01*
G01X105669Y298775D01*
G01X105756Y298776D01*
G01X105840Y298779D01*
G01X105922Y298785D01*
G01X106000Y298792D01*
G01X106076Y298802D01*
G01X106149Y298813D01*
G01X106219Y298827D01*
G01X106286Y298843D01*
G01X106350Y298860D01*
G01X106412Y298879D01*
G01X106471Y298900D01*
G01X106527Y298923D01*
G01X106581Y298947D01*
G01X106632Y298973D01*
G01X106681Y299001D01*
G01X106726Y299030D01*
G01X106769Y299060D01*
G01X106810Y299092D01*
G01X106849Y299125D01*
G01X106885Y299160D01*
G01X106918Y299195D01*
G01X106949Y299232D01*
G01X106978Y299270D01*
G01X107005Y299310D01*
G01X107028Y299350D01*
G01X107050Y299391D01*
G01X107070Y299433D01*
G01X107087Y299477D01*
G01X107103Y299521D01*
G01X107116Y299566D01*
G01X107127Y299611D01*
G01X107136Y299658D01*
G01X107143Y299705D01*
G01X107148Y299752D01*
G01X107151Y299800D01*
G01X107152Y299849D01*
G01X107150Y299907D01*
G01X107147Y299964D01*
G01X107140Y300020D01*
G01X107131Y300074D01*
G01X107120Y300127D01*
G01X107106Y300179D01*
G01X107089Y300229D01*
G01X107069Y300278D01*
G01X107047Y300325D01*
G01X107023Y300370D01*
G01X106996Y300414D01*
G01X106966Y300457D01*
G01X106934Y300497D01*
G01X106899Y300536D01*
G01X106861Y300573D01*
G01X106821Y300609D01*
G01X106779Y300643D01*
G01X106733Y300674D01*
G01X106685Y300703D01*
G01X106634Y300731D01*
G01X106581Y300757D01*
G01X106526Y300781D01*
G01X106467Y300803D01*
G01X106406Y300822D01*
G01X106343Y300840D01*
G01X106276Y300855D01*
G01X106208Y300868D01*
G01X106136Y300879D01*
G01X106062Y300887D01*
G01X105985Y300893D01*
G01X105905Y300897D01*
G01X105824Y300898D01*
G37*

%LPC*%
G36*
G01X105737Y300690D02*
G01X105399Y300690D01*
G01X105397Y300572D01*
G01X105396Y300514D01*
G01X105393Y300337D01*
G01X105392Y300158D01*
G01X105391Y300098D01*
G01X105391Y300039D01*
G01X105390Y299979D01*
G01X105390Y299739D01*
G01X105389Y299679D01*
G01X105389Y298985D01*
G01X105727Y298985D01*
G01X105807Y298987D01*
G01X105884Y298993D01*
G01X105957Y299002D01*
G01X106025Y299014D01*
G01X106090Y299030D01*
G01X106151Y299048D01*
G01X106208Y299071D01*
G01X106261Y299096D01*
G01X106311Y299124D01*
G01X106356Y299155D01*
G01X106399Y299189D01*
G01X106438Y299226D01*
G01X106474Y299265D01*
G01X106506Y299307D01*
G01X106535Y299351D01*
G01X106561Y299398D01*
G01X106583Y299447D01*
G01X106602Y299499D01*
G01X106618Y299552D01*
G01X106631Y299608D01*
G01X106641Y299665D01*
G01X106649Y299725D01*
G01X106653Y299786D01*
G01X106654Y299849D01*
G01X106653Y299915D01*
G01X106648Y299978D01*
G01X106640Y300039D01*
G01X106630Y300097D01*
G01X106617Y300153D01*
G01X106600Y300207D01*
G01X106580Y300257D01*
G01X106557Y300305D01*
G01X106531Y300350D01*
G01X106501Y300393D01*
G01X106469Y300433D01*
G01X106433Y300470D01*
G01X106393Y300505D01*
G01X106351Y300536D01*
G01X106305Y300565D01*
G01X106256Y300591D01*
G01X106204Y300614D01*
G01X106147Y300634D01*
G01X106088Y300651D01*
G01X106025Y300665D01*
G01X105958Y300676D01*
G01X105888Y300684D01*
G01X105814Y300688D01*
G01X105737Y300690D01*
G37*

%LPD*%
G36*
G01X101163Y300898D02*
G01X98541Y300898D01*
G01X98541Y300713D01*
G01X99034Y300662D01*
G01X99035Y300604D01*
G01X99037Y300546D01*
G01X99038Y300488D01*
G01X99038Y300429D01*
G01X99040Y300313D01*
G01X99043Y300021D01*
G01X99043Y299962D01*
G01X99044Y299845D01*
G01X99044Y298409D01*
G01X99043Y298351D01*
G01X99043Y298235D01*
G01X99042Y298119D01*
G01X99041Y298060D01*
G01X99040Y297945D01*
G01X99039Y297886D01*
G01X99038Y297828D01*
G01X99038Y297770D01*
G01X99037Y297712D01*
G01X99035Y297654D01*
G01X99034Y297596D01*
G01X98541Y297543D01*
G01X98541Y297360D01*
G01X101264Y297360D01*
G01X101292Y298300D01*
G01X101031Y298300D01*
G01X100891Y297591D01*
G01X99537Y297591D01*
G01X99536Y297650D01*
G01X99534Y297708D01*
G01X99533Y297767D01*
G01X99533Y297826D01*
G01X99532Y297886D01*
G01X99531Y297945D01*
G01X99529Y298123D01*
G01X99529Y298183D01*
G01X99528Y298243D01*
G01X99528Y298364D01*
G01X99527Y298425D01*
G01X99527Y299054D01*
G01X100327Y299054D01*
G01X100401Y298543D01*
G01X100617Y298543D01*
G01X100617Y299788D01*
G01X100401Y299788D01*
G01X100322Y299267D01*
G01X99527Y299267D01*
G01X99527Y299857D01*
G01X99528Y299915D01*
G01X99528Y299974D01*
G01X99530Y300205D01*
G01X99530Y300263D01*
G01X99531Y300320D01*
G01X99533Y300435D01*
G01X99533Y300493D01*
G01X99534Y300550D01*
G01X99536Y300607D01*
G01X99537Y300664D01*
G01X100789Y300664D01*
G01X100931Y299966D01*
G01X101191Y299966D01*
G01X101163Y300898D01*
G37*

%LPD*%
G54D12*
G01X45689Y196057D02*
G01X39143Y196057D01*
G01X36743Y192786D02*
G01X30927Y196057D01*
G01X36743Y199329D01*
G54D16*
G01X56888Y75438D02*
G01X56842Y75529D01*
G01X56705Y75572D01*
G01X56570Y75572D01*
G01X56433Y75529D01*
G01X56388Y75438D01*
G01X56433Y75346D01*
G01X56525Y75300D01*
G01X56751Y75255D01*
G01X56842Y75209D01*
G01X56888Y75120D01*
G01X56888Y75074D01*
G01X56842Y74983D01*
G01X56705Y74937D01*
G01X56570Y74937D01*
G01X56433Y74983D01*
G01X56388Y75074D01*
G01X57459Y75892D02*
G01X57325Y75846D01*
G01X57233Y75709D01*
G01X57188Y75483D01*
G01X57188Y75346D01*
G01X57233Y75120D01*
G01X57325Y74983D01*
G01X57459Y74937D01*
G01X57551Y74937D01*
G01X57688Y74983D01*
G01X57779Y75120D01*
G01X57823Y75346D01*
G01X57823Y75483D01*
G01X57779Y75709D01*
G01X57688Y75846D01*
G01X57551Y75892D01*
G01X57459Y75892D01*
G01X56888Y78069D02*
G01X56842Y78160D01*
G01X56705Y78204D01*
G01X56570Y78204D01*
G01X56433Y78160D01*
G01X56388Y78069D01*
G01X56433Y77978D01*
G01X56525Y77932D01*
G01X56751Y77886D01*
G01X56842Y77840D01*
G01X56888Y77751D01*
G01X56888Y77706D01*
G01X56842Y77614D01*
G01X56705Y77569D01*
G01X56570Y77569D01*
G01X56433Y77614D01*
G01X56388Y77706D01*
G01X57188Y78341D02*
G01X57279Y78386D01*
G01X57414Y78524D01*
G01X57414Y77569D01*
G01X56888Y80609D02*
G01X56842Y80700D01*
G01X56705Y80744D01*
G01X56570Y80744D01*
G01X56433Y80700D01*
G01X56388Y80609D01*
G01X56433Y80518D01*
G01X56525Y80472D01*
G01X56751Y80426D01*
G01X56842Y80380D01*
G01X56888Y80291D01*
G01X56888Y80246D01*
G01X56842Y80154D01*
G01X56705Y80109D01*
G01X56570Y80109D01*
G01X56433Y80154D01*
G01X56388Y80246D01*
G01X57233Y80835D02*
G01X57233Y80881D01*
G01X57279Y80972D01*
G01X57325Y81018D01*
G01X57414Y81064D01*
G01X57597Y81064D01*
G01X57688Y81018D01*
G01X57734Y80972D01*
G01X57779Y80881D01*
G01X57779Y80789D01*
G01X57734Y80700D01*
G01X57642Y80563D01*
G01X57188Y80109D01*
G01X57823Y80109D01*
G01X56888Y83149D02*
G01X56842Y83240D01*
G01X56705Y83284D01*
G01X56570Y83284D01*
G01X56433Y83240D01*
G01X56388Y83149D01*
G01X56433Y83058D01*
G01X56525Y83012D01*
G01X56751Y82966D01*
G01X56842Y82920D01*
G01X56888Y82831D01*
G01X56888Y82786D01*
G01X56842Y82694D01*
G01X56705Y82649D01*
G01X56570Y82649D01*
G01X56433Y82694D01*
G01X56388Y82786D01*
G01X57279Y83604D02*
G01X57779Y83604D01*
G01X57505Y83240D01*
G01X57642Y83240D01*
G01X57734Y83195D01*
G01X57779Y83149D01*
G01X57823Y83012D01*
G01X57823Y82920D01*
G01X57779Y82786D01*
G01X57688Y82694D01*
G01X57551Y82649D01*
G01X57414Y82649D01*
G01X57279Y82694D01*
G01X57233Y82740D01*
G01X57188Y82831D01*
G01X47498Y85852D02*
G01X47498Y84896D01*
G01X47498Y85852D02*
G01X47906Y85852D01*
G01X48044Y85806D01*
G01X48089Y85760D01*
G01X48135Y85669D01*
G01X48135Y85577D01*
G01X48089Y85488D01*
G01X48044Y85443D01*
G01X47906Y85397D01*
G01X47498Y85397D01*
G01X47815Y85397D02*
G01X48135Y84896D01*
G01X49070Y85714D02*
G01X48978Y85806D01*
G01X48844Y85852D01*
G01X48661Y85852D01*
G01X48524Y85806D01*
G01X48435Y85714D01*
G01X48435Y85623D01*
G01X48480Y85531D01*
G01X48524Y85488D01*
G01X48615Y85443D01*
G01X48889Y85351D01*
G01X48978Y85305D01*
G01X49024Y85260D01*
G01X49070Y85168D01*
G01X49070Y85034D01*
G01X48978Y84942D01*
G01X48844Y84896D01*
G01X48661Y84896D01*
G01X48524Y84942D01*
G01X48435Y85034D01*
G01X49690Y85852D02*
G01X49690Y84896D01*
G01X49369Y85852D02*
G01X50007Y85852D01*
G01X46908Y83083D02*
G01X46865Y83174D01*
G01X46774Y83266D01*
G01X46682Y83312D01*
G01X46499Y83312D01*
G01X46410Y83266D01*
G01X46319Y83174D01*
G01X46273Y83083D01*
G01X46228Y82948D01*
G01X46228Y82720D01*
G01X46273Y82583D01*
G01X46319Y82494D01*
G01X46410Y82402D01*
G01X46499Y82356D01*
G01X46682Y82356D01*
G01X46774Y82402D01*
G01X46865Y82494D01*
G01X46908Y82583D01*
G01X46908Y82720D01*
G01X46682Y82720D02*
G01X46908Y82720D01*
G01X47210Y83312D02*
G01X47210Y82356D01*
G01X47210Y83312D02*
G01X47619Y83312D01*
G01X47754Y83266D01*
G01X47800Y83220D01*
G01X47845Y83129D01*
G01X47845Y82991D01*
G01X47800Y82903D01*
G01X47754Y82857D01*
G01X47619Y82811D01*
G01X47210Y82811D01*
G01X48145Y83312D02*
G01X48145Y82356D01*
G01X48719Y83312D02*
G01X48628Y83266D01*
G01X48536Y83174D01*
G01X48491Y83083D01*
G01X48445Y82948D01*
G01X48445Y82720D01*
G01X48491Y82583D01*
G01X48536Y82494D01*
G01X48628Y82402D01*
G01X48719Y82356D01*
G01X48900Y82356D01*
G01X48991Y82402D01*
G01X49082Y82494D01*
G01X49128Y82583D01*
G01X49174Y82720D01*
G01X49174Y82948D01*
G01X49128Y83083D01*
G01X49082Y83174D01*
G01X48991Y83266D01*
G01X48900Y83312D01*
G01X48719Y83312D01*
G01X49745Y83312D02*
G01X49608Y83266D01*
G01X49519Y83129D01*
G01X49474Y82903D01*
G01X49474Y82765D01*
G01X49519Y82539D01*
G01X49608Y82402D01*
G01X49745Y82356D01*
G01X49837Y82356D01*
G01X49974Y82402D01*
G01X50063Y82539D01*
G01X50109Y82765D01*
G01X50109Y82903D01*
G01X50063Y83129D01*
G01X49974Y83266D01*
G01X49837Y83312D01*
G01X49745Y83312D01*
G01X48577Y45212D02*
G01X48577Y44256D01*
G01X48260Y45212D02*
G01X48897Y45212D01*
G01X49197Y45212D02*
G01X49832Y44256D01*
G01X49832Y45212D02*
G01X49197Y44256D01*
G01X48260Y47752D02*
G01X48260Y46796D01*
G01X48260Y47752D02*
G01X48668Y47752D01*
G01X48806Y47706D01*
G01X48851Y47660D01*
G01X48897Y47569D01*
G01X48897Y47477D01*
G01X48851Y47388D01*
G01X48806Y47343D01*
G01X48668Y47297D01*
G01X48260Y47297D01*
G01X48577Y47297D02*
G01X48897Y46796D01*
G01X49197Y47752D02*
G01X49832Y46796D01*
G01X49832Y47752D02*
G01X49197Y46796D01*
G54D10*
G01X124460Y-23368D02*
G01X72828Y-23368D01*
G01X51631Y-23368D02*
G01X0Y-23368D01*
G01X123190Y-22606D02*
G01X124460Y-23368D01*
G01X123190Y-24130D01*
G01X1270Y-22606D02*
G01X0Y-23368D01*
G01X1270Y-24130D01*
G01X52138Y-22443D02*
G01X52369Y-22329D01*
G01X52717Y-21983D01*
G01X52717Y-24406D01*
G01X53594Y-22560D02*
G01X53594Y-22443D01*
G01X53708Y-22212D01*
G01X53825Y-22098D01*
G01X54056Y-21983D01*
G01X54518Y-21983D01*
G01X54749Y-22098D01*
G01X54864Y-22212D01*
G01X54978Y-22443D01*
G01X54978Y-22674D01*
G01X54864Y-22905D01*
G01X54632Y-23253D01*
G01X53479Y-24406D01*
G01X55095Y-24406D01*
G01X57010Y-21983D02*
G01X55857Y-23599D01*
G01X57589Y-23599D01*
G01X57010Y-21983D02*
G01X57010Y-24406D01*
G01X58465Y-23830D02*
G01X58351Y-23944D01*
G01X58465Y-24061D01*
G01X58582Y-23944D01*
G01X58465Y-23830D01*
G01X60497Y-21983D02*
G01X59344Y-23599D01*
G01X61074Y-23599D01*
G01X60497Y-21983D02*
G01X60497Y-24406D01*
G01X63223Y-22329D02*
G01X63106Y-22098D01*
G01X62760Y-21983D01*
G01X62529Y-21983D01*
G01X62184Y-22098D01*
G01X61953Y-22443D01*
G01X61836Y-23022D01*
G01X61836Y-23599D01*
G01X61953Y-24061D01*
G01X62184Y-24292D01*
G01X62529Y-24406D01*
G01X62646Y-24406D01*
G01X62992Y-24292D01*
G01X63223Y-24061D01*
G01X63337Y-23713D01*
G01X63337Y-23599D01*
G01X63223Y-23253D01*
G01X62992Y-23022D01*
G01X62646Y-22905D01*
G01X62529Y-22905D01*
G01X62184Y-23022D01*
G01X61953Y-23253D01*
G01X61836Y-23599D01*
G01X64792Y-21983D02*
G01X64447Y-22098D01*
G01X64216Y-22443D01*
G01X64099Y-23022D01*
G01X64099Y-23368D01*
G01X64216Y-23944D01*
G01X64447Y-24292D01*
G01X64792Y-24406D01*
G01X65024Y-24406D01*
G01X65369Y-24292D01*
G01X65600Y-23944D01*
G01X65717Y-23368D01*
G01X65717Y-23022D01*
G01X65600Y-22443D01*
G01X65369Y-22098D01*
G01X65024Y-21983D01*
G01X64792Y-21983D01*
G01X66479Y-22791D02*
G01X66479Y-24406D01*
G01X66479Y-23253D02*
G01X66824Y-22905D01*
G01X67056Y-22791D01*
G01X67401Y-22791D01*
G01X67632Y-22905D01*
G01X67749Y-23253D01*
G01X67749Y-24406D01*
G01X67749Y-23253D02*
G01X68094Y-22905D01*
G01X68326Y-22791D01*
G01X68671Y-22791D01*
G01X68902Y-22905D01*
G01X69019Y-23253D01*
G01X69019Y-24406D01*
G01X69781Y-22791D02*
G01X69781Y-24406D01*
G01X69781Y-23253D02*
G01X70126Y-22905D01*
G01X70358Y-22791D01*
G01X70703Y-22791D01*
G01X70934Y-22905D01*
G01X71051Y-23253D01*
G01X71051Y-24406D01*
G01X71051Y-23253D02*
G01X71396Y-22905D01*
G01X71628Y-22791D01*
G01X71973Y-22791D01*
G01X72204Y-22905D01*
G01X72321Y-23253D01*
G01X72321Y-24406D01*
G01X-3556Y380238D02*
G01X-3556Y201248D01*
G01X-3556Y179243D02*
G01X-3556Y254D01*
G01X-4318Y378968D02*
G01X-3556Y380238D01*
G01X-2794Y378968D01*
G01X-4318Y1524D02*
G01X-3556Y254D01*
G01X-2794Y1524D01*
G01X-4942Y179982D02*
G01X-4942Y181252D01*
G01X-4017Y180558D01*
G01X-4017Y180906D01*
G01X-3903Y181135D01*
G01X-3786Y181252D01*
G01X-3441Y181366D01*
G01X-3210Y181366D01*
G01X-2862Y181252D01*
G01X-2633Y181021D01*
G01X-2516Y180675D01*
G01X-2516Y180327D01*
G01X-2633Y179982D01*
G01X-2747Y179865D01*
G01X-2978Y179751D01*
G01X-4942Y183746D02*
G01X-2516Y182590D01*
G01X-4942Y182128D02*
G01X-4942Y183746D01*
G01X-4132Y186009D02*
G01X-3786Y185892D01*
G01X-3555Y185661D01*
G01X-3441Y185316D01*
G01X-3441Y185199D01*
G01X-3555Y184854D01*
G01X-3786Y184622D01*
G01X-4132Y184508D01*
G01X-4248Y184508D01*
G01X-4594Y184622D01*
G01X-4825Y184854D01*
G01X-4942Y185199D01*
G01X-4942Y185316D01*
G01X-4825Y185661D01*
G01X-4594Y185892D01*
G01X-4132Y186009D01*
G01X-3555Y186009D01*
G01X-2978Y185892D01*
G01X-2633Y185661D01*
G01X-2516Y185316D01*
G01X-2516Y185085D01*
G01X-2633Y184739D01*
G01X-2862Y184622D01*
G01X-3093Y186886D02*
G01X-2978Y186771D01*
G01X-2862Y186886D01*
G01X-2978Y187002D01*
G01X-3093Y186886D01*
G01X-4132Y189263D02*
G01X-3786Y189149D01*
G01X-3555Y188918D01*
G01X-3441Y188572D01*
G01X-3441Y188455D01*
G01X-3555Y188110D01*
G01X-3786Y187879D01*
G01X-4132Y187764D01*
G01X-4248Y187764D01*
G01X-4594Y187879D01*
G01X-4825Y188110D01*
G01X-4942Y188455D01*
G01X-4942Y188572D01*
G01X-4825Y188918D01*
G01X-4594Y189149D01*
G01X-4132Y189263D01*
G01X-3555Y189263D01*
G01X-2978Y189149D01*
G01X-2633Y188918D01*
G01X-2516Y188572D01*
G01X-2516Y188341D01*
G01X-2633Y187993D01*
G01X-2862Y187879D01*
G01X-4942Y190604D02*
G01X-4825Y190256D01*
G01X-4594Y190142D01*
G01X-4363Y190142D01*
G01X-4132Y190256D01*
G01X-4017Y190487D01*
G01X-3903Y190950D01*
G01X-3786Y191295D01*
G01X-3555Y191526D01*
G01X-3324Y191643D01*
G01X-2978Y191643D01*
G01X-2747Y191526D01*
G01X-2633Y191412D01*
G01X-2516Y191066D01*
G01X-2516Y190604D01*
G01X-2633Y190256D01*
G01X-2747Y190142D01*
G01X-2978Y190025D01*
G01X-3324Y190025D01*
G01X-3555Y190142D01*
G01X-3786Y190373D01*
G01X-3903Y190718D01*
G01X-4017Y191181D01*
G01X-4132Y191412D01*
G01X-4363Y191526D01*
G01X-4594Y191526D01*
G01X-4825Y191412D01*
G01X-4942Y191066D01*
G01X-4942Y190604D01*
G01X-4942Y193558D02*
G01X-3324Y192405D01*
G01X-3324Y194137D01*
G01X-4942Y193558D02*
G01X-2516Y193558D01*
G01X-4132Y194899D02*
G01X-2516Y194899D01*
G01X-3672Y194899D02*
G01X-4017Y195245D01*
G01X-4132Y195476D01*
G01X-4132Y195821D01*
G01X-4017Y196052D01*
G01X-3672Y196169D01*
G01X-2516Y196169D01*
G01X-3672Y196169D02*
G01X-4017Y196515D01*
G01X-4132Y196746D01*
G01X-4132Y197091D01*
G01X-4017Y197322D01*
G01X-3672Y197439D01*
G01X-2516Y197439D01*
G01X-4132Y198201D02*
G01X-2516Y198201D01*
G01X-3672Y198201D02*
G01X-4017Y198547D01*
G01X-4132Y198778D01*
G01X-4132Y199123D01*
G01X-4017Y199354D01*
G01X-3672Y199471D01*
G01X-2516Y199471D01*
G01X-3672Y199471D02*
G01X-4017Y199817D01*
G01X-4132Y200048D01*
G01X-4132Y200393D01*
G01X-4017Y200624D01*
G01X-3672Y200741D01*
G01X-2516Y200741D01*
G54D16*
G01X18310Y3924D02*
G01X18125Y4109D01*
G01X17848Y4201D01*
G01X17480Y4201D01*
G01X17203Y4109D01*
G01X17018Y3924D01*
G01X17018Y3741D01*
G01X17109Y3555D01*
G01X17203Y3461D01*
G01X17386Y3370D01*
G01X17942Y3185D01*
G01X18125Y3093D01*
G01X18219Y3002D01*
G01X18310Y2816D01*
G01X18310Y2539D01*
G01X18125Y2354D01*
G01X17848Y2263D01*
G01X17480Y2263D01*
G01X17203Y2354D01*
G01X17018Y2539D01*
G01X18920Y3555D02*
G01X19291Y2263D01*
G01X19659Y3555D02*
G01X19291Y2263D01*
G01X19659Y3555D02*
G01X20027Y2263D01*
G01X20398Y3555D02*
G01X20027Y2263D01*
G01X21008Y4201D02*
G01X21099Y4109D01*
G01X21193Y4201D01*
G01X21099Y4295D01*
G01X21008Y4201D01*
G01X21099Y3555D02*
G01X21099Y2263D01*
G01X22080Y4201D02*
G01X22080Y2631D01*
G01X22171Y2354D01*
G01X22357Y2263D01*
G01X22542Y2263D01*
G01X21803Y3555D02*
G01X22448Y3555D01*
G01X24259Y3279D02*
G01X24074Y3461D01*
G01X23888Y3555D01*
G01X23611Y3555D01*
G01X23428Y3461D01*
G01X23243Y3279D01*
G01X23152Y3002D01*
G01X23152Y2816D01*
G01X23243Y2539D01*
G01X23428Y2354D01*
G01X23611Y2263D01*
G01X23888Y2263D01*
G01X24074Y2354D01*
G01X24259Y2539D01*
G01X24869Y4201D02*
G01X24869Y2263D01*
G01X24869Y3185D02*
G01X25146Y3461D01*
G01X25331Y3555D01*
G01X25608Y3555D01*
G01X25793Y3461D01*
G01X25885Y3185D01*
G01X25885Y2263D01*
G01X27917Y4201D02*
G01X27917Y2263D01*
G01X29634Y3555D02*
G01X29634Y2263D01*
G01X29634Y3279D02*
G01X29451Y3461D01*
G01X29265Y3555D01*
G01X28989Y3555D01*
G01X28803Y3461D01*
G01X28618Y3279D01*
G01X28526Y3002D01*
G01X28526Y2816D01*
G01X28618Y2539D01*
G01X28803Y2354D01*
G01X28989Y2263D01*
G01X29265Y2263D01*
G01X29451Y2354D01*
G01X29634Y2539D01*
G01X30243Y4201D02*
G01X30243Y2263D01*
G01X30243Y3279D02*
G01X30429Y3461D01*
G01X30614Y3555D01*
G01X30891Y3555D01*
G01X31076Y3461D01*
G01X31259Y3279D01*
G01X31353Y3002D01*
G01X31353Y2816D01*
G01X31259Y2539D01*
G01X31076Y2354D01*
G01X30891Y2263D01*
G01X30614Y2263D01*
G01X30429Y2354D01*
G01X30243Y2539D01*
G01X31963Y3002D02*
G01X33070Y3002D01*
G01X33070Y3185D01*
G01X32979Y3370D01*
G01X32885Y3461D01*
G01X32702Y3555D01*
G01X32423Y3555D01*
G01X32240Y3461D01*
G01X32054Y3279D01*
G01X31963Y3002D01*
G01X31963Y2816D01*
G01X32054Y2539D01*
G01X32240Y2354D01*
G01X32423Y2263D01*
G01X32702Y2263D01*
G01X32885Y2354D01*
G01X33070Y2539D01*
G01X33680Y4201D02*
G01X33680Y2263D01*
G01X35306Y3279D02*
G01X35214Y3461D01*
G01X34937Y3555D01*
G01X34658Y3555D01*
G01X34381Y3461D01*
G01X34290Y3279D01*
G01X34381Y3093D01*
G01X34566Y3002D01*
G01X35029Y2908D01*
G01X35214Y2816D01*
G01X35306Y2631D01*
G01X35306Y2539D01*
G01X35214Y2354D01*
G01X34937Y2263D01*
G01X34658Y2263D01*
G01X34381Y2354D01*
G01X34290Y2539D01*
G01X37985Y4571D02*
G01X37800Y4386D01*
G01X37614Y4109D01*
G01X37429Y3741D01*
G01X37338Y3279D01*
G01X37338Y2908D01*
G01X37429Y2445D01*
G01X37614Y2077D01*
G01X37800Y1800D01*
G01X37985Y1615D01*
G01X39611Y3279D02*
G01X39517Y3461D01*
G01X39240Y3555D01*
G01X38963Y3555D01*
G01X38686Y3461D01*
G01X38595Y3279D01*
G01X38686Y3093D01*
G01X38872Y3002D01*
G01X39331Y2908D01*
G01X39517Y2816D01*
G01X39611Y2631D01*
G01X39611Y2539D01*
G01X39517Y2354D01*
G01X39240Y2263D01*
G01X38963Y2263D01*
G01X38686Y2354D01*
G01X38595Y2539D01*
G01X40774Y4201D02*
G01X40497Y4109D01*
G01X40312Y3832D01*
G01X40220Y3370D01*
G01X40220Y3093D01*
G01X40312Y2631D01*
G01X40497Y2354D01*
G01X40774Y2263D01*
G01X40957Y2263D01*
G01X41236Y2354D01*
G01X41419Y2631D01*
G01X41513Y3093D01*
G01X41513Y3370D01*
G01X41419Y3832D01*
G01X41236Y4109D01*
G01X40957Y4201D01*
G01X40774Y4201D01*
G01X42306Y2631D02*
G01X42214Y2539D01*
G01X42123Y2631D01*
G01X42214Y2725D01*
G01X42306Y2631D01*
G01X42306Y2445D01*
G01X42123Y2263D01*
G01X43931Y3279D02*
G01X43840Y3461D01*
G01X43563Y3555D01*
G01X43286Y3555D01*
G01X43009Y3461D01*
G01X42915Y3279D01*
G01X43009Y3093D01*
G01X43192Y3002D01*
G01X43654Y2908D01*
G01X43840Y2816D01*
G01X43931Y2631D01*
G01X43931Y2539D01*
G01X43840Y2354D01*
G01X43563Y2263D01*
G01X43286Y2263D01*
G01X43009Y2354D01*
G01X42915Y2539D01*
G01X44541Y3832D02*
G01X44726Y3924D01*
G01X45003Y4201D01*
G01X45003Y2263D01*
G01X45798Y2631D02*
G01X45707Y2539D01*
G01X45613Y2631D01*
G01X45707Y2725D01*
G01X45798Y2631D01*
G01X45798Y2445D01*
G01X45613Y2263D01*
G01X46408Y3002D02*
G01X47515Y3002D01*
G01X47515Y3185D01*
G01X47424Y3370D01*
G01X47332Y3461D01*
G01X47147Y3555D01*
G01X46870Y3555D01*
G01X46685Y3461D01*
G01X46499Y3279D01*
G01X46408Y3002D01*
G01X46408Y2816D01*
G01X46499Y2539D01*
G01X46685Y2354D01*
G01X46870Y2263D01*
G01X47147Y2263D01*
G01X47332Y2354D01*
G01X47515Y2539D01*
G01X48402Y4201D02*
G01X48402Y2631D01*
G01X48496Y2354D01*
G01X48679Y2263D01*
G01X48864Y2263D01*
G01X48125Y3555D02*
G01X48773Y3555D01*
G01X50584Y3279D02*
G01X50398Y3461D01*
G01X50213Y3555D01*
G01X49936Y3555D01*
G01X49750Y3461D01*
G01X49568Y3279D01*
G01X49474Y3002D01*
G01X49474Y2816D01*
G01X49568Y2539D01*
G01X49750Y2354D01*
G01X49936Y2263D01*
G01X50213Y2263D01*
G01X50398Y2354D01*
G01X50584Y2539D01*
G01X51193Y4571D02*
G01X51376Y4386D01*
G01X51562Y4109D01*
G01X51747Y3741D01*
G01X51838Y3279D01*
G01X51838Y2908D01*
G01X51747Y2445D01*
G01X51562Y2077D01*
G01X51376Y1800D01*
G01X51193Y1615D01*
G01X54978Y3555D02*
G01X54978Y2263D01*
G01X54978Y3279D02*
G01X54795Y3461D01*
G01X54610Y3555D01*
G01X54333Y3555D01*
G01X54147Y3461D01*
G01X53962Y3279D01*
G01X53870Y3002D01*
G01X53870Y2816D01*
G01X53962Y2539D01*
G01X54147Y2354D01*
G01X54333Y2263D01*
G01X54610Y2263D01*
G01X54795Y2354D01*
G01X54978Y2539D01*
G01X55587Y3555D02*
G01X55587Y2263D01*
G01X55587Y3002D02*
G01X55681Y3279D01*
G01X55867Y3461D01*
G01X56050Y3555D01*
G01X56327Y3555D01*
G01X56936Y3002D02*
G01X58046Y3002D01*
G01X58046Y3185D01*
G01X57952Y3370D01*
G01X57861Y3461D01*
G01X57675Y3555D01*
G01X57398Y3555D01*
G01X57213Y3461D01*
G01X57030Y3279D01*
G01X56936Y3002D01*
G01X56936Y2816D01*
G01X57030Y2539D01*
G01X57213Y2354D01*
G01X57398Y2263D01*
G01X57675Y2263D01*
G01X57861Y2354D01*
G01X58046Y2539D01*
G01X60540Y3555D02*
G01X60355Y3461D01*
G01X60170Y3279D01*
G01X60078Y3002D01*
G01X60078Y2816D01*
G01X60170Y2539D01*
G01X60355Y2354D01*
G01X60540Y2263D01*
G01X60817Y2263D01*
G01X61000Y2354D01*
G01X61186Y2539D01*
G01X61277Y2816D01*
G01X61277Y3002D01*
G01X61186Y3279D01*
G01X61000Y3461D01*
G01X60817Y3555D01*
G01X60540Y3555D01*
G01X61887Y3555D02*
G01X61887Y2263D01*
G01X61887Y3185D02*
G01X62166Y3461D01*
G01X62349Y3555D01*
G01X62626Y3555D01*
G01X62811Y3461D01*
G01X62903Y3185D01*
G01X62903Y2263D01*
G01X65214Y4201D02*
G01X65214Y2631D01*
G01X65305Y2354D01*
G01X65491Y2263D01*
G01X65674Y2263D01*
G01X64935Y3555D02*
G01X65582Y3555D01*
G01X66283Y4201D02*
G01X66283Y2263D01*
G01X66283Y3185D02*
G01X66560Y3461D01*
G01X66746Y3555D01*
G01X67022Y3555D01*
G01X67208Y3461D01*
G01X67299Y3185D01*
G01X67299Y2263D01*
G01X67909Y3002D02*
G01X69019Y3002D01*
G01X69019Y3185D01*
G01X68925Y3370D01*
G01X68834Y3461D01*
G01X68648Y3555D01*
G01X68371Y3555D01*
G01X68186Y3461D01*
G01X68003Y3279D01*
G01X67909Y3002D01*
G01X67909Y2816D01*
G01X68003Y2539D01*
G01X68186Y2354D01*
G01X68371Y2263D01*
G01X68648Y2263D01*
G01X68834Y2354D01*
G01X69019Y2539D01*
G01X72435Y3741D02*
G01X72344Y3924D01*
G01X72158Y4109D01*
G01X71973Y4201D01*
G01X71605Y4201D01*
G01X71419Y4109D01*
G01X71234Y3924D01*
G01X71142Y3741D01*
G01X71051Y3461D01*
G01X71051Y3002D01*
G01X71142Y2725D01*
G01X71234Y2539D01*
G01X71419Y2354D01*
G01X71605Y2263D01*
G01X71973Y2263D01*
G01X72158Y2354D01*
G01X72344Y2539D01*
G01X72435Y2725D01*
G01X72435Y3002D01*
G01X71973Y3002D02*
G01X72435Y3002D01*
G01X73045Y4201D02*
G01X73045Y2263D01*
G01X73045Y4201D02*
G01X74338Y2263D01*
G01X74338Y4201D02*
G01X74338Y2263D01*
G01X74947Y4201D02*
G01X74947Y2263D01*
G01X74947Y4201D02*
G01X75595Y4201D01*
G01X75872Y4109D01*
G01X76057Y3924D01*
G01X76149Y3741D01*
G01X76240Y3461D01*
G01X76240Y3002D01*
G01X76149Y2725D01*
G01X76057Y2539D01*
G01X75872Y2354D01*
G01X75595Y2263D01*
G01X74947Y2263D01*
G01X79288Y3279D02*
G01X79197Y3461D01*
G01X78920Y3555D01*
G01X78643Y3555D01*
G01X78366Y3461D01*
G01X78272Y3279D01*
G01X78366Y3093D01*
G01X78549Y3002D01*
G01X79011Y2908D01*
G01X79197Y2816D01*
G01X79288Y2631D01*
G01X79288Y2539D01*
G01X79197Y2354D01*
G01X78920Y2263D01*
G01X78643Y2263D01*
G01X78366Y2354D01*
G01X78272Y2539D01*
G01X79898Y4201D02*
G01X79992Y4109D01*
G01X80083Y4201D01*
G01X79992Y4295D01*
G01X79898Y4201D01*
G01X79992Y3555D02*
G01X79992Y2263D01*
G01X81800Y4201D02*
G01X81800Y2263D01*
G01X81800Y3279D02*
G01X81617Y3461D01*
G01X81432Y3555D01*
G01X81155Y3555D01*
G01X80970Y3461D01*
G01X80784Y3279D01*
G01X80693Y3002D01*
G01X80693Y2816D01*
G01X80784Y2539D01*
G01X80970Y2354D01*
G01X81155Y2263D01*
G01X81432Y2263D01*
G01X81617Y2354D01*
G01X81800Y2539D01*
G01X82410Y3002D02*
G01X83520Y3002D01*
G01X83520Y3185D01*
G01X83426Y3370D01*
G01X83334Y3461D01*
G01X83149Y3555D01*
G01X82872Y3555D01*
G01X82689Y3461D01*
G01X82504Y3279D01*
G01X82410Y3002D01*
G01X82410Y2816D01*
G01X82504Y2539D01*
G01X82689Y2354D01*
G01X82872Y2263D01*
G01X83149Y2263D01*
G01X83334Y2354D01*
G01X83520Y2539D01*
G54D12*
G01X115539Y196311D02*
G01X115539Y202857D01*
G01X112267Y205257D02*
G01X115539Y211073D01*
G01X118811Y205257D01*
G01X34513Y325343D02*
G01X34513Y318797D01*
G01X37785Y316397D02*
G01X34513Y310581D01*
G01X31241Y316397D01*
G01X114269Y315945D02*
G01X107723Y315945D01*
G01X105323Y312673D02*
G01X99507Y315945D01*
G01X105323Y319217D01*
G54D26*
G01X73257Y328168D02*
G01X73257Y326940D01*
G01X73871Y326490D02*
G01X73257Y325399D01*
G01X72644Y326490D01*
G01X84582Y208026D02*
G01X84582Y206798D01*
G01X85195Y206348D02*
G01X84582Y205257D01*
G01X83968Y206348D01*
G01X82190Y208026D02*
G01X82190Y206798D01*
G01X82803Y206348D02*
G01X82190Y205257D01*
G01X81576Y206348D01*
G01X79650Y208026D02*
G01X79650Y206798D01*
G01X80263Y206348D02*
G01X79650Y205257D01*
G01X79036Y206348D01*
G01X77110Y208026D02*
G01X77110Y206798D01*
G01X77723Y206348D02*
G01X77110Y205257D01*
G01X76496Y206348D01*
G54D10*
G75*
G01X50800Y126746D02*
G02X48768Y126746I-1016J-70D01*
G01*
G75*
G01X89154Y126746D02*
G02X87122Y126746I-1016J-70D01*
G01*
G75*
G01X89154Y294894D02*
G02X87122Y294894I-1016J-70D01*
G01*
G75*
G01X48260Y294894D02*
G02X46228Y294894I-1016J-70D01*
G01*
G75*
G01X28448Y275590D02*
G03X28448Y275590I-508J0D01*
G01*
G75*
G01X27114Y328930D02*
G03X27114Y328930I-4000J0D01*
G01*
G75*
G01X62166Y339344D02*
G03X62166Y339344I-4000J0D01*
G01*
G75*
G01X122110Y304292D02*
G03X122110Y304292I-4000J0D01*
G01*
G75*
G01X79438Y218186D02*
G03X79438Y218186I-4000J0D01*
G01*
G75*
G01X111696Y185166D02*
G03X111696Y185166I-4000J0D01*
G01*
G75*
G01X61912Y188214D02*
G03X61912Y188214I-4000J0D01*
G01*
M00*
M02*
