G04 Layer: TopSolderMaskLayer*
G04 EasyEDA v6.1.52, Thu, 18 Jul 2019 05:09:05 GMT*
G04 8382f10332f7419696121afc9098c204,10*
G04 Gerber Generator version 0.2*
G04 Scale: 100 percent, Rotated: No, Reflected: No *
G04 Dimensions in millimeters *
G04 leading zeros omitted , absolute positions ,3 integer and 3 decimal *
%FSLAX33Y33*%
%MOMM*%
G90*
G71D02*

%ADD27C,1.903197*%
%ADD28R,1.903197X1.903197*%
%ADD30C,2.203196*%
%ADD31R,1.727200X1.727200*%
%ADD32C,1.727200*%

%LPD*%
G54D27*
G01X12510Y193653D03*
G36*
G01X8887Y192702D02*
G01X8887Y194604D01*
G01X10792Y194604D01*
G01X10792Y192702D01*
G01X8887Y192702D01*
G37*
G01X15180Y193653D03*
G01X12510Y331829D03*
G36*
G01X8887Y330878D02*
G01X8887Y332780D01*
G01X10792Y332780D01*
G01X10792Y330878D01*
G01X8887Y330878D01*
G37*
G01X15180Y331829D03*
G36*
G01X31838Y37213D02*
G01X31838Y39415D01*
G01X34041Y39415D01*
G01X34041Y37213D01*
G01X31838Y37213D01*
G37*
G54D30*
G01X32939Y43314D03*
G36*
G01X67716Y38760D02*
G01X67716Y40487D01*
G01X69443Y40487D01*
G01X69443Y38760D01*
G01X67716Y38760D01*
G37*
G54D32*
G01X68580Y37084D03*
G01X71120Y39624D03*
G01X71120Y37084D03*
G01X73660Y39624D03*
G01X73660Y37084D03*
G01X76200Y39624D03*
G01X76200Y37084D03*
G01X78740Y39624D03*
G01X78740Y37084D03*
G01X81280Y39624D03*
G01X81280Y37084D03*
G01X83820Y39624D03*
G01X83820Y37084D03*
G01X86360Y39624D03*
G01X86360Y37084D03*
G01X88900Y39624D03*
G01X88900Y37084D03*
G01X91440Y39624D03*
G01X91440Y37084D03*
G01X93980Y39624D03*
G01X93980Y37084D03*
G01X96520Y39624D03*
G01X96520Y37084D03*
G01X99060Y39624D03*
G01X99060Y37084D03*
G01X101600Y39624D03*
G01X101600Y37084D03*
G01X104140Y39624D03*
G01X104140Y37084D03*
G01X106680Y39624D03*
G01X106680Y37084D03*
G01X109220Y39624D03*
G01X109220Y37084D03*
G01X111760Y39624D03*
G01X111760Y37084D03*
G01X114300Y39624D03*
G01X114300Y37084D03*
G01X116840Y39624D03*
G01X116840Y37084D03*
G01X58420Y197358D03*
G01X90170Y207518D03*
G01X119634Y185674D03*
G01X21590Y308356D03*
G01X78740Y323088D03*
G01X99822Y325374D03*
G36*
G01X53492Y36220D02*
G01X53492Y37947D01*
G01X55219Y37947D01*
G01X55219Y36220D01*
G01X53492Y36220D01*
G37*
G01X51816Y37084D03*
G01X54356Y39624D03*
G01X51816Y39624D03*
G01X54356Y42164D03*
G01X51816Y42164D03*
G01X54356Y44704D03*
G01X51816Y44704D03*
G01X54356Y47244D03*
G01X51816Y47244D03*
G01X54356Y49784D03*
G01X51816Y49784D03*
G01X54356Y52324D03*
G01X51816Y52324D03*
G01X54356Y54864D03*
G01X51816Y54864D03*
G01X54356Y57404D03*
G01X51816Y57404D03*
G01X54356Y59944D03*
G01X51816Y59944D03*
G01X54356Y62484D03*
G01X51816Y62484D03*
G01X54356Y65024D03*
G01X51816Y65024D03*
G01X54356Y67564D03*
G01X51816Y67564D03*
G01X54356Y70104D03*
G01X51816Y70104D03*
G01X54356Y72644D03*
G01X51816Y72644D03*
G01X54356Y75184D03*
G01X51816Y75184D03*
G01X54356Y77724D03*
G01X51816Y77724D03*
G01X54356Y80264D03*
G01X51816Y80264D03*
G01X54356Y82804D03*
G01X51816Y82804D03*
G01X54356Y85344D03*
G01X51816Y85344D03*
G54D27*
G01X10011Y119061D03*
G36*
G01X9060Y120779D02*
G01X9060Y122684D01*
G01X10962Y122684D01*
G01X10962Y120779D01*
G01X9060Y120779D01*
G37*
G01X10011Y116391D03*
G01X10011Y279335D03*
G36*
G01X9060Y281053D02*
G01X9060Y282958D01*
G01X10962Y282958D01*
G01X10962Y281053D01*
G01X9060Y281053D01*
G37*
G01X10011Y276665D03*
G54D30*
G01X45720Y124968D03*
G01X45720Y122428D03*
G01X45720Y119888D03*
G01X45720Y117348D03*
G01X45720Y114808D03*
G01X45720Y112268D03*
G01X45720Y109728D03*
G01X45720Y107188D03*
G01X53848Y107188D03*
G01X53848Y109728D03*
G01X53848Y112268D03*
G01X53848Y114808D03*
G01X53848Y117348D03*
G01X53848Y119888D03*
G01X53848Y122428D03*
G01X53848Y124968D03*
G01X84074Y124968D03*
G01X84074Y122428D03*
G01X84074Y119888D03*
G01X84074Y117348D03*
G01X84074Y114808D03*
G01X84074Y112268D03*
G01X84074Y109728D03*
G01X84074Y107188D03*
G01X92202Y107188D03*
G01X92202Y109728D03*
G01X92202Y112268D03*
G01X92202Y114808D03*
G01X92202Y117348D03*
G01X92202Y119888D03*
G01X92202Y122428D03*
G01X92202Y124968D03*
G36*
G01X28869Y274487D02*
G01X28869Y276692D01*
G01X31074Y276692D01*
G01X31074Y274487D01*
G01X28869Y274487D01*
G37*
G01X29972Y278130D03*
G01X29972Y280670D03*
G01X29972Y283210D03*
G01X29972Y285750D03*
G01X29972Y288290D03*
G01X29972Y290830D03*
G01X22352Y290830D03*
G01X22352Y288290D03*
G01X22352Y285750D03*
G01X22352Y283210D03*
G01X22352Y280670D03*
G01X22352Y278130D03*
G01X22352Y275590D03*
G01X84074Y293116D03*
G01X84074Y290576D03*
G01X84074Y288036D03*
G01X84074Y285496D03*
G01X84074Y282956D03*
G01X84074Y280416D03*
G01X84074Y277876D03*
G01X84074Y275336D03*
G01X92202Y275336D03*
G01X92202Y277876D03*
G01X92202Y280416D03*
G01X92202Y282956D03*
G01X92202Y285496D03*
G01X92202Y288036D03*
G01X92202Y290576D03*
G01X92202Y293116D03*
G01X43180Y293116D03*
G01X43180Y290576D03*
G01X43180Y288036D03*
G01X43180Y285496D03*
G01X43180Y282956D03*
G01X43180Y280416D03*
G01X43180Y277876D03*
G01X43180Y275336D03*
G01X51308Y275336D03*
G01X51308Y277876D03*
G01X51308Y280416D03*
G01X51308Y282956D03*
G01X51308Y285496D03*
G01X51308Y288036D03*
G01X51308Y290576D03*
G01X51308Y293116D03*
G54D32*
G01X55557Y207082D03*
G01X58097Y207082D03*
G01X60637Y207082D03*
G01X91004Y195394D03*
G01X91004Y192854D03*
G01X91004Y190314D03*
G54D27*
G01X28496Y222524D03*
G01X39996Y222524D03*
G01X75486Y191282D03*
G01X86986Y191282D03*
G01X110030Y220746D03*
G01X121530Y220746D03*
G01X37543Y306811D03*
G01X26043Y306811D03*
G01X56113Y319834D03*
G01X56113Y331334D03*
G01X94762Y318975D03*
G01X94762Y307475D03*
G01X28496Y219730D03*
G01X39996Y219730D03*
G01X75486Y188234D03*
G01X86986Y188234D03*
G01X110030Y223794D03*
G01X121530Y223794D03*
G01X25956Y302534D03*
G01X37456Y302534D03*
G01X86085Y307896D03*
G01X86085Y319396D03*
G01X91673Y307642D03*
G01X91673Y319142D03*
G01X100817Y178102D03*
G01X100817Y189602D03*
G01X75486Y185186D03*
G01X86986Y185186D03*
G01X28496Y216682D03*
G01X39996Y216682D03*
G01X104599Y304525D03*
G01X93099Y304525D03*
G01X47010Y328881D03*
G01X47010Y317381D03*
G01X12679Y310944D03*
G01X12679Y322444D03*
G01X51328Y216867D03*
G01X51328Y205367D03*
G01X70337Y199946D03*
G01X70337Y211446D03*
G01X105966Y174772D03*
G01X117466Y174772D03*
G01X25928Y322531D03*
G01X25928Y311031D03*
G01X52344Y343105D03*
G01X52344Y331605D03*
G01X115013Y332211D03*
G01X103513Y332211D03*
G01X81009Y218456D03*
G01X85009Y218440D03*
G01X111235Y181372D03*
G01X115235Y181356D03*
G01X25670Y334501D03*
G01X21670Y334518D03*
G54D32*
G01X24928Y328865D03*
G01X21427Y328865D03*
G54D27*
G01X67580Y337803D03*
G01X63580Y337820D03*
G54D32*
G01X58101Y337529D03*
G01X58101Y341030D03*
G54D27*
G01X112505Y302497D03*
G01X112522Y306497D03*
G54D32*
G01X116295Y304356D03*
G01X119796Y304356D03*
G54D27*
G01X105966Y178074D03*
G01X117466Y178074D03*
G01X93197Y200454D03*
G01X93197Y211954D03*
G01X62971Y190040D03*
G01X62971Y201540D03*
G01X17038Y322531D03*
G01X17038Y311031D03*
G01X67104Y320568D03*
G01X78604Y320568D03*
G01X115013Y327893D03*
G01X103513Y327893D03*
G54D32*
G01X73268Y330053D03*
G01X73268Y332593D03*
G01X70728Y330053D03*
G01X70728Y332593D03*
G01X68188Y330053D03*
G01X68188Y332593D03*
G01X65648Y330053D03*
G36*
G01X64785Y331729D02*
G01X64785Y333456D01*
G01X66512Y333456D01*
G01X66512Y331729D01*
G01X64785Y331729D01*
G37*
G01X84698Y210165D03*
G01X84698Y212705D03*
G01X82158Y210165D03*
G01X82158Y212705D03*
G01X79618Y210165D03*
G01X79618Y212705D03*
G01X77078Y210165D03*
G36*
G01X76215Y211841D02*
G01X76215Y213568D01*
G01X77942Y213568D01*
G01X77942Y211841D01*
G01X76215Y211841D01*
G37*
G54D27*
G01X48493Y205280D03*
G01X48493Y216780D03*
G01X74978Y199664D03*
G01X86478Y199664D03*
G01X98572Y199087D03*
G01X98572Y187587D03*
G01X21569Y310944D03*
G01X21569Y322444D03*
G01X67358Y316504D03*
G01X78858Y316504D03*
G01X103426Y324632D03*
G01X114926Y324632D03*
G01X55609Y182134D03*
G01X59609Y182118D03*
G54D32*
G01X33600Y343730D03*
G01X33600Y341190D03*
G01X33600Y338650D03*
G01X86178Y341444D03*
G01X86178Y338904D03*
G01X86178Y336364D03*
G01X93290Y341444D03*
G01X93290Y338904D03*
G01X93290Y336364D03*
G01X113215Y216988D03*
G01X115755Y216988D03*
G01X118295Y216988D03*
G01X73623Y218250D03*
G01X77124Y218250D03*
G01X109382Y185230D03*
G01X105881Y185230D03*
G01X56097Y188278D03*
G01X59598Y188278D03*
G01X49637Y192415D03*
G01X52177Y192415D03*
G01X49637Y194955D03*
G01X52177Y194955D03*
G01X49637Y197495D03*
G01X52177Y197495D03*
G01X49637Y200035D03*
G36*
G01X51313Y199171D02*
G01X51313Y200898D01*
G01X53040Y200898D01*
G01X53040Y199171D01*
G01X51313Y199171D01*
G37*
G01X111643Y192932D03*
G01X111643Y190392D03*
G01X114183Y192932D03*
G01X114183Y190392D03*
G01X116723Y192932D03*
G01X116723Y190392D03*
G01X119263Y192932D03*
G54D31*
G01X119263Y190393D03*
G54D32*
G01X38724Y329799D03*
G01X38724Y332339D03*
G01X36184Y329799D03*
G01X36184Y332339D03*
G01X33644Y329799D03*
G01X33644Y332339D03*
G01X31104Y329799D03*
G36*
G01X30241Y331477D02*
G01X30241Y333204D01*
G01X31968Y333204D01*
G01X31968Y331477D01*
G01X30241Y331477D01*
G37*
G01X117709Y312303D03*
G01X120249Y312303D03*
G01X117709Y314843D03*
G01X120249Y314843D03*
G01X117709Y317383D03*
G01X120249Y317383D03*
G01X117709Y319923D03*
G36*
G01X119385Y319059D02*
G01X119385Y320786D01*
G01X121112Y320786D01*
G01X121112Y319059D01*
G01X119385Y319059D01*
G37*
G54D27*
G01X12510Y159914D03*
G36*
G01X8887Y158963D02*
G01X8887Y160865D01*
G01X10792Y160865D01*
G01X10792Y158963D01*
G01X8887Y158963D01*
G37*
G01X15180Y159914D03*
G01X12256Y240686D03*
G54D28*
G01X9585Y240686D03*
G54D27*
G01X14926Y240686D03*
G01X12510Y355240D03*
G54D28*
G01X9839Y355240D03*
G54D27*
G01X15180Y355240D03*
G54D32*
G01X121666Y370586D03*
G01X78232Y352298D03*
G01X41402Y352298D03*
G01X120650Y261620D03*
G01X80264Y232410D03*
G01X17018Y247396D03*
G01X111252Y148082D03*
G01X96266Y151638D03*
G01X50546Y169926D03*
G54D30*
G01X110236Y124968D03*
G01X110236Y122428D03*
G01X110236Y119888D03*
G01X110236Y117348D03*
G01X110236Y114808D03*
G01X110236Y112268D03*
G01X110236Y109728D03*
G01X110236Y107188D03*
G01X102108Y107188D03*
G01X102108Y109728D03*
G01X102108Y112268D03*
G01X102108Y114808D03*
G01X102108Y117348D03*
G01X102108Y119888D03*
G01X102108Y122428D03*
G01X102108Y124968D03*
G01X71882Y124968D03*
G01X71882Y122428D03*
G01X71882Y119888D03*
G01X71882Y117348D03*
G01X71882Y114808D03*
G01X71882Y112268D03*
G01X71882Y109728D03*
G01X71882Y107188D03*
G01X63754Y107188D03*
G01X63754Y109728D03*
G01X63754Y112268D03*
G01X63754Y114808D03*
G01X63754Y117348D03*
G01X63754Y119888D03*
G01X63754Y122428D03*
G01X63754Y124968D03*
G01X71882Y293116D03*
G01X71882Y290576D03*
G01X71882Y288036D03*
G01X71882Y285496D03*
G01X71882Y282956D03*
G01X71882Y280416D03*
G01X71882Y277876D03*
G01X71882Y275336D03*
G01X63754Y275336D03*
G01X63754Y277876D03*
G01X63754Y280416D03*
G01X63754Y282956D03*
G01X63754Y285496D03*
G01X63754Y288036D03*
G01X63754Y290576D03*
G01X63754Y293116D03*
G01X110236Y293116D03*
G01X110236Y290576D03*
G01X110236Y288036D03*
G01X110236Y285496D03*
G01X110236Y282956D03*
G01X110236Y280416D03*
G01X110236Y277876D03*
G01X110236Y275336D03*
G01X102108Y275336D03*
G01X102108Y277876D03*
G01X102108Y280416D03*
G01X102108Y282956D03*
G01X102108Y285496D03*
G01X102108Y288036D03*
G01X102108Y290576D03*
G01X102108Y293116D03*
G54D32*
G01X91302Y147212D03*
G01X91302Y144672D03*
G01X88762Y147212D03*
G01X88762Y144672D03*
G01X86222Y147212D03*
G01X86222Y144672D03*
G01X83682Y147212D03*
G54D31*
G01X83682Y144670D03*
G54D27*
G01X50751Y348508D03*
G01X39251Y348508D03*
G01X28145Y250464D03*
G01X16645Y250464D03*
G01X105934Y260620D03*
G01X101934Y260604D03*
G54D32*
G01X24674Y229680D03*
G01X21173Y229680D03*
G54D27*
G01X28145Y253512D03*
G01X16645Y253512D03*
G01X121871Y267736D03*
G01X110371Y267736D03*
G01X73865Y165374D03*
G01X62365Y165374D03*
G01X73168Y142002D03*
G01X69168Y141986D03*
G54D32*
G01X73442Y147384D03*
G01X69941Y147384D03*
G54D27*
G01X61927Y179344D03*
G01X50427Y179344D03*
G01X120601Y130830D03*
G01X109101Y130830D03*
G01X85295Y157500D03*
G01X73795Y157500D03*
G01X118126Y139208D03*
G01X114126Y139192D03*
G54D32*
G01X101019Y162628D03*
G01X101019Y160088D03*
G01X101019Y157548D03*
G01X70793Y159580D03*
G01X70793Y157040D03*
G01X70793Y154500D03*
G01X58746Y136075D03*
G01X58746Y138615D03*
G01X58746Y141155D03*
G54D27*
G01X102849Y354281D03*
G01X102849Y342781D03*
G01X78437Y348254D03*
G01X66937Y348254D03*
G01X49227Y342920D03*
G01X37727Y342920D03*
G01X102918Y339577D03*
G01X114418Y339577D03*
G01X83291Y377903D03*
G01X83291Y366403D03*
G01X53134Y348467D03*
G01X64634Y348467D03*
G01X107236Y345165D03*
G01X118736Y345165D03*
G01X58907Y372569D03*
G01X58907Y361069D03*
G01X25379Y363679D03*
G01X25379Y352179D03*
G01X102821Y270022D03*
G01X91321Y270022D03*
G01X63012Y252270D03*
G01X63012Y263770D03*
G01X40180Y263631D03*
G01X51680Y263631D03*
G01X91234Y267441D03*
G01X102734Y267441D03*
G01X66273Y263857D03*
G01X66273Y252357D03*
G01X51767Y260370D03*
G01X40267Y260370D03*
G01X91234Y264139D03*
G01X102734Y264139D03*
G01X69321Y263857D03*
G01X69321Y252357D03*
G01X51767Y257068D03*
G01X40267Y257068D03*
G54D32*
G01X46409Y234764D03*
G01X46409Y232224D03*
G01X46409Y229684D03*
G01X97463Y375734D03*
G01X97463Y373194D03*
G01X97463Y370654D03*
G01X76381Y375988D03*
G01X76381Y373448D03*
G01X76381Y370908D03*
G01X106099Y241368D03*
G01X106099Y238828D03*
G01X106099Y236288D03*
G01X53775Y375480D03*
G01X53775Y372940D03*
G01X53775Y370400D03*
G01X56823Y234764D03*
G01X56823Y232224D03*
G01X56823Y229684D03*
G54D27*
G01X117299Y165374D03*
G01X105799Y165374D03*
G01X96979Y170454D03*
G01X85479Y170454D03*
G01X17320Y172699D03*
G01X28820Y172699D03*
G01X105712Y168127D03*
G01X117212Y168127D03*
G01X85392Y173207D03*
G01X96892Y173207D03*
G01X28907Y175280D03*
G01X17407Y175280D03*
G01X105712Y170921D03*
G01X117212Y170921D03*
G01X85392Y176001D03*
G01X96892Y176001D03*
G01X28907Y178328D03*
G01X17407Y178328D03*
G54D32*
G01X49159Y164445D03*
G01X49159Y166985D03*
G01X51699Y164445D03*
G01X51699Y166985D03*
G01X54239Y164445D03*
G01X54239Y166985D03*
G01X56779Y164445D03*
G36*
G01X55915Y166123D02*
G01X55915Y167850D01*
G01X57642Y167850D01*
G01X57642Y166123D01*
G01X55915Y166123D01*
G37*
G01X112405Y255377D03*
G01X112405Y257917D03*
G01X114945Y255377D03*
G01X114945Y257917D03*
G01X117485Y255377D03*
G01X117485Y257917D03*
G01X120025Y255377D03*
G36*
G01X119161Y257055D02*
G01X119161Y258782D01*
G01X120888Y258782D01*
G01X120888Y257055D01*
G01X119161Y257055D01*
G37*
G01X46852Y358032D03*
G01X46852Y355492D03*
G01X44312Y358032D03*
G01X44312Y355492D03*
G01X41772Y358032D03*
G01X41772Y355492D03*
G01X39232Y358032D03*
G54D31*
G01X39232Y355493D03*
G54D32*
G01X119018Y357515D03*
G01X116478Y357515D03*
G01X119018Y360055D03*
G01X116478Y360055D03*
G01X119018Y362595D03*
G01X116478Y362595D03*
G01X119018Y365135D03*
G36*
G01X115613Y364271D02*
G01X115613Y365998D01*
G01X117340Y365998D01*
G01X117340Y364271D01*
G01X115613Y364271D01*
G37*
G01X74060Y357515D03*
G01X71520Y357515D03*
G01X74060Y360055D03*
G01X71520Y360055D03*
G01X74060Y362595D03*
G01X71520Y362595D03*
G01X74060Y365135D03*
G36*
G01X70657Y364271D02*
G01X70657Y365998D01*
G01X72384Y365998D01*
G01X72384Y364271D01*
G01X70657Y364271D01*
G37*
G54D27*
G01X110284Y378439D03*
G01X121784Y378439D03*
G01X61516Y372597D03*
G01X73016Y372597D03*
G01X29697Y363679D03*
G01X29697Y352179D03*
G01X110727Y370348D03*
G01X110744Y366348D03*
G54D32*
G01X104837Y370114D03*
G01X104837Y366613D03*
G54D27*
G01X63229Y359139D03*
G01X67229Y359156D03*
G54D32*
G01X65975Y366558D03*
G01X65975Y363057D03*
G54D27*
G01X52307Y362949D03*
G01X56307Y362966D03*
G54D32*
G01X54799Y359192D03*
G01X54799Y355691D03*
G54D27*
G01X34015Y363933D03*
G01X34015Y352433D03*
G01X81259Y364187D03*
G01X81259Y352687D03*
G01X110284Y373867D03*
G01X121784Y373867D03*
G01X106728Y348213D03*
G01X118228Y348213D03*
G01X85364Y352600D03*
G01X85364Y364100D03*
G01X110284Y264139D03*
G01X121784Y264139D03*
G01X77703Y246331D03*
G01X77703Y234831D03*
G54D32*
G01X104583Y255814D03*
G01X104583Y252313D03*
G54D27*
G01X100059Y246396D03*
G01X100076Y242396D03*
G54D32*
G01X94931Y247686D03*
G01X94931Y244185D03*
G54D27*
G01X27669Y231410D03*
G01X27686Y227410D03*
G01X110538Y270997D03*
G01X122038Y270997D03*
G01X68813Y246331D03*
G01X68813Y234831D03*
G01X73426Y234744D03*
G01X73426Y246244D03*
G01X17251Y236425D03*
G01X17251Y224925D03*
G01X105966Y159491D03*
G01X117466Y159491D03*
G01X81836Y161015D03*
G01X93336Y161015D03*
G01X61705Y175530D03*
G01X61722Y171530D03*
G54D32*
G01X56323Y175296D03*
G01X56323Y171795D03*
G54D27*
G01X105966Y162539D03*
G01X117466Y162539D03*
G01X73708Y154665D03*
G01X85208Y154665D03*
G01X61996Y149400D03*
G01X61996Y160900D03*
G54D32*
G01X110425Y144308D03*
G01X110425Y140807D03*
G01X119018Y146695D03*
G01X116478Y146695D03*
G01X119018Y149235D03*
G01X116478Y149235D03*
G01X119018Y151775D03*
G01X116478Y151775D03*
G01X119018Y154315D03*
G36*
G01X115615Y153451D02*
G01X115615Y155178D01*
G01X117342Y155178D01*
G01X117342Y153451D01*
G01X115615Y153451D01*
G37*
G01X85197Y245226D03*
G01X87737Y245226D03*
G01X85197Y242686D03*
G01X87737Y242686D03*
G01X85197Y240146D03*
G01X87737Y240146D03*
G01X85197Y237606D03*
G36*
G01X86875Y236743D02*
G01X86875Y238470D01*
G01X88602Y238470D01*
G01X88602Y236743D01*
G01X86875Y236743D01*
G37*
G01X23006Y237627D03*
G01X20466Y237627D03*
G01X23006Y240167D03*
G01X20466Y240167D03*
G01X23006Y242707D03*
G01X20466Y242707D03*
G01X23006Y245247D03*
G36*
G01X19601Y244383D02*
G01X19601Y246110D01*
G01X21328Y246110D01*
G01X21328Y244383D01*
G01X19601Y244383D01*
G37*
M00*
M02*
