G04 Layer: BottomLayer*
G04 EasyEDA v6.1.52, Thu, 18 Jul 2019 05:10:24 GMT*
G04 901f24a5bca74c948225dbc6938cad0f,10*
G04 Gerber Generator version 0.2*
G04 Scale: 100 percent, Rotated: No, Reflected: No *
G04 Dimensions in millimeters *
G04 leading zeros omitted , absolute positions ,3 integer and 3 decimal *
%FSLAX33Y33*%
%MOMM*%
G90*
G71D02*

%ADD11C,0.299999*%
%ADD12C,0.399999*%
%ADD13C,1.399997*%
%ADD15C,1.650009*%

%LPD*%
G54D11*
G01X9398Y7112D02*
G01X6223Y7112D01*
G01X3937Y4826D01*
G01X11684Y8636D02*
G01X11684Y6350D01*
G01X6350Y1016D01*
G01X2667Y1016D01*
G01X1397Y2286D01*
G01X10414Y9398D02*
G01X10414Y6350D01*
G01X6350Y2286D01*
G01X3937Y2286D01*
G01X8890Y6096D02*
G01X8382Y6096D01*
G01X5842Y3556D01*
G01X2667Y3556D01*
G01X1397Y4826D01*
G01X10922Y508D02*
G01X16256Y508D01*
G01X17018Y1270D01*
G01X17018Y3526D01*
G01X18180Y4688D01*
G01X7620Y1270D02*
G01X10160Y1270D01*
G01X13462Y4572D01*
G01X15523Y4572D01*
G01X15640Y4688D01*
G54D13*
G01X18180Y9768D03*
G01X15640Y9768D03*
G01X18180Y7228D03*
G01X15640Y7228D03*
G01X18180Y4688D03*
G01X15640Y4688D03*
G01X18180Y2148D03*
G36*
G01X16339Y2847D02*
G01X16339Y1447D01*
G01X14940Y1447D01*
G01X14940Y2847D01*
G01X16339Y2847D01*
G37*
G54D15*
G01X1397Y2286D03*
G01X3937Y2286D03*
G01X1397Y4826D03*
G01X3937Y4826D03*
G01X1397Y7366D03*
G01X3937Y7366D03*
G01X1397Y9906D03*
G36*
G01X4761Y10730D02*
G01X4761Y9081D01*
G01X3112Y9081D01*
G01X3112Y10730D01*
G01X4761Y10730D01*
G37*
G54D12*
G01X10414Y9398D03*
G01X11684Y8636D03*
G01X9398Y7112D03*
G01X8890Y6096D03*
G01X10922Y508D03*
G01X7620Y1270D03*
M00*
M02*
