;Layer: Drill PTH
;EasyEDA v6.1.52, Thu, 18 Jul 2019 05:10:24 GMT
;901f24a5bca74c948225dbc6938cad0f,,10
;Gerber Generator version 0.2
M48
METRIC,LZ,000.000
;Holesize 1 = 0.200 METRIC
T01C0.200
;Holesize 2 = 0.640 METRIC
T02C0.640
;Holesize 3 = 0.951 METRIC
T03C0.951
%
G05
G90
T01
X+010414Y+009398
X+011684Y+008636
X+009398Y+007112
X+008890Y+006096
X+010922Y+000508
X+007620Y+001270
T02
X+018180Y+009768
X+015640Y+009768
X+018180Y+007228
X+015640Y+007228
X+018180Y+004688
X+015640Y+004688
X+018180Y+002148
X+015640Y+002147
T03
X+001397Y+002286
X+003937Y+002286
X+001397Y+004826
X+003937Y+004826
X+001397Y+007366
X+003937Y+007366
X+001397Y+009906
X+003937Y+009906
M30
